<?xml version="1.0" encoding="utf-8" standalone="no"?>
<!DOCTYPE svg PUBLIC "-//W3C//DTD SVG 1.1//EN"
  "http://www.w3.org/Graphics/SVG/1.1/DTD/svg11.dtd">
<svg xmlns:xlink="http://www.w3.org/1999/xlink" width="565.828813pt" height="239.504953pt" viewBox="0 0 565.828813 239.504953" xmlns="http://www.w3.org/2000/svg" version="1.1">
 <metadata>
  <rdf:RDF xmlns:dc="http://purl.org/dc/elements/1.1/" xmlns:cc="http://creativecommons.org/ns#" xmlns:rdf="http://www.w3.org/1999/02/22-rdf-syntax-ns#">
   <cc:Work>
    <dc:type rdf:resource="http://purl.org/dc/dcmitype/StillImage"/>
    <dc:date>2026-08-06T00:34:05.489556</dc:date>
    <dc:format>image/svg+xml</dc:format>
    <dc:creator>
     <cc:Agent>
      <dc:title>Matplotlib v3.7.1, https://matplotlib.org/</dc:title>
     </cc:Agent>
    </dc:creator>
   </cc:Work>
  </rdf:RDF>
 </metadata>
 <defs>
  <style type="text/css">*{stroke-linejoin: round; stroke-linecap: butt}</style>
 </defs>
 <g id="figure_1">
  <g id="patch_1">
   <path d="M 0 239.504953 
L 565.828813 239.504953 
L 565.828813 0 
L 0 0 
z
" style="fill: #ffffff"/>
  </g>
  <g id="axes_1">
   <g id="patch_2">
    <path d="M 34.378594 211.99875 
L 272.796776 211.99875 
L 272.796776 17.95875 
L 34.378594 17.95875 
z
" style="fill: #ffffff"/>
   </g>
   <g id="matplotlib.axis_1">
    <g id="xtick_1">
     <g id="line2d_1">
      <path d="M 62.005797 211.99875 
L 62.005797 17.95875 
" clip-path="url(#p48d912922e)" style="fill: none; stroke: #cbd5e1; stroke-opacity: 0.7; stroke-width: 0.5; stroke-linecap: square"/>
     </g>
     <g id="line2d_2">
      <defs>
       <path id="mf9e884ace0" d="M 0 0 
L 0 2.5 
" style="stroke: #64748b; stroke-width: 0.8"/>
      </defs>
      <g>
       <use xlink:href="#mf9e884ace0" x="62.005797" y="211.99875" style="fill: #64748b; stroke: #64748b; stroke-width: 0.8"/>
      </g>
     </g>
     <g id="text_1">
      <!-- gradient descent from 0 -->
      <g style="fill: #64748b" transform="translate(17.359547 224.1825) scale(0.085 -0.085)">
       <defs>
        <path id="Helvetica-67" d="M 1594 3406 
Q 1988 3406 2281 3213 
Q 2441 3103 2606 2894 
L 2606 3316 
L 3125 3316 
L 3125 272 
Q 3125 -366 2938 -734 
Q 2588 -1416 1616 -1416 
Q 1075 -1416 706 -1173 
Q 338 -931 294 -416 
L 866 -416 
Q 906 -641 1028 -763 
Q 1219 -950 1628 -950 
Q 2275 -950 2475 -494 
Q 2594 -225 2584 466 
Q 2416 209 2178 84 
Q 1941 -41 1550 -41 
Q 1006 -41 598 345 
Q 191 731 191 1622 
Q 191 2463 602 2934 
Q 1013 3406 1594 3406 
z
M 2606 1688 
Q 2606 2309 2350 2609 
Q 2094 2909 1697 2909 
Q 1103 2909 884 2353 
Q 769 2056 769 1575 
Q 769 1009 998 714 
Q 1228 419 1616 419 
Q 2222 419 2469 966 
Q 2606 1275 2606 1688 
z
M 1659 3428 
L 1659 3428 
z
" transform="scale(0.015625)"/>
        <path id="Helvetica-72" d="M 428 3347 
L 963 3347 
L 963 2769 
Q 1028 2938 1284 3180 
Q 1541 3422 1875 3422 
Q 1891 3422 1928 3419 
Q 1966 3416 2056 3406 
L 2056 2813 
Q 2006 2822 1964 2825 
Q 1922 2828 1872 2828 
Q 1447 2828 1219 2554 
Q 991 2281 991 1925 
L 991 0 
L 428 0 
L 428 3347 
z
" transform="scale(0.015625)"/>
        <path id="Helvetica-61" d="M 844 891 
Q 844 647 1022 506 
Q 1200 366 1444 366 
Q 1741 366 2019 503 
Q 2488 731 2488 1250 
L 2488 1703 
Q 2384 1638 2221 1594 
Q 2059 1550 1903 1531 
L 1563 1488 
Q 1256 1447 1103 1359 
Q 844 1213 844 891 
z
M 2206 2028 
Q 2400 2053 2466 2191 
Q 2503 2266 2503 2406 
Q 2503 2694 2298 2823 
Q 2094 2953 1713 2953 
Q 1272 2953 1088 2716 
Q 984 2584 953 2325 
L 428 2325 
Q 444 2944 830 3186 
Q 1216 3428 1725 3428 
Q 2316 3428 2684 3203 
Q 3050 2978 3050 2503 
L 3050 575 
Q 3050 488 3086 434 
Q 3122 381 3238 381 
Q 3275 381 3322 386 
Q 3369 391 3422 400 
L 3422 -16 
Q 3291 -53 3222 -62 
Q 3153 -72 3034 -72 
Q 2744 -72 2613 134 
Q 2544 244 2516 444 
Q 2344 219 2022 53 
Q 1700 -113 1313 -113 
Q 847 -113 551 170 
Q 256 453 256 878 
Q 256 1344 547 1600 
Q 838 1856 1309 1916 
L 2206 2028 
z
M 1741 3428 
L 1741 3428 
z
" transform="scale(0.015625)"/>
        <path id="Helvetica-64" d="M 769 1634 
Q 769 1097 997 734 
Q 1225 372 1728 372 
Q 2119 372 2370 708 
Q 2622 1044 2622 1672 
Q 2622 2306 2362 2611 
Q 2103 2916 1722 2916 
Q 1297 2916 1033 2591 
Q 769 2266 769 1634 
z
M 1616 3406 
Q 2000 3406 2259 3244 
Q 2409 3150 2600 2916 
L 2600 4606 
L 3141 4606 
L 3141 0 
L 2634 0 
L 2634 466 
Q 2438 156 2169 18 
Q 1900 -119 1553 -119 
Q 994 -119 584 351 
Q 175 822 175 1603 
Q 175 2334 548 2870 
Q 922 3406 1616 3406 
z
" transform="scale(0.015625)"/>
        <path id="Helvetica-69" d="M 413 3331 
L 984 3331 
L 984 0 
L 413 0 
L 413 3331 
z
M 413 4591 
L 984 4591 
L 984 3953 
L 413 3953 
L 413 4591 
z
" transform="scale(0.015625)"/>
        <path id="Helvetica-65" d="M 1806 3422 
Q 2163 3422 2497 3255 
Q 2831 3088 3006 2822 
Q 3175 2569 3231 2231 
Q 3281 2000 3281 1494 
L 828 1494 
Q 844 984 1069 676 
Q 1294 369 1766 369 
Q 2206 369 2469 659 
Q 2619 828 2681 1050 
L 3234 1050 
Q 3213 866 3089 639 
Q 2966 413 2813 269 
Q 2556 19 2178 -69 
Q 1975 -119 1719 -119 
Q 1094 -119 659 336 
Q 225 791 225 1609 
Q 225 2416 662 2919 
Q 1100 3422 1806 3422 
z
M 2703 1941 
Q 2669 2306 2544 2525 
Q 2313 2931 1772 2931 
Q 1384 2931 1121 2651 
Q 859 2372 844 1941 
L 2703 1941 
z
M 1753 3428 
L 1753 3428 
z
" transform="scale(0.015625)"/>
        <path id="Helvetica-6e" d="M 413 3347 
L 947 3347 
L 947 2872 
Q 1184 3166 1450 3294 
Q 1716 3422 2041 3422 
Q 2753 3422 3003 2925 
Q 3141 2653 3141 2147 
L 3141 0 
L 2569 0 
L 2569 2109 
Q 2569 2416 2478 2603 
Q 2328 2916 1934 2916 
Q 1734 2916 1606 2875 
Q 1375 2806 1200 2600 
Q 1059 2434 1017 2257 
Q 975 2081 975 1753 
L 975 0 
L 413 0 
L 413 3347 
z
M 1734 3428 
L 1734 3428 
z
" transform="scale(0.015625)"/>
        <path id="Helvetica-74" d="M 525 4281 
L 1094 4281 
L 1094 3347 
L 1628 3347 
L 1628 2888 
L 1094 2888 
L 1094 703 
Q 1094 528 1213 469 
Q 1278 434 1431 434 
Q 1472 434 1519 436 
Q 1566 438 1628 444 
L 1628 0 
Q 1531 -28 1426 -40 
Q 1322 -53 1200 -53 
Q 806 -53 665 148 
Q 525 350 525 672 
L 525 2888 
L 72 2888 
L 72 3347 
L 525 3347 
L 525 4281 
z
" transform="scale(0.015625)"/>
        <path id="Helvetica-20" transform="scale(0.015625)"/>
        <path id="Helvetica-73" d="M 747 1050 
Q 772 769 888 619 
Q 1100 347 1625 347 
Q 1938 347 2175 483 
Q 2413 619 2413 903 
Q 2413 1119 2222 1231 
Q 2100 1300 1741 1391 
L 1294 1503 
Q 866 1609 663 1741 
Q 300 1969 300 2372 
Q 300 2847 642 3140 
Q 984 3434 1563 3434 
Q 2319 3434 2653 2991 
Q 2863 2709 2856 2384 
L 2325 2384 
Q 2309 2575 2191 2731 
Q 1997 2953 1519 2953 
Q 1200 2953 1036 2831 
Q 872 2709 872 2509 
Q 872 2291 1088 2159 
Q 1213 2081 1456 2022 
L 1828 1931 
Q 2434 1784 2641 1647 
Q 2969 1431 2969 969 
Q 2969 522 2630 197 
Q 2291 -128 1597 -128 
Q 850 -128 539 211 
Q 228 550 206 1050 
L 747 1050 
z
M 1578 3428 
L 1578 3428 
z
" transform="scale(0.015625)"/>
        <path id="Helvetica-63" d="M 1703 3444 
Q 2269 3444 2623 3169 
Q 2978 2894 3050 2222 
L 2503 2222 
Q 2453 2531 2275 2736 
Q 2097 2941 1703 2941 
Q 1166 2941 934 2416 
Q 784 2075 784 1575 
Q 784 1072 996 728 
Q 1209 384 1666 384 
Q 2016 384 2220 598 
Q 2425 813 2503 1184 
L 3050 1184 
Q 2956 519 2581 211 
Q 2206 -97 1622 -97 
Q 966 -97 575 383 
Q 184 863 184 1581 
Q 184 2463 612 2953 
Q 1041 3444 1703 3444 
z
M 1616 3428 
L 1616 3428 
z
" transform="scale(0.015625)"/>
        <path id="Helvetica-66" d="M 553 3856 
Q 566 4206 675 4369 
Q 872 4656 1434 4656 
Q 1488 4656 1544 4653 
Q 1600 4650 1672 4644 
L 1672 4131 
Q 1584 4138 1545 4139 
Q 1506 4141 1472 4141 
Q 1216 4141 1166 4008 
Q 1116 3875 1116 3331 
L 1672 3331 
L 1672 2888 
L 1109 2888 
L 1109 0 
L 553 0 
L 553 2888 
L 88 2888 
L 88 3331 
L 553 3331 
L 553 3856 
z
" transform="scale(0.015625)"/>
        <path id="Helvetica-6f" d="M 1741 363 
Q 2300 363 2508 786 
Q 2716 1209 2716 1728 
Q 2716 2197 2566 2491 
Q 2328 2953 1747 2953 
Q 1231 2953 997 2559 
Q 763 2166 763 1609 
Q 763 1075 997 719 
Q 1231 363 1741 363 
z
M 1763 3444 
Q 2409 3444 2856 3012 
Q 3303 2581 3303 1744 
Q 3303 934 2909 406 
Q 2516 -122 1688 -122 
Q 997 -122 590 345 
Q 184 813 184 1600 
Q 184 2444 612 2944 
Q 1041 3444 1763 3444 
z
M 1744 3428 
L 1744 3428 
z
" transform="scale(0.015625)"/>
        <path id="Helvetica-6d" d="M 413 3347 
L 969 3347 
L 969 2872 
Q 1169 3119 1331 3231 
Q 1609 3422 1963 3422 
Q 2363 3422 2606 3225 
Q 2744 3113 2856 2894 
Q 3044 3163 3297 3292 
Q 3550 3422 3866 3422 
Q 4541 3422 4784 2934 
Q 4916 2672 4916 2228 
L 4916 0 
L 4331 0 
L 4331 2325 
Q 4331 2659 4164 2784 
Q 3997 2909 3756 2909 
Q 3425 2909 3186 2687 
Q 2947 2466 2947 1947 
L 2947 0 
L 2375 0 
L 2375 2184 
Q 2375 2525 2294 2681 
Q 2166 2916 1816 2916 
Q 1497 2916 1236 2669 
Q 975 2422 975 1775 
L 975 0 
L 413 0 
L 413 3347 
z
" transform="scale(0.015625)"/>
        <path id="Helvetica-30" d="M 1731 4475 
Q 2600 4475 2988 3759 
Q 3288 3206 3288 2244 
Q 3288 1331 3016 734 
Q 2622 -122 1728 -122 
Q 922 -122 528 578 
Q 200 1163 200 2147 
Q 200 2909 397 3456 
Q 766 4475 1731 4475 
z
M 1725 391 
Q 2163 391 2422 778 
Q 2681 1166 2681 2222 
Q 2681 2984 2493 3476 
Q 2306 3969 1766 3969 
Q 1269 3969 1039 3501 
Q 809 3034 809 2125 
Q 809 1441 956 1025 
Q 1181 391 1725 391 
z
" transform="scale(0.015625)"/>
       </defs>
       <use xlink:href="#Helvetica-67"/>
       <use xlink:href="#Helvetica-72" x="55.615234"/>
       <use xlink:href="#Helvetica-61" x="88.916016"/>
       <use xlink:href="#Helvetica-64" x="144.53125"/>
       <use xlink:href="#Helvetica-69" x="200.146484"/>
       <use xlink:href="#Helvetica-65" x="222.363281"/>
       <use xlink:href="#Helvetica-6e" x="277.978516"/>
       <use xlink:href="#Helvetica-74" x="333.59375"/>
       <use xlink:href="#Helvetica-20" x="361.376953"/>
       <use xlink:href="#Helvetica-64" x="389.160156"/>
       <use xlink:href="#Helvetica-65" x="444.775391"/>
       <use xlink:href="#Helvetica-73" x="500.390625"/>
       <use xlink:href="#Helvetica-63" x="550.390625"/>
       <use xlink:href="#Helvetica-65" x="600.390625"/>
       <use xlink:href="#Helvetica-6e" x="656.005859"/>
       <use xlink:href="#Helvetica-74" x="711.621094"/>
       <use xlink:href="#Helvetica-20" x="739.404297"/>
       <use xlink:href="#Helvetica-66" x="767.1875"/>
       <use xlink:href="#Helvetica-72" x="794.970703"/>
       <use xlink:href="#Helvetica-6f" x="828.271484"/>
       <use xlink:href="#Helvetica-6d" x="883.886719"/>
       <use xlink:href="#Helvetica-20" x="967.1875"/>
       <use xlink:href="#Helvetica-30" x="994.970703"/>
      </g>
     </g>
    </g>
    <g id="xtick_2">
     <g id="line2d_3">
      <path d="M 123.060389 211.99875 
L 123.060389 17.95875 
" clip-path="url(#p48d912922e)" style="fill: none; stroke: #cbd5e1; stroke-opacity: 0.7; stroke-width: 0.5; stroke-linecap: square"/>
     </g>
     <g id="line2d_4">
      <g>
       <use xlink:href="#mf9e884ace0" x="123.060389" y="211.99875" style="fill: #64748b; stroke: #64748b; stroke-width: 0.8"/>
      </g>
     </g>
     <g id="text_2">
      <!-- minimum-norm solution -->
      <g style="fill: #64748b" transform="translate(78.898904 224.096172) scale(0.085 -0.085)">
       <defs>
        <path id="Helvetica-75" d="M 975 3347 
L 975 1125 
Q 975 869 1056 706 
Q 1206 406 1616 406 
Q 2203 406 2416 931 
Q 2531 1213 2531 1703 
L 2531 3347 
L 3094 3347 
L 3094 0 
L 2563 0 
L 2569 494 
Q 2459 303 2297 172 
Q 1975 -91 1516 -91 
Q 800 -91 541 388 
Q 400 644 400 1072 
L 400 3347 
L 975 3347 
z
M 1747 3428 
L 1747 3428 
z
" transform="scale(0.015625)"/>
        <path id="Helvetica-2d" d="M 266 2072 
L 1834 2072 
L 1834 1494 
L 266 1494 
L 266 2072 
z
" transform="scale(0.015625)"/>
        <path id="Helvetica-6c" d="M 428 4591 
L 991 4591 
L 991 0 
L 428 0 
L 428 4591 
z
" transform="scale(0.015625)"/>
       </defs>
       <use xlink:href="#Helvetica-6d"/>
       <use xlink:href="#Helvetica-69" x="83.300781"/>
       <use xlink:href="#Helvetica-6e" x="105.517578"/>
       <use xlink:href="#Helvetica-69" x="161.132812"/>
       <use xlink:href="#Helvetica-6d" x="183.349609"/>
       <use xlink:href="#Helvetica-75" x="266.650391"/>
       <use xlink:href="#Helvetica-6d" x="322.265625"/>
       <use xlink:href="#Helvetica-2d" x="405.566406"/>
       <use xlink:href="#Helvetica-6e" x="438.867188"/>
       <use xlink:href="#Helvetica-6f" x="494.482422"/>
       <use xlink:href="#Helvetica-72" x="550.097656"/>
       <use xlink:href="#Helvetica-6d" x="583.398438"/>
       <use xlink:href="#Helvetica-20" x="666.699219"/>
       <use xlink:href="#Helvetica-73" x="694.482422"/>
       <use xlink:href="#Helvetica-6f" x="744.482422"/>
       <use xlink:href="#Helvetica-6c" x="800.097656"/>
       <use xlink:href="#Helvetica-75" x="822.314453"/>
       <use xlink:href="#Helvetica-74" x="877.929688"/>
       <use xlink:href="#Helvetica-69" x="905.712891"/>
       <use xlink:href="#Helvetica-6f" x="927.929688"/>
       <use xlink:href="#Helvetica-6e" x="983.544922"/>
      </g>
     </g>
    </g>
    <g id="xtick_3">
     <g id="line2d_5">
      <path d="M 184.114981 211.99875 
L 184.114981 17.95875 
" clip-path="url(#p48d912922e)" style="fill: none; stroke: #cbd5e1; stroke-opacity: 0.7; stroke-width: 0.5; stroke-linecap: square"/>
     </g>
     <g id="line2d_6">
      <g>
       <use xlink:href="#mf9e884ace0" x="184.114981" y="211.99875" style="fill: #64748b; stroke: #64748b; stroke-width: 0.8"/>
      </g>
     </g>
     <g id="text_3">
      <!-- another exact fit -->
      <g style="fill: #64748b" transform="translate(153.877559 224.096172) scale(0.085 -0.085)">
       <defs>
        <path id="Helvetica-68" d="M 413 4606 
L 975 4606 
L 975 2894 
Q 1175 3147 1334 3250 
Q 1606 3428 2013 3428 
Q 2741 3428 3000 2919 
Q 3141 2641 3141 2147 
L 3141 0 
L 2563 0 
L 2563 2109 
Q 2563 2478 2469 2650 
Q 2316 2925 1894 2925 
Q 1544 2925 1259 2684 
Q 975 2444 975 1775 
L 975 0 
L 413 0 
L 413 4606 
z
" transform="scale(0.015625)"/>
        <path id="Helvetica-78" d="M 94 3347 
L 822 3347 
L 1591 2169 
L 2369 3347 
L 3053 3331 
L 1925 1716 
L 3103 0 
L 2384 0 
L 1553 1256 
L 747 0 
L 34 0 
L 1213 1716 
L 94 3347 
z
" transform="scale(0.015625)"/>
       </defs>
       <use xlink:href="#Helvetica-61"/>
       <use xlink:href="#Helvetica-6e" x="55.615234"/>
       <use xlink:href="#Helvetica-6f" x="111.230469"/>
       <use xlink:href="#Helvetica-74" x="166.845703"/>
       <use xlink:href="#Helvetica-68" x="194.628906"/>
       <use xlink:href="#Helvetica-65" x="250.244141"/>
       <use xlink:href="#Helvetica-72" x="305.859375"/>
       <use xlink:href="#Helvetica-20" x="339.160156"/>
       <use xlink:href="#Helvetica-65" x="366.943359"/>
       <use xlink:href="#Helvetica-78" x="422.558594"/>
       <use xlink:href="#Helvetica-61" x="472.558594"/>
       <use xlink:href="#Helvetica-63" x="528.173828"/>
       <use xlink:href="#Helvetica-74" x="578.173828"/>
       <use xlink:href="#Helvetica-20" x="605.957031"/>
       <use xlink:href="#Helvetica-66" x="633.740234"/>
       <use xlink:href="#Helvetica-69" x="661.523438"/>
       <use xlink:href="#Helvetica-74" x="683.740234"/>
      </g>
      <!-- (small) -->
      <g style="fill: #64748b" transform="translate(171.367637 233.259703) scale(0.085 -0.085)">
       <defs>
        <path id="Helvetica-28" d="M 1894 4666 
Q 1403 3713 1256 3263 
Q 1034 2578 1034 1681 
Q 1034 775 1288 25 
Q 1444 -438 1903 -1306 
L 1525 -1306 
Q 1069 -594 959 -397 
Q 850 -200 722 138 
Q 547 600 478 1125 
Q 444 1397 444 1644 
Q 444 2569 734 3291 
Q 919 3750 1503 4666 
L 1894 4666 
z
" transform="scale(0.015625)"/>
        <path id="Helvetica-29" d="M 222 -1306 
Q 719 -338 863 106 
Q 1081 778 1081 1681 
Q 1081 2584 828 3334 
Q 672 3797 213 4666 
L 591 4666 
Q 1072 3897 1173 3717 
Q 1275 3538 1394 3222 
Q 1544 2831 1608 2450 
Q 1672 2069 1672 1716 
Q 1672 791 1378 66 
Q 1194 -400 613 -1306 
L 222 -1306 
z
" transform="scale(0.015625)"/>
       </defs>
       <use xlink:href="#Helvetica-28"/>
       <use xlink:href="#Helvetica-73" x="33.300781"/>
       <use xlink:href="#Helvetica-6d" x="83.300781"/>
       <use xlink:href="#Helvetica-61" x="166.601562"/>
       <use xlink:href="#Helvetica-6c" x="222.216797"/>
       <use xlink:href="#Helvetica-6c" x="244.433594"/>
       <use xlink:href="#Helvetica-29" x="266.650391"/>
      </g>
     </g>
    </g>
    <g id="xtick_4">
     <g id="line2d_7">
      <path d="M 245.169573 211.99875 
L 245.169573 17.95875 
" clip-path="url(#p48d912922e)" style="fill: none; stroke: #cbd5e1; stroke-opacity: 0.7; stroke-width: 0.5; stroke-linecap: square"/>
     </g>
     <g id="line2d_8">
      <g>
       <use xlink:href="#mf9e884ace0" x="245.169573" y="211.99875" style="fill: #64748b; stroke: #64748b; stroke-width: 0.8"/>
      </g>
     </g>
     <g id="text_4">
      <!-- another exact fit -->
      <g style="fill: #64748b" transform="translate(214.932151 224.096172) scale(0.085 -0.085)">
       <use xlink:href="#Helvetica-61"/>
       <use xlink:href="#Helvetica-6e" x="55.615234"/>
       <use xlink:href="#Helvetica-6f" x="111.230469"/>
       <use xlink:href="#Helvetica-74" x="166.845703"/>
       <use xlink:href="#Helvetica-68" x="194.628906"/>
       <use xlink:href="#Helvetica-65" x="250.244141"/>
       <use xlink:href="#Helvetica-72" x="305.859375"/>
       <use xlink:href="#Helvetica-20" x="339.160156"/>
       <use xlink:href="#Helvetica-65" x="366.943359"/>
       <use xlink:href="#Helvetica-78" x="422.558594"/>
       <use xlink:href="#Helvetica-61" x="472.558594"/>
       <use xlink:href="#Helvetica-63" x="528.173828"/>
       <use xlink:href="#Helvetica-74" x="578.173828"/>
       <use xlink:href="#Helvetica-20" x="605.957031"/>
       <use xlink:href="#Helvetica-66" x="633.740234"/>
       <use xlink:href="#Helvetica-69" x="661.523438"/>
       <use xlink:href="#Helvetica-74" x="683.740234"/>
      </g>
      <!-- (large) -->
      <g style="fill: #64748b" transform="translate(232.889729 233.304328) scale(0.085 -0.085)">
       <use xlink:href="#Helvetica-28"/>
       <use xlink:href="#Helvetica-6c" x="33.300781"/>
       <use xlink:href="#Helvetica-61" x="55.517578"/>
       <use xlink:href="#Helvetica-72" x="111.132812"/>
       <use xlink:href="#Helvetica-67" x="144.433594"/>
       <use xlink:href="#Helvetica-65" x="200.048828"/>
       <use xlink:href="#Helvetica-29" x="255.664062"/>
      </g>
     </g>
    </g>
   </g>
   <g id="matplotlib.axis_2">
    <g id="ytick_1">
     <g id="line2d_9">
      <path d="M 34.378594 211.99875 
L 272.796776 211.99875 
" clip-path="url(#p48d912922e)" style="fill: none; stroke: #cbd5e1; stroke-opacity: 0.7; stroke-width: 0.5; stroke-linecap: square"/>
     </g>
     <g id="line2d_10">
      <defs>
       <path id="ma98644966c" d="M 0 0 
L -2.5 0 
" style="stroke: #64748b; stroke-width: 0.8"/>
      </defs>
      <g>
       <use xlink:href="#ma98644966c" x="34.378594" y="211.99875" style="fill: #64748b; stroke: #64748b; stroke-width: 0.8"/>
      </g>
     </g>
     <g id="text_5">
      <!-- 0 -->
      <g style="fill: #64748b" transform="translate(23.651797 215.047461) scale(0.085 -0.085)">
       <use xlink:href="#Helvetica-30"/>
      </g>
     </g>
    </g>
    <g id="ytick_2">
     <g id="line2d_11">
      <path d="M 34.378594 175.969907 
L 272.796776 175.969907 
" clip-path="url(#p48d912922e)" style="fill: none; stroke: #cbd5e1; stroke-opacity: 0.7; stroke-width: 0.5; stroke-linecap: square"/>
     </g>
     <g id="line2d_12">
      <g>
       <use xlink:href="#ma98644966c" x="34.378594" y="175.969907" style="fill: #64748b; stroke: #64748b; stroke-width: 0.8"/>
      </g>
     </g>
     <g id="text_6">
      <!-- 2 -->
      <g style="fill: #64748b" transform="translate(23.651797 179.018618) scale(0.085 -0.085)">
       <defs>
        <path id="Helvetica-32" d="M 200 0 
Q 231 578 439 1006 
Q 647 1434 1250 1784 
L 1850 2131 
Q 2253 2366 2416 2531 
Q 2672 2791 2672 3125 
Q 2672 3516 2437 3745 
Q 2203 3975 1813 3975 
Q 1234 3975 1013 3538 
Q 894 3303 881 2888 
L 309 2888 
Q 319 3472 525 3841 
Q 891 4491 1816 4491 
Q 2584 4491 2939 4075 
Q 3294 3659 3294 3150 
Q 3294 2613 2916 2231 
Q 2697 2009 2131 1694 
L 1703 1456 
Q 1397 1288 1222 1134 
Q 909 863 828 531 
L 3272 531 
L 3272 0 
L 200 0 
z
" transform="scale(0.015625)"/>
       </defs>
       <use xlink:href="#Helvetica-32"/>
      </g>
     </g>
    </g>
    <g id="ytick_3">
     <g id="line2d_13">
      <path d="M 34.378594 139.941063 
L 272.796776 139.941063 
" clip-path="url(#p48d912922e)" style="fill: none; stroke: #cbd5e1; stroke-opacity: 0.7; stroke-width: 0.5; stroke-linecap: square"/>
     </g>
     <g id="line2d_14">
      <g>
       <use xlink:href="#ma98644966c" x="34.378594" y="139.941063" style="fill: #64748b; stroke: #64748b; stroke-width: 0.8"/>
      </g>
     </g>
     <g id="text_7">
      <!-- 4 -->
      <g style="fill: #64748b" transform="translate(23.651797 142.989774) scale(0.085 -0.085)">
       <defs>
        <path id="Helvetica-34" d="M 2116 1584 
L 2116 3613 
L 681 1584 
L 2116 1584 
z
M 2125 0 
L 2125 1094 
L 163 1094 
L 163 1644 
L 2213 4488 
L 2688 4488 
L 2688 1584 
L 3347 1584 
L 3347 1094 
L 2688 1094 
L 2688 0 
L 2125 0 
z
" transform="scale(0.015625)"/>
       </defs>
       <use xlink:href="#Helvetica-34"/>
      </g>
     </g>
    </g>
    <g id="ytick_4">
     <g id="line2d_15">
      <path d="M 34.378594 103.91222 
L 272.796776 103.91222 
" clip-path="url(#p48d912922e)" style="fill: none; stroke: #cbd5e1; stroke-opacity: 0.7; stroke-width: 0.5; stroke-linecap: square"/>
     </g>
     <g id="line2d_16">
      <g>
       <use xlink:href="#ma98644966c" x="34.378594" y="103.91222" style="fill: #64748b; stroke: #64748b; stroke-width: 0.8"/>
      </g>
     </g>
     <g id="text_8">
      <!-- 6 -->
      <g style="fill: #64748b" transform="translate(23.651797 106.960931) scale(0.085 -0.085)">
       <defs>
        <path id="Helvetica-36" d="M 1872 4494 
Q 2622 4494 2917 4105 
Q 3213 3716 3213 3303 
L 2656 3303 
Q 2606 3569 2497 3719 
Q 2294 4000 1881 4000 
Q 1409 4000 1131 3564 
Q 853 3128 822 2316 
Q 1016 2600 1309 2741 
Q 1578 2866 1909 2866 
Q 2472 2866 2890 2506 
Q 3309 2147 3309 1434 
Q 3309 825 2912 354 
Q 2516 -116 1781 -116 
Q 1153 -116 697 361 
Q 241 838 241 1966 
Q 241 2800 444 3381 
Q 834 4494 1872 4494 
z
M 1831 384 
Q 2275 384 2495 682 
Q 2716 981 2716 1388 
Q 2716 1731 2519 2042 
Q 2322 2353 1803 2353 
Q 1441 2353 1167 2112 
Q 894 1872 894 1388 
Q 894 963 1142 673 
Q 1391 384 1831 384 
z
" transform="scale(0.015625)"/>
       </defs>
       <use xlink:href="#Helvetica-36"/>
      </g>
     </g>
    </g>
    <g id="ytick_5">
     <g id="line2d_17">
      <path d="M 34.378594 67.883377 
L 272.796776 67.883377 
" clip-path="url(#p48d912922e)" style="fill: none; stroke: #cbd5e1; stroke-opacity: 0.7; stroke-width: 0.5; stroke-linecap: square"/>
     </g>
     <g id="line2d_18">
      <g>
       <use xlink:href="#ma98644966c" x="34.378594" y="67.883377" style="fill: #64748b; stroke: #64748b; stroke-width: 0.8"/>
      </g>
     </g>
     <g id="text_9">
      <!-- 8 -->
      <g style="fill: #64748b" transform="translate(23.651797 70.932088) scale(0.085 -0.085)">
       <defs>
        <path id="Helvetica-38" d="M 1741 2600 
Q 2113 2600 2322 2808 
Q 2531 3016 2531 3303 
Q 2531 3553 2331 3762 
Q 2131 3972 1722 3972 
Q 1316 3972 1134 3762 
Q 953 3553 953 3272 
Q 953 2956 1187 2778 
Q 1422 2600 1741 2600 
z
M 1775 384 
Q 2166 384 2423 595 
Q 2681 806 2681 1225 
Q 2681 1659 2415 1884 
Q 2150 2109 1734 2109 
Q 1331 2109 1076 1879 
Q 822 1650 822 1244 
Q 822 894 1055 639 
Q 1288 384 1775 384 
z
M 975 2384 
Q 741 2484 609 2619 
Q 363 2869 363 3269 
Q 363 3769 725 4128 
Q 1088 4488 1753 4488 
Q 2397 4488 2762 4148 
Q 3128 3809 3128 3356 
Q 3128 2938 2916 2678 
Q 2797 2531 2547 2391 
Q 2825 2263 2984 2097 
Q 3281 1784 3281 1284 
Q 3281 694 2884 283 
Q 2488 -128 1763 -128 
Q 1109 -128 657 226 
Q 206 581 206 1256 
Q 206 1653 400 1942 
Q 594 2231 975 2384 
z
" transform="scale(0.015625)"/>
       </defs>
       <use xlink:href="#Helvetica-38"/>
      </g>
     </g>
    </g>
    <g id="ytick_6">
     <g id="line2d_19">
      <path d="M 34.378594 31.854533 
L 272.796776 31.854533 
" clip-path="url(#p48d912922e)" style="fill: none; stroke: #cbd5e1; stroke-opacity: 0.7; stroke-width: 0.5; stroke-linecap: square"/>
     </g>
     <g id="line2d_20">
      <g>
       <use xlink:href="#ma98644966c" x="34.378594" y="31.854533" style="fill: #64748b; stroke: #64748b; stroke-width: 0.8"/>
      </g>
     </g>
     <g id="text_10">
      <!-- 10 -->
      <g style="fill: #64748b" transform="translate(18.925 34.903244) scale(0.085 -0.085)">
       <defs>
        <path id="Helvetica-31" d="M 613 3169 
L 613 3600 
Q 1222 3659 1462 3798 
Q 1703 3938 1822 4456 
L 2266 4456 
L 2266 0 
L 1666 0 
L 1666 3169 
L 613 3169 
z
" transform="scale(0.015625)"/>
       </defs>
       <use xlink:href="#Helvetica-31"/>
       <use xlink:href="#Helvetica-30" x="55.615234"/>
      </g>
     </g>
    </g>
    <g id="text_11">
     <!-- $\|\beta\|_2$ -->
     <g style="fill: #1e293b" transform="translate(12.405 126.16125) rotate(-90) scale(0.105 -0.105)">
      <defs>
       <path id="DejaVuSans-2016" d="M 1344 4891 
L 1344 -1509 
L 813 -1509 
L 813 4891 
L 1344 4891 
z
M 2376 4891 
L 2376 -1509 
L 1845 -1509 
L 1845 4891 
L 2376 4891 
z
" transform="scale(0.015625)"/>
       <path id="DejaVuSans-Oblique-3b2" d="M 872 216 
L 572 -1331 
L -6 -1331 
L 928 3478 
Q 1206 4903 2538 4903 
Q 3888 4903 3659 3700 
Q 3503 2844 2894 2531 
Q 3713 2250 3553 1416 
Q 3272 -69 1759 -66 
Q 1097 -63 872 216 
z
M 1019 966 
Q 1259 422 1875 425 
Q 2775 425 2966 1406 
Q 3138 2288 1675 2219 
L 1778 2750 
Q 2909 2731 3106 3750 
Q 3241 4438 2509 4434 
Q 1691 4434 1503 3459 
L 1019 966 
z
" transform="scale(0.015625)"/>
       <path id="DejaVuSans-32" d="M 1228 531 
L 3431 531 
L 3431 0 
L 469 0 
L 469 531 
Q 828 903 1448 1529 
Q 2069 2156 2228 2338 
Q 2531 2678 2651 2914 
Q 2772 3150 2772 3378 
Q 2772 3750 2511 3984 
Q 2250 4219 1831 4219 
Q 1534 4219 1204 4116 
Q 875 4013 500 3803 
L 500 4441 
Q 881 4594 1212 4672 
Q 1544 4750 1819 4750 
Q 2544 4750 2975 4387 
Q 3406 4025 3406 3419 
Q 3406 3131 3298 2873 
Q 3191 2616 2906 2266 
Q 2828 2175 2409 1742 
Q 1991 1309 1228 531 
z
" transform="scale(0.015625)"/>
      </defs>
      <use xlink:href="#DejaVuSans-2016" transform="translate(0 0.390625)"/>
      <use xlink:href="#DejaVuSans-Oblique-3b2" transform="translate(50 0.390625)"/>
      <use xlink:href="#DejaVuSans-2016" transform="translate(113.818359 0.390625)"/>
      <use xlink:href="#DejaVuSans-32" transform="translate(164.775391 -16.015625) scale(0.7)"/>
     </g>
    </g>
   </g>
   <g id="patch_3">
    <path d="M 45.215784 211.99875 
L 78.795809 211.99875 
L 78.795809 196.651945 
L 45.215784 196.651945 
z
" clip-path="url(#p48d912922e)" style="fill: #059669"/>
   </g>
   <g id="patch_4">
    <path d="M 106.270376 211.99875 
L 139.850401 211.99875 
L 139.850401 196.651945 
L 106.270376 196.651945 
z
" clip-path="url(#p48d912922e)" style="fill: #059669"/>
   </g>
   <g id="patch_5">
    <path d="M 167.324968 211.99875 
L 200.904993 211.99875 
L 200.904993 163.467892 
L 167.324968 163.467892 
z
" clip-path="url(#p48d912922e)" style="fill: #64748b"/>
   </g>
   <g id="patch_6">
    <path d="M 228.37956 211.99875 
L 261.959585 211.99875 
L 261.959585 27.19875 
L 228.37956 27.19875 
z
" clip-path="url(#p48d912922e)" style="fill: #ea580c"/>
   </g>
   <g id="patch_7">
    <path d="M 34.378594 211.99875 
L 34.378594 17.95875 
" style="fill: none; stroke: #64748b; stroke-width: 0.9; stroke-linejoin: miter; stroke-linecap: square"/>
   </g>
   <g id="patch_8">
    <path d="M 34.378594 211.99875 
L 272.796776 211.99875 
" style="fill: none; stroke: #64748b; stroke-width: 0.9; stroke-linejoin: miter; stroke-linecap: square"/>
   </g>
   <g id="text_12">
    <!-- Norm of the solution -->
    <g style="fill: #1e293b" transform="translate(106.610028 11.95875) scale(0.105 -0.105)">
     <defs>
      <path id="Helvetica-4e" d="M 488 4591 
L 1222 4591 
L 3541 872 
L 3541 4591 
L 4131 4591 
L 4131 0 
L 3434 0 
L 1081 3716 
L 1081 0 
L 488 0 
L 488 4591 
z
M 2269 4591 
L 2269 4591 
z
" transform="scale(0.015625)"/>
     </defs>
     <use xlink:href="#Helvetica-4e"/>
     <use xlink:href="#Helvetica-6f" x="72.216797"/>
     <use xlink:href="#Helvetica-72" x="127.832031"/>
     <use xlink:href="#Helvetica-6d" x="161.132812"/>
     <use xlink:href="#Helvetica-20" x="244.433594"/>
     <use xlink:href="#Helvetica-6f" x="272.216797"/>
     <use xlink:href="#Helvetica-66" x="327.832031"/>
     <use xlink:href="#Helvetica-20" x="355.615234"/>
     <use xlink:href="#Helvetica-74" x="383.398438"/>
     <use xlink:href="#Helvetica-68" x="411.181641"/>
     <use xlink:href="#Helvetica-65" x="466.796875"/>
     <use xlink:href="#Helvetica-20" x="522.412109"/>
     <use xlink:href="#Helvetica-73" x="550.195312"/>
     <use xlink:href="#Helvetica-6f" x="600.195312"/>
     <use xlink:href="#Helvetica-6c" x="655.810547"/>
     <use xlink:href="#Helvetica-75" x="678.027344"/>
     <use xlink:href="#Helvetica-74" x="733.642578"/>
     <use xlink:href="#Helvetica-69" x="761.425781"/>
     <use xlink:href="#Helvetica-6f" x="783.642578"/>
     <use xlink:href="#Helvetica-6e" x="839.257812"/>
    </g>
   </g>
  </g>
  <g id="axes_2">
   <g id="patch_9">
    <path d="M 320.480412 211.99875 
L 558.898594 211.99875 
L 558.898594 17.95875 
L 320.480412 17.95875 
z
" style="fill: #ffffff"/>
   </g>
   <g id="matplotlib.axis_3">
    <g id="xtick_5">
     <g id="line2d_21">
      <path d="M 348.107615 211.99875 
L 348.107615 17.95875 
" clip-path="url(#p35264f592f)" style="fill: none; stroke: #cbd5e1; stroke-opacity: 0.7; stroke-width: 0.5; stroke-linecap: square"/>
     </g>
     <g id="line2d_22">
      <g>
       <use xlink:href="#mf9e884ace0" x="348.107615" y="211.99875" style="fill: #64748b; stroke: #64748b; stroke-width: 0.8"/>
      </g>
     </g>
     <g id="text_13">
      <!-- gradient descent from 0 -->
      <g style="fill: #64748b" transform="translate(303.461365 224.1825) scale(0.085 -0.085)">
       <use xlink:href="#Helvetica-67"/>
       <use xlink:href="#Helvetica-72" x="55.615234"/>
       <use xlink:href="#Helvetica-61" x="88.916016"/>
       <use xlink:href="#Helvetica-64" x="144.53125"/>
       <use xlink:href="#Helvetica-69" x="200.146484"/>
       <use xlink:href="#Helvetica-65" x="222.363281"/>
       <use xlink:href="#Helvetica-6e" x="277.978516"/>
       <use xlink:href="#Helvetica-74" x="333.59375"/>
       <use xlink:href="#Helvetica-20" x="361.376953"/>
       <use xlink:href="#Helvetica-64" x="389.160156"/>
       <use xlink:href="#Helvetica-65" x="444.775391"/>
       <use xlink:href="#Helvetica-73" x="500.390625"/>
       <use xlink:href="#Helvetica-63" x="550.390625"/>
       <use xlink:href="#Helvetica-65" x="600.390625"/>
       <use xlink:href="#Helvetica-6e" x="656.005859"/>
       <use xlink:href="#Helvetica-74" x="711.621094"/>
       <use xlink:href="#Helvetica-20" x="739.404297"/>
       <use xlink:href="#Helvetica-66" x="767.1875"/>
       <use xlink:href="#Helvetica-72" x="794.970703"/>
       <use xlink:href="#Helvetica-6f" x="828.271484"/>
       <use xlink:href="#Helvetica-6d" x="883.886719"/>
       <use xlink:href="#Helvetica-20" x="967.1875"/>
       <use xlink:href="#Helvetica-30" x="994.970703"/>
      </g>
     </g>
    </g>
    <g id="xtick_6">
     <g id="line2d_23">
      <path d="M 409.162207 211.99875 
L 409.162207 17.95875 
" clip-path="url(#p35264f592f)" style="fill: none; stroke: #cbd5e1; stroke-opacity: 0.7; stroke-width: 0.5; stroke-linecap: square"/>
     </g>
     <g id="line2d_24">
      <g>
       <use xlink:href="#mf9e884ace0" x="409.162207" y="211.99875" style="fill: #64748b; stroke: #64748b; stroke-width: 0.8"/>
      </g>
     </g>
     <g id="text_14">
      <!-- minimum-norm solution -->
      <g style="fill: #64748b" transform="translate(365.000722 224.096172) scale(0.085 -0.085)">
       <use xlink:href="#Helvetica-6d"/>
       <use xlink:href="#Helvetica-69" x="83.300781"/>
       <use xlink:href="#Helvetica-6e" x="105.517578"/>
       <use xlink:href="#Helvetica-69" x="161.132812"/>
       <use xlink:href="#Helvetica-6d" x="183.349609"/>
       <use xlink:href="#Helvetica-75" x="266.650391"/>
       <use xlink:href="#Helvetica-6d" x="322.265625"/>
       <use xlink:href="#Helvetica-2d" x="405.566406"/>
       <use xlink:href="#Helvetica-6e" x="438.867188"/>
       <use xlink:href="#Helvetica-6f" x="494.482422"/>
       <use xlink:href="#Helvetica-72" x="550.097656"/>
       <use xlink:href="#Helvetica-6d" x="583.398438"/>
       <use xlink:href="#Helvetica-20" x="666.699219"/>
       <use xlink:href="#Helvetica-73" x="694.482422"/>
       <use xlink:href="#Helvetica-6f" x="744.482422"/>
       <use xlink:href="#Helvetica-6c" x="800.097656"/>
       <use xlink:href="#Helvetica-75" x="822.314453"/>
       <use xlink:href="#Helvetica-74" x="877.929688"/>
       <use xlink:href="#Helvetica-69" x="905.712891"/>
       <use xlink:href="#Helvetica-6f" x="927.929688"/>
       <use xlink:href="#Helvetica-6e" x="983.544922"/>
      </g>
     </g>
    </g>
    <g id="xtick_7">
     <g id="line2d_25">
      <path d="M 470.216799 211.99875 
L 470.216799 17.95875 
" clip-path="url(#p35264f592f)" style="fill: none; stroke: #cbd5e1; stroke-opacity: 0.7; stroke-width: 0.5; stroke-linecap: square"/>
     </g>
     <g id="line2d_26">
      <g>
       <use xlink:href="#mf9e884ace0" x="470.216799" y="211.99875" style="fill: #64748b; stroke: #64748b; stroke-width: 0.8"/>
      </g>
     </g>
     <g id="text_15">
      <!-- another exact fit -->
      <g style="fill: #64748b" transform="translate(439.979377 224.096172) scale(0.085 -0.085)">
       <use xlink:href="#Helvetica-61"/>
       <use xlink:href="#Helvetica-6e" x="55.615234"/>
       <use xlink:href="#Helvetica-6f" x="111.230469"/>
       <use xlink:href="#Helvetica-74" x="166.845703"/>
       <use xlink:href="#Helvetica-68" x="194.628906"/>
       <use xlink:href="#Helvetica-65" x="250.244141"/>
       <use xlink:href="#Helvetica-72" x="305.859375"/>
       <use xlink:href="#Helvetica-20" x="339.160156"/>
       <use xlink:href="#Helvetica-65" x="366.943359"/>
       <use xlink:href="#Helvetica-78" x="422.558594"/>
       <use xlink:href="#Helvetica-61" x="472.558594"/>
       <use xlink:href="#Helvetica-63" x="528.173828"/>
       <use xlink:href="#Helvetica-74" x="578.173828"/>
       <use xlink:href="#Helvetica-20" x="605.957031"/>
       <use xlink:href="#Helvetica-66" x="633.740234"/>
       <use xlink:href="#Helvetica-69" x="661.523438"/>
       <use xlink:href="#Helvetica-74" x="683.740234"/>
      </g>
      <!-- (small) -->
      <g style="fill: #64748b" transform="translate(457.469455 233.259703) scale(0.085 -0.085)">
       <use xlink:href="#Helvetica-28"/>
       <use xlink:href="#Helvetica-73" x="33.300781"/>
       <use xlink:href="#Helvetica-6d" x="83.300781"/>
       <use xlink:href="#Helvetica-61" x="166.601562"/>
       <use xlink:href="#Helvetica-6c" x="222.216797"/>
       <use xlink:href="#Helvetica-6c" x="244.433594"/>
       <use xlink:href="#Helvetica-29" x="266.650391"/>
      </g>
     </g>
    </g>
    <g id="xtick_8">
     <g id="line2d_27">
      <path d="M 531.271391 211.99875 
L 531.271391 17.95875 
" clip-path="url(#p35264f592f)" style="fill: none; stroke: #cbd5e1; stroke-opacity: 0.7; stroke-width: 0.5; stroke-linecap: square"/>
     </g>
     <g id="line2d_28">
      <g>
       <use xlink:href="#mf9e884ace0" x="531.271391" y="211.99875" style="fill: #64748b; stroke: #64748b; stroke-width: 0.8"/>
      </g>
     </g>
     <g id="text_16">
      <!-- another exact fit -->
      <g style="fill: #64748b" transform="translate(501.033969 224.096172) scale(0.085 -0.085)">
       <use xlink:href="#Helvetica-61"/>
       <use xlink:href="#Helvetica-6e" x="55.615234"/>
       <use xlink:href="#Helvetica-6f" x="111.230469"/>
       <use xlink:href="#Helvetica-74" x="166.845703"/>
       <use xlink:href="#Helvetica-68" x="194.628906"/>
       <use xlink:href="#Helvetica-65" x="250.244141"/>
       <use xlink:href="#Helvetica-72" x="305.859375"/>
       <use xlink:href="#Helvetica-20" x="339.160156"/>
       <use xlink:href="#Helvetica-65" x="366.943359"/>
       <use xlink:href="#Helvetica-78" x="422.558594"/>
       <use xlink:href="#Helvetica-61" x="472.558594"/>
       <use xlink:href="#Helvetica-63" x="528.173828"/>
       <use xlink:href="#Helvetica-74" x="578.173828"/>
       <use xlink:href="#Helvetica-20" x="605.957031"/>
       <use xlink:href="#Helvetica-66" x="633.740234"/>
       <use xlink:href="#Helvetica-69" x="661.523438"/>
       <use xlink:href="#Helvetica-74" x="683.740234"/>
      </g>
      <!-- (large) -->
      <g style="fill: #64748b" transform="translate(518.991547 233.304328) scale(0.085 -0.085)">
       <use xlink:href="#Helvetica-28"/>
       <use xlink:href="#Helvetica-6c" x="33.300781"/>
       <use xlink:href="#Helvetica-61" x="55.517578"/>
       <use xlink:href="#Helvetica-72" x="111.132812"/>
       <use xlink:href="#Helvetica-67" x="144.433594"/>
       <use xlink:href="#Helvetica-65" x="200.048828"/>
       <use xlink:href="#Helvetica-29" x="255.664062"/>
      </g>
     </g>
    </g>
   </g>
   <g id="matplotlib.axis_4">
    <g id="ytick_7">
     <g id="line2d_29">
      <path d="M 320.480412 211.99875 
L 558.898594 211.99875 
" clip-path="url(#p35264f592f)" style="fill: none; stroke: #cbd5e1; stroke-opacity: 0.7; stroke-width: 0.5; stroke-linecap: square"/>
     </g>
     <g id="line2d_30">
      <g>
       <use xlink:href="#ma98644966c" x="320.480412" y="211.99875" style="fill: #64748b; stroke: #64748b; stroke-width: 0.8"/>
      </g>
     </g>
     <g id="text_17">
      <!-- 0 -->
      <g style="fill: #64748b" transform="translate(309.753615 215.047461) scale(0.085 -0.085)">
       <use xlink:href="#Helvetica-30"/>
      </g>
     </g>
    </g>
    <g id="ytick_8">
     <g id="line2d_31">
      <path d="M 320.480412 178.233722 
L 558.898594 178.233722 
" clip-path="url(#p35264f592f)" style="fill: none; stroke: #cbd5e1; stroke-opacity: 0.7; stroke-width: 0.5; stroke-linecap: square"/>
     </g>
     <g id="line2d_32">
      <g>
       <use xlink:href="#ma98644966c" x="320.480412" y="178.233722" style="fill: #64748b; stroke: #64748b; stroke-width: 0.8"/>
      </g>
     </g>
     <g id="text_18">
      <!-- 20 -->
      <g style="fill: #64748b" transform="translate(305.026818 181.282433) scale(0.085 -0.085)">
       <use xlink:href="#Helvetica-32"/>
       <use xlink:href="#Helvetica-30" x="55.615234"/>
      </g>
     </g>
    </g>
    <g id="ytick_9">
     <g id="line2d_33">
      <path d="M 320.480412 144.468693 
L 558.898594 144.468693 
" clip-path="url(#p35264f592f)" style="fill: none; stroke: #cbd5e1; stroke-opacity: 0.7; stroke-width: 0.5; stroke-linecap: square"/>
     </g>
     <g id="line2d_34">
      <g>
       <use xlink:href="#ma98644966c" x="320.480412" y="144.468693" style="fill: #64748b; stroke: #64748b; stroke-width: 0.8"/>
      </g>
     </g>
     <g id="text_19">
      <!-- 40 -->
      <g style="fill: #64748b" transform="translate(305.026818 147.517404) scale(0.085 -0.085)">
       <use xlink:href="#Helvetica-34"/>
       <use xlink:href="#Helvetica-30" x="55.615234"/>
      </g>
     </g>
    </g>
    <g id="ytick_10">
     <g id="line2d_35">
      <path d="M 320.480412 110.703665 
L 558.898594 110.703665 
" clip-path="url(#p35264f592f)" style="fill: none; stroke: #cbd5e1; stroke-opacity: 0.7; stroke-width: 0.5; stroke-linecap: square"/>
     </g>
     <g id="line2d_36">
      <g>
       <use xlink:href="#ma98644966c" x="320.480412" y="110.703665" style="fill: #64748b; stroke: #64748b; stroke-width: 0.8"/>
      </g>
     </g>
     <g id="text_20">
      <!-- 60 -->
      <g style="fill: #64748b" transform="translate(305.026818 113.752376) scale(0.085 -0.085)">
       <use xlink:href="#Helvetica-36"/>
       <use xlink:href="#Helvetica-30" x="55.615234"/>
      </g>
     </g>
    </g>
    <g id="ytick_11">
     <g id="line2d_37">
      <path d="M 320.480412 76.938636 
L 558.898594 76.938636 
" clip-path="url(#p35264f592f)" style="fill: none; stroke: #cbd5e1; stroke-opacity: 0.7; stroke-width: 0.5; stroke-linecap: square"/>
     </g>
     <g id="line2d_38">
      <g>
       <use xlink:href="#ma98644966c" x="320.480412" y="76.938636" style="fill: #64748b; stroke: #64748b; stroke-width: 0.8"/>
      </g>
     </g>
     <g id="text_21">
      <!-- 80 -->
      <g style="fill: #64748b" transform="translate(305.026818 79.987347) scale(0.085 -0.085)">
       <use xlink:href="#Helvetica-38"/>
       <use xlink:href="#Helvetica-30" x="55.615234"/>
      </g>
     </g>
    </g>
    <g id="ytick_12">
     <g id="line2d_39">
      <path d="M 320.480412 43.173608 
L 558.898594 43.173608 
" clip-path="url(#p35264f592f)" style="fill: none; stroke: #cbd5e1; stroke-opacity: 0.7; stroke-width: 0.5; stroke-linecap: square"/>
     </g>
     <g id="line2d_40">
      <g>
       <use xlink:href="#ma98644966c" x="320.480412" y="43.173608" style="fill: #64748b; stroke: #64748b; stroke-width: 0.8"/>
      </g>
     </g>
     <g id="text_22">
      <!-- 100 -->
      <g style="fill: #64748b" transform="translate(300.300021 46.222319) scale(0.085 -0.085)">
       <use xlink:href="#Helvetica-31"/>
       <use xlink:href="#Helvetica-30" x="55.615234"/>
       <use xlink:href="#Helvetica-30" x="111.230469"/>
      </g>
     </g>
    </g>
    <g id="text_23">
     <!-- test error -->
     <g style="fill: #1e293b" transform="translate(294.111428 135.982031) rotate(-90) scale(0.105 -0.105)">
      <use xlink:href="#Helvetica-74"/>
      <use xlink:href="#Helvetica-65" x="27.783203"/>
      <use xlink:href="#Helvetica-73" x="83.398438"/>
      <use xlink:href="#Helvetica-74" x="133.398438"/>
      <use xlink:href="#Helvetica-20" x="161.181641"/>
      <use xlink:href="#Helvetica-65" x="188.964844"/>
      <use xlink:href="#Helvetica-72" x="244.580078"/>
      <use xlink:href="#Helvetica-72" x="277.880859"/>
      <use xlink:href="#Helvetica-6f" x="311.181641"/>
      <use xlink:href="#Helvetica-72" x="366.796875"/>
     </g>
    </g>
   </g>
   <g id="patch_10">
    <path d="M 331.317602 211.99875 
L 364.897628 211.99875 
L 364.897628 201.500117 
L 331.317602 201.500117 
z
" clip-path="url(#p35264f592f)" style="fill: #059669"/>
   </g>
   <g id="patch_11">
    <path d="M 392.372194 211.99875 
L 425.95222 211.99875 
L 425.95222 201.500117 
L 392.372194 201.500117 
z
" clip-path="url(#p35264f592f)" style="fill: #059669"/>
   </g>
   <g id="patch_12">
    <path d="M 453.426786 211.99875 
L 487.006812 211.99875 
L 487.006812 190.429525 
L 453.426786 190.429525 
z
" clip-path="url(#p35264f592f)" style="fill: #64748b"/>
   </g>
   <g id="patch_13">
    <path d="M 514.481378 211.99875 
L 548.061404 211.99875 
L 548.061404 27.19875 
L 514.481378 27.19875 
z
" clip-path="url(#p35264f592f)" style="fill: #ea580c"/>
   </g>
   <g id="patch_14">
    <path d="M 320.480412 211.99875 
L 320.480412 17.95875 
" style="fill: none; stroke: #64748b; stroke-width: 0.9; stroke-linejoin: miter; stroke-linecap: square"/>
   </g>
   <g id="patch_15">
    <path d="M 320.480412 211.99875 
L 558.898594 211.99875 
" style="fill: none; stroke: #64748b; stroke-width: 0.9; stroke-linejoin: miter; stroke-linecap: square"/>
   </g>
   <g id="text_24">
    <!-- All four fit the training data exactly -->
    <g style="fill: #1e293b" transform="translate(360.903409 11.95875) scale(0.105 -0.105)">
     <defs>
      <path id="Helvetica-41" d="M 2844 1881 
L 2147 3909 
L 1406 1881 
L 2844 1881 
z
M 1822 4591 
L 2525 4591 
L 4191 0 
L 3509 0 
L 3044 1375 
L 1228 1375 
L 731 0 
L 94 0 
L 1822 4591 
z
" transform="scale(0.015625)"/>
      <path id="Helvetica-79" d="M 2503 3347 
L 3125 3347 
Q 3006 3025 2597 1878 
Q 2291 1016 2084 472 
Q 1597 -809 1397 -1090 
Q 1197 -1372 709 -1372 
Q 591 -1372 527 -1362 
Q 463 -1353 369 -1328 
L 369 -816 
Q 516 -856 581 -865 
Q 647 -875 697 -875 
Q 853 -875 926 -823 
Q 1000 -772 1050 -697 
Q 1066 -672 1162 -440 
Q 1259 -209 1303 -97 
L 66 3347 
L 703 3347 
L 1600 622 
L 2503 3347 
z
M 1597 3428 
L 1597 3428 
z
" transform="scale(0.015625)"/>
     </defs>
     <use xlink:href="#Helvetica-41"/>
     <use xlink:href="#Helvetica-6c" x="66.699219"/>
     <use xlink:href="#Helvetica-6c" x="88.916016"/>
     <use xlink:href="#Helvetica-20" x="111.132812"/>
     <use xlink:href="#Helvetica-66" x="138.916016"/>
     <use xlink:href="#Helvetica-6f" x="166.699219"/>
     <use xlink:href="#Helvetica-75" x="222.314453"/>
     <use xlink:href="#Helvetica-72" x="277.929688"/>
     <use xlink:href="#Helvetica-20" x="311.230469"/>
     <use xlink:href="#Helvetica-66" x="339.013672"/>
     <use xlink:href="#Helvetica-69" x="366.796875"/>
     <use xlink:href="#Helvetica-74" x="389.013672"/>
     <use xlink:href="#Helvetica-20" x="416.796875"/>
     <use xlink:href="#Helvetica-74" x="444.580078"/>
     <use xlink:href="#Helvetica-68" x="472.363281"/>
     <use xlink:href="#Helvetica-65" x="527.978516"/>
     <use xlink:href="#Helvetica-20" x="583.59375"/>
     <use xlink:href="#Helvetica-74" x="611.376953"/>
     <use xlink:href="#Helvetica-72" x="639.160156"/>
     <use xlink:href="#Helvetica-61" x="672.460938"/>
     <use xlink:href="#Helvetica-69" x="728.076172"/>
     <use xlink:href="#Helvetica-6e" x="750.292969"/>
     <use xlink:href="#Helvetica-69" x="805.908203"/>
     <use xlink:href="#Helvetica-6e" x="828.125"/>
     <use xlink:href="#Helvetica-67" x="883.740234"/>
     <use xlink:href="#Helvetica-20" x="939.355469"/>
     <use xlink:href="#Helvetica-64" x="967.138672"/>
     <use xlink:href="#Helvetica-61" x="1022.753906"/>
     <use xlink:href="#Helvetica-74" x="1078.369141"/>
     <use xlink:href="#Helvetica-61" x="1106.152344"/>
     <use xlink:href="#Helvetica-20" x="1161.767578"/>
     <use xlink:href="#Helvetica-65" x="1189.550781"/>
     <use xlink:href="#Helvetica-78" x="1245.166016"/>
     <use xlink:href="#Helvetica-61" x="1295.166016"/>
     <use xlink:href="#Helvetica-63" x="1350.78125"/>
     <use xlink:href="#Helvetica-74" x="1400.78125"/>
     <use xlink:href="#Helvetica-6c" x="1428.564453"/>
     <use xlink:href="#Helvetica-79" x="1450.78125"/>
    </g>
   </g>
  </g>
 </g>
 <defs>
  <clipPath id="p48d912922e">
   <rect x="34.378594" y="17.95875" width="238.418182" height="194.04"/>
  </clipPath>
  <clipPath id="p35264f592f">
   <rect x="320.480412" y="17.95875" width="238.418182" height="194.04"/>
  </clipPath>
 </defs>
</svg>
