<?xml version="1.0" encoding="utf-8" standalone="no"?>
<!DOCTYPE svg PUBLIC "-//W3C//DTD SVG 1.1//EN"
  "http://www.w3.org/Graphics/SVG/1.1/DTD/svg11.dtd">
<svg xmlns:xlink="http://www.w3.org/1999/xlink" width="480.396797pt" height="206.736844pt" viewBox="0 0 480.396797 206.736844" xmlns="http://www.w3.org/2000/svg" version="1.1">
 <metadata>
  <rdf:RDF xmlns:dc="http://purl.org/dc/elements/1.1/" xmlns:cc="http://creativecommons.org/ns#" xmlns:rdf="http://www.w3.org/1999/02/22-rdf-syntax-ns#">
   <cc:Work>
    <dc:type rdf:resource="http://purl.org/dc/dcmitype/StillImage"/>
    <dc:date>2026-08-10T18:00:50.562741</dc:date>
    <dc:format>image/svg+xml</dc:format>
    <dc:creator>
     <cc:Agent>
      <dc:title>Matplotlib v3.7.1, https://matplotlib.org/</dc:title>
     </cc:Agent>
    </dc:creator>
   </cc:Work>
  </rdf:RDF>
 </metadata>
 <defs>
  <style type="text/css">*{stroke-linejoin: round; stroke-linecap: butt}</style>
 </defs>
 <g id="figure_1">
  <g id="patch_1">
   <path d="M 0 206.736844 
L 480.396797 206.736844 
L 480.396797 0 
L 0 0 
z
" style="fill: #ffffff"/>
  </g>
  <g id="axes_1">
   <g id="patch_2">
    <path d="M 40.836797 174.827 
L 238.673161 174.827 
L 238.673161 19.595 
L 40.836797 19.595 
z
" style="fill: #ffffff"/>
   </g>
   <g id="matplotlib.axis_1">
    <g id="xtick_1">
     <g id="line2d_1">
      <path d="M 49.829359 174.827 
L 49.829359 19.595 
" clip-path="url(#p322f923686)" style="fill: none; stroke: #cbd5e1; stroke-opacity: 0.7; stroke-width: 0.5; stroke-linecap: square"/>
     </g>
     <g id="line2d_2">
      <defs>
       <path id="m9e2b99f021" d="M 0 0 
L 0 2.5 
" style="stroke: #64748b; stroke-width: 0.8"/>
      </defs>
      <g>
       <use xlink:href="#m9e2b99f021" x="49.829359" y="174.827" style="fill: #64748b; stroke: #64748b; stroke-width: 0.8"/>
      </g>
     </g>
     <g id="text_1">
      <!-- 0 -->
      <g style="fill: #64748b" transform="translate(47.46596 186.924422) scale(0.085 -0.085)">
       <defs>
        <path id="Helvetica-30" d="M 1731 4475 
Q 2600 4475 2988 3759 
Q 3288 3206 3288 2244 
Q 3288 1331 3016 734 
Q 2622 -122 1728 -122 
Q 922 -122 528 578 
Q 200 1163 200 2147 
Q 200 2909 397 3456 
Q 766 4475 1731 4475 
z
M 1725 391 
Q 2163 391 2422 778 
Q 2681 1166 2681 2222 
Q 2681 2984 2493 3476 
Q 2306 3969 1766 3969 
Q 1269 3969 1039 3501 
Q 809 3034 809 2125 
Q 809 1441 956 1025 
Q 1181 391 1725 391 
z
" transform="scale(0.015625)"/>
       </defs>
       <use xlink:href="#Helvetica-30"/>
      </g>
     </g>
    </g>
    <g id="xtick_2">
     <g id="line2d_3">
      <path d="M 95.018113 174.827 
L 95.018113 19.595 
" clip-path="url(#p322f923686)" style="fill: none; stroke: #cbd5e1; stroke-opacity: 0.7; stroke-width: 0.5; stroke-linecap: square"/>
     </g>
     <g id="line2d_4">
      <g>
       <use xlink:href="#m9e2b99f021" x="95.018113" y="174.827" style="fill: #64748b; stroke: #64748b; stroke-width: 0.8"/>
      </g>
     </g>
     <g id="text_2">
      <!-- 50 -->
      <g style="fill: #64748b" transform="translate(90.291316 186.924422) scale(0.085 -0.085)">
       <defs>
        <path id="Helvetica-35" d="M 791 1141 
Q 847 659 1238 475 
Q 1438 381 1700 381 
Q 2200 381 2440 700 
Q 2681 1019 2681 1406 
Q 2681 1875 2395 2131 
Q 2109 2388 1709 2388 
Q 1419 2388 1211 2275 
Q 1003 2163 856 1963 
L 369 1991 
L 709 4400 
L 3034 4400 
L 3034 3856 
L 1131 3856 
L 941 2613 
Q 1097 2731 1238 2791 
Q 1488 2894 1816 2894 
Q 2431 2894 2859 2497 
Q 3288 2100 3288 1491 
Q 3288 856 2895 371 
Q 2503 -113 1644 -113 
Q 1097 -113 676 195 
Q 256 503 206 1141 
L 791 1141 
z
" transform="scale(0.015625)"/>
       </defs>
       <use xlink:href="#Helvetica-35"/>
       <use xlink:href="#Helvetica-30" x="55.615234"/>
      </g>
     </g>
    </g>
    <g id="xtick_3">
     <g id="line2d_5">
      <path d="M 140.206866 174.827 
L 140.206866 19.595 
" clip-path="url(#p322f923686)" style="fill: none; stroke: #cbd5e1; stroke-opacity: 0.7; stroke-width: 0.5; stroke-linecap: square"/>
     </g>
     <g id="line2d_6">
      <g>
       <use xlink:href="#m9e2b99f021" x="140.206866" y="174.827" style="fill: #64748b; stroke: #64748b; stroke-width: 0.8"/>
      </g>
     </g>
     <g id="text_3">
      <!-- 100 -->
      <g style="fill: #64748b" transform="translate(133.116671 186.924422) scale(0.085 -0.085)">
       <defs>
        <path id="Helvetica-31" d="M 613 3169 
L 613 3600 
Q 1222 3659 1462 3798 
Q 1703 3938 1822 4456 
L 2266 4456 
L 2266 0 
L 1666 0 
L 1666 3169 
L 613 3169 
z
" transform="scale(0.015625)"/>
       </defs>
       <use xlink:href="#Helvetica-31"/>
       <use xlink:href="#Helvetica-30" x="55.615234"/>
       <use xlink:href="#Helvetica-30" x="111.230469"/>
      </g>
     </g>
    </g>
    <g id="xtick_4">
     <g id="line2d_7">
      <path d="M 185.39562 174.827 
L 185.39562 19.595 
" clip-path="url(#p322f923686)" style="fill: none; stroke: #cbd5e1; stroke-opacity: 0.7; stroke-width: 0.5; stroke-linecap: square"/>
     </g>
     <g id="line2d_8">
      <g>
       <use xlink:href="#m9e2b99f021" x="185.39562" y="174.827" style="fill: #64748b; stroke: #64748b; stroke-width: 0.8"/>
      </g>
     </g>
     <g id="text_4">
      <!-- 150 -->
      <g style="fill: #64748b" transform="translate(178.305425 186.924422) scale(0.085 -0.085)">
       <use xlink:href="#Helvetica-31"/>
       <use xlink:href="#Helvetica-35" x="55.615234"/>
       <use xlink:href="#Helvetica-30" x="111.230469"/>
      </g>
     </g>
    </g>
    <g id="xtick_5">
     <g id="line2d_9">
      <path d="M 230.584374 174.827 
L 230.584374 19.595 
" clip-path="url(#p322f923686)" style="fill: none; stroke: #cbd5e1; stroke-opacity: 0.7; stroke-width: 0.5; stroke-linecap: square"/>
     </g>
     <g id="line2d_10">
      <g>
       <use xlink:href="#m9e2b99f021" x="230.584374" y="174.827" style="fill: #64748b; stroke: #64748b; stroke-width: 0.8"/>
      </g>
     </g>
     <g id="text_5">
      <!-- 200 -->
      <g style="fill: #64748b" transform="translate(223.494178 186.924422) scale(0.085 -0.085)">
       <defs>
        <path id="Helvetica-32" d="M 200 0 
Q 231 578 439 1006 
Q 647 1434 1250 1784 
L 1850 2131 
Q 2253 2366 2416 2531 
Q 2672 2791 2672 3125 
Q 2672 3516 2437 3745 
Q 2203 3975 1813 3975 
Q 1234 3975 1013 3538 
Q 894 3303 881 2888 
L 309 2888 
Q 319 3472 525 3841 
Q 891 4491 1816 4491 
Q 2584 4491 2939 4075 
Q 3294 3659 3294 3150 
Q 3294 2613 2916 2231 
Q 2697 2009 2131 1694 
L 1703 1456 
Q 1397 1288 1222 1134 
Q 909 863 828 531 
L 3272 531 
L 3272 0 
L 200 0 
z
" transform="scale(0.015625)"/>
       </defs>
       <use xlink:href="#Helvetica-32"/>
       <use xlink:href="#Helvetica-30" x="55.615234"/>
       <use xlink:href="#Helvetica-30" x="111.230469"/>
      </g>
     </g>
    </g>
    <g id="text_6">
     <!-- iteration -->
     <g style="fill: #1e293b" transform="translate(121.078924 200.22825) scale(0.105 -0.105)">
      <defs>
       <path id="Helvetica-69" d="M 413 3331 
L 984 3331 
L 984 0 
L 413 0 
L 413 3331 
z
M 413 4591 
L 984 4591 
L 984 3953 
L 413 3953 
L 413 4591 
z
" transform="scale(0.015625)"/>
       <path id="Helvetica-74" d="M 525 4281 
L 1094 4281 
L 1094 3347 
L 1628 3347 
L 1628 2888 
L 1094 2888 
L 1094 703 
Q 1094 528 1213 469 
Q 1278 434 1431 434 
Q 1472 434 1519 436 
Q 1566 438 1628 444 
L 1628 0 
Q 1531 -28 1426 -40 
Q 1322 -53 1200 -53 
Q 806 -53 665 148 
Q 525 350 525 672 
L 525 2888 
L 72 2888 
L 72 3347 
L 525 3347 
L 525 4281 
z
" transform="scale(0.015625)"/>
       <path id="Helvetica-65" d="M 1806 3422 
Q 2163 3422 2497 3255 
Q 2831 3088 3006 2822 
Q 3175 2569 3231 2231 
Q 3281 2000 3281 1494 
L 828 1494 
Q 844 984 1069 676 
Q 1294 369 1766 369 
Q 2206 369 2469 659 
Q 2619 828 2681 1050 
L 3234 1050 
Q 3213 866 3089 639 
Q 2966 413 2813 269 
Q 2556 19 2178 -69 
Q 1975 -119 1719 -119 
Q 1094 -119 659 336 
Q 225 791 225 1609 
Q 225 2416 662 2919 
Q 1100 3422 1806 3422 
z
M 2703 1941 
Q 2669 2306 2544 2525 
Q 2313 2931 1772 2931 
Q 1384 2931 1121 2651 
Q 859 2372 844 1941 
L 2703 1941 
z
M 1753 3428 
L 1753 3428 
z
" transform="scale(0.015625)"/>
       <path id="Helvetica-72" d="M 428 3347 
L 963 3347 
L 963 2769 
Q 1028 2938 1284 3180 
Q 1541 3422 1875 3422 
Q 1891 3422 1928 3419 
Q 1966 3416 2056 3406 
L 2056 2813 
Q 2006 2822 1964 2825 
Q 1922 2828 1872 2828 
Q 1447 2828 1219 2554 
Q 991 2281 991 1925 
L 991 0 
L 428 0 
L 428 3347 
z
" transform="scale(0.015625)"/>
       <path id="Helvetica-61" d="M 844 891 
Q 844 647 1022 506 
Q 1200 366 1444 366 
Q 1741 366 2019 503 
Q 2488 731 2488 1250 
L 2488 1703 
Q 2384 1638 2221 1594 
Q 2059 1550 1903 1531 
L 1563 1488 
Q 1256 1447 1103 1359 
Q 844 1213 844 891 
z
M 2206 2028 
Q 2400 2053 2466 2191 
Q 2503 2266 2503 2406 
Q 2503 2694 2298 2823 
Q 2094 2953 1713 2953 
Q 1272 2953 1088 2716 
Q 984 2584 953 2325 
L 428 2325 
Q 444 2944 830 3186 
Q 1216 3428 1725 3428 
Q 2316 3428 2684 3203 
Q 3050 2978 3050 2503 
L 3050 575 
Q 3050 488 3086 434 
Q 3122 381 3238 381 
Q 3275 381 3322 386 
Q 3369 391 3422 400 
L 3422 -16 
Q 3291 -53 3222 -62 
Q 3153 -72 3034 -72 
Q 2744 -72 2613 134 
Q 2544 244 2516 444 
Q 2344 219 2022 53 
Q 1700 -113 1313 -113 
Q 847 -113 551 170 
Q 256 453 256 878 
Q 256 1344 547 1600 
Q 838 1856 1309 1916 
L 2206 2028 
z
M 1741 3428 
L 1741 3428 
z
" transform="scale(0.015625)"/>
       <path id="Helvetica-6f" d="M 1741 363 
Q 2300 363 2508 786 
Q 2716 1209 2716 1728 
Q 2716 2197 2566 2491 
Q 2328 2953 1747 2953 
Q 1231 2953 997 2559 
Q 763 2166 763 1609 
Q 763 1075 997 719 
Q 1231 363 1741 363 
z
M 1763 3444 
Q 2409 3444 2856 3012 
Q 3303 2581 3303 1744 
Q 3303 934 2909 406 
Q 2516 -122 1688 -122 
Q 997 -122 590 345 
Q 184 813 184 1600 
Q 184 2444 612 2944 
Q 1041 3444 1763 3444 
z
M 1744 3428 
L 1744 3428 
z
" transform="scale(0.015625)"/>
       <path id="Helvetica-6e" d="M 413 3347 
L 947 3347 
L 947 2872 
Q 1184 3166 1450 3294 
Q 1716 3422 2041 3422 
Q 2753 3422 3003 2925 
Q 3141 2653 3141 2147 
L 3141 0 
L 2569 0 
L 2569 2109 
Q 2569 2416 2478 2603 
Q 2328 2916 1934 2916 
Q 1734 2916 1606 2875 
Q 1375 2806 1200 2600 
Q 1059 2434 1017 2257 
Q 975 2081 975 1753 
L 975 0 
L 413 0 
L 413 3347 
z
M 1734 3428 
L 1734 3428 
z
" transform="scale(0.015625)"/>
      </defs>
      <use xlink:href="#Helvetica-69"/>
      <use xlink:href="#Helvetica-74" x="22.216797"/>
      <use xlink:href="#Helvetica-65" x="50"/>
      <use xlink:href="#Helvetica-72" x="105.615234"/>
      <use xlink:href="#Helvetica-61" x="138.916016"/>
      <use xlink:href="#Helvetica-74" x="194.53125"/>
      <use xlink:href="#Helvetica-69" x="222.314453"/>
      <use xlink:href="#Helvetica-6f" x="244.53125"/>
      <use xlink:href="#Helvetica-6e" x="300.146484"/>
     </g>
    </g>
   </g>
   <g id="matplotlib.axis_2">
    <g id="ytick_1">
     <g id="line2d_11">
      <path d="M 40.836797 167.779705 
L 238.673161 167.779705 
" clip-path="url(#p322f923686)" style="fill: none; stroke: #cbd5e1; stroke-opacity: 0.7; stroke-width: 0.5; stroke-linecap: square"/>
     </g>
     <g id="line2d_12">
      <defs>
       <path id="mc41db11927" d="M 0 0 
L -2.5 0 
" style="stroke: #64748b; stroke-width: 0.8"/>
      </defs>
      <g>
       <use xlink:href="#mc41db11927" x="40.836797" y="167.779705" style="fill: #64748b; stroke: #64748b; stroke-width: 0.8"/>
      </g>
     </g>
     <g id="text_7">
      <!-- 0.00 -->
      <g style="fill: #64748b" transform="translate(18.295 170.828416) scale(0.085 -0.085)">
       <defs>
        <path id="Helvetica-2e" d="M 547 681 
L 1200 681 
L 1200 0 
L 547 0 
L 547 681 
z
" transform="scale(0.015625)"/>
       </defs>
       <use xlink:href="#Helvetica-30"/>
       <use xlink:href="#Helvetica-2e" x="55.615234"/>
       <use xlink:href="#Helvetica-30" x="83.398438"/>
       <use xlink:href="#Helvetica-30" x="139.013672"/>
      </g>
     </g>
    </g>
    <g id="ytick_2">
     <g id="line2d_13">
      <path d="M 40.836797 139.553964 
L 238.673161 139.553964 
" clip-path="url(#p322f923686)" style="fill: none; stroke: #cbd5e1; stroke-opacity: 0.7; stroke-width: 0.5; stroke-linecap: square"/>
     </g>
     <g id="line2d_14">
      <g>
       <use xlink:href="#mc41db11927" x="40.836797" y="139.553964" style="fill: #64748b; stroke: #64748b; stroke-width: 0.8"/>
      </g>
     </g>
     <g id="text_8">
      <!-- 0.02 -->
      <g style="fill: #64748b" transform="translate(18.295 142.602675) scale(0.085 -0.085)">
       <use xlink:href="#Helvetica-30"/>
       <use xlink:href="#Helvetica-2e" x="55.615234"/>
       <use xlink:href="#Helvetica-30" x="83.398438"/>
       <use xlink:href="#Helvetica-32" x="139.013672"/>
      </g>
     </g>
    </g>
    <g id="ytick_3">
     <g id="line2d_15">
      <path d="M 40.836797 111.328223 
L 238.673161 111.328223 
" clip-path="url(#p322f923686)" style="fill: none; stroke: #cbd5e1; stroke-opacity: 0.7; stroke-width: 0.5; stroke-linecap: square"/>
     </g>
     <g id="line2d_16">
      <g>
       <use xlink:href="#mc41db11927" x="40.836797" y="111.328223" style="fill: #64748b; stroke: #64748b; stroke-width: 0.8"/>
      </g>
     </g>
     <g id="text_9">
      <!-- 0.04 -->
      <g style="fill: #64748b" transform="translate(18.295 114.376934) scale(0.085 -0.085)">
       <defs>
        <path id="Helvetica-34" d="M 2116 1584 
L 2116 3613 
L 681 1584 
L 2116 1584 
z
M 2125 0 
L 2125 1094 
L 163 1094 
L 163 1644 
L 2213 4488 
L 2688 4488 
L 2688 1584 
L 3347 1584 
L 3347 1094 
L 2688 1094 
L 2688 0 
L 2125 0 
z
" transform="scale(0.015625)"/>
       </defs>
       <use xlink:href="#Helvetica-30"/>
       <use xlink:href="#Helvetica-2e" x="55.615234"/>
       <use xlink:href="#Helvetica-30" x="83.398438"/>
       <use xlink:href="#Helvetica-34" x="139.013672"/>
      </g>
     </g>
    </g>
    <g id="ytick_4">
     <g id="line2d_17">
      <path d="M 40.836797 83.102482 
L 238.673161 83.102482 
" clip-path="url(#p322f923686)" style="fill: none; stroke: #cbd5e1; stroke-opacity: 0.7; stroke-width: 0.5; stroke-linecap: square"/>
     </g>
     <g id="line2d_18">
      <g>
       <use xlink:href="#mc41db11927" x="40.836797" y="83.102482" style="fill: #64748b; stroke: #64748b; stroke-width: 0.8"/>
      </g>
     </g>
     <g id="text_10">
      <!-- 0.06 -->
      <g style="fill: #64748b" transform="translate(18.295 86.151193) scale(0.085 -0.085)">
       <defs>
        <path id="Helvetica-36" d="M 1872 4494 
Q 2622 4494 2917 4105 
Q 3213 3716 3213 3303 
L 2656 3303 
Q 2606 3569 2497 3719 
Q 2294 4000 1881 4000 
Q 1409 4000 1131 3564 
Q 853 3128 822 2316 
Q 1016 2600 1309 2741 
Q 1578 2866 1909 2866 
Q 2472 2866 2890 2506 
Q 3309 2147 3309 1434 
Q 3309 825 2912 354 
Q 2516 -116 1781 -116 
Q 1153 -116 697 361 
Q 241 838 241 1966 
Q 241 2800 444 3381 
Q 834 4494 1872 4494 
z
M 1831 384 
Q 2275 384 2495 682 
Q 2716 981 2716 1388 
Q 2716 1731 2519 2042 
Q 2322 2353 1803 2353 
Q 1441 2353 1167 2112 
Q 894 1872 894 1388 
Q 894 963 1142 673 
Q 1391 384 1831 384 
z
" transform="scale(0.015625)"/>
       </defs>
       <use xlink:href="#Helvetica-30"/>
       <use xlink:href="#Helvetica-2e" x="55.615234"/>
       <use xlink:href="#Helvetica-30" x="83.398438"/>
       <use xlink:href="#Helvetica-36" x="139.013672"/>
      </g>
     </g>
    </g>
    <g id="ytick_5">
     <g id="line2d_19">
      <path d="M 40.836797 54.876741 
L 238.673161 54.876741 
" clip-path="url(#p322f923686)" style="fill: none; stroke: #cbd5e1; stroke-opacity: 0.7; stroke-width: 0.5; stroke-linecap: square"/>
     </g>
     <g id="line2d_20">
      <g>
       <use xlink:href="#mc41db11927" x="40.836797" y="54.876741" style="fill: #64748b; stroke: #64748b; stroke-width: 0.8"/>
      </g>
     </g>
     <g id="text_11">
      <!-- 0.08 -->
      <g style="fill: #64748b" transform="translate(18.295 57.925452) scale(0.085 -0.085)">
       <defs>
        <path id="Helvetica-38" d="M 1741 2600 
Q 2113 2600 2322 2808 
Q 2531 3016 2531 3303 
Q 2531 3553 2331 3762 
Q 2131 3972 1722 3972 
Q 1316 3972 1134 3762 
Q 953 3553 953 3272 
Q 953 2956 1187 2778 
Q 1422 2600 1741 2600 
z
M 1775 384 
Q 2166 384 2423 595 
Q 2681 806 2681 1225 
Q 2681 1659 2415 1884 
Q 2150 2109 1734 2109 
Q 1331 2109 1076 1879 
Q 822 1650 822 1244 
Q 822 894 1055 639 
Q 1288 384 1775 384 
z
M 975 2384 
Q 741 2484 609 2619 
Q 363 2869 363 3269 
Q 363 3769 725 4128 
Q 1088 4488 1753 4488 
Q 2397 4488 2762 4148 
Q 3128 3809 3128 3356 
Q 3128 2938 2916 2678 
Q 2797 2531 2547 2391 
Q 2825 2263 2984 2097 
Q 3281 1784 3281 1284 
Q 3281 694 2884 283 
Q 2488 -128 1763 -128 
Q 1109 -128 657 226 
Q 206 581 206 1256 
Q 206 1653 400 1942 
Q 594 2231 975 2384 
z
" transform="scale(0.015625)"/>
       </defs>
       <use xlink:href="#Helvetica-30"/>
       <use xlink:href="#Helvetica-2e" x="55.615234"/>
       <use xlink:href="#Helvetica-30" x="83.398438"/>
       <use xlink:href="#Helvetica-38" x="139.013672"/>
      </g>
     </g>
    </g>
    <g id="ytick_6">
     <g id="line2d_21">
      <path d="M 40.836797 26.651 
L 238.673161 26.651 
" clip-path="url(#p322f923686)" style="fill: none; stroke: #cbd5e1; stroke-opacity: 0.7; stroke-width: 0.5; stroke-linecap: square"/>
     </g>
     <g id="line2d_22">
      <g>
       <use xlink:href="#mc41db11927" x="40.836797" y="26.651" style="fill: #64748b; stroke: #64748b; stroke-width: 0.8"/>
      </g>
     </g>
     <g id="text_12">
      <!-- 0.10 -->
      <g style="fill: #64748b" transform="translate(18.295 29.699711) scale(0.085 -0.085)">
       <use xlink:href="#Helvetica-30"/>
       <use xlink:href="#Helvetica-2e" x="55.615234"/>
       <use xlink:href="#Helvetica-31" x="83.398438"/>
       <use xlink:href="#Helvetica-30" x="139.013672"/>
      </g>
     </g>
    </g>
    <g id="text_13">
     <!-- learning rate $\alpha_t$ -->
     <g style="fill: #1e293b" transform="translate(11.88 132.911) rotate(-90) scale(0.105 -0.105)">
      <defs>
       <path id="Helvetica-6c" d="M 428 4591 
L 991 4591 
L 991 0 
L 428 0 
L 428 4591 
z
" transform="scale(0.015625)"/>
       <path id="Helvetica-67" d="M 1594 3406 
Q 1988 3406 2281 3213 
Q 2441 3103 2606 2894 
L 2606 3316 
L 3125 3316 
L 3125 272 
Q 3125 -366 2938 -734 
Q 2588 -1416 1616 -1416 
Q 1075 -1416 706 -1173 
Q 338 -931 294 -416 
L 866 -416 
Q 906 -641 1028 -763 
Q 1219 -950 1628 -950 
Q 2275 -950 2475 -494 
Q 2594 -225 2584 466 
Q 2416 209 2178 84 
Q 1941 -41 1550 -41 
Q 1006 -41 598 345 
Q 191 731 191 1622 
Q 191 2463 602 2934 
Q 1013 3406 1594 3406 
z
M 2606 1688 
Q 2606 2309 2350 2609 
Q 2094 2909 1697 2909 
Q 1103 2909 884 2353 
Q 769 2056 769 1575 
Q 769 1009 998 714 
Q 1228 419 1616 419 
Q 2222 419 2469 966 
Q 2606 1275 2606 1688 
z
M 1659 3428 
L 1659 3428 
z
" transform="scale(0.015625)"/>
       <path id="Helvetica-20" transform="scale(0.015625)"/>
       <path id="DejaVuSans-Oblique-3b1" d="M 2619 1628 
L 2622 2350 
Q 2625 3088 2069 3091 
Q 1653 3094 1394 2747 
Q 1069 2319 959 1747 
Q 825 1059 994 731 
Q 1169 397 1547 397 
Q 1966 397 2319 1063 
L 2619 1628 
z
M 2166 3578 
Q 3141 3594 3128 2584 
Q 3128 2584 3616 3500 
L 4128 3500 
L 3119 1603 
L 3109 919 
Q 3109 766 3194 638 
Q 3291 488 3391 488 
L 3669 488 
L 3575 0 
L 3228 0 
Q 2934 0 2722 263 
Q 2622 394 2619 669 
Q 2416 334 2066 50 
Q 1900 -81 1453 -78 
Q 722 -72 456 397 
Q 184 884 353 1747 
Q 534 2675 1009 3097 
Q 1544 3569 2166 3578 
z
" transform="scale(0.015625)"/>
       <path id="DejaVuSans-Oblique-74" d="M 2706 3500 
L 2619 3053 
L 1472 3053 
L 1100 1153 
Q 1081 1047 1072 975 
Q 1063 903 1063 863 
Q 1063 663 1183 572 
Q 1303 481 1569 481 
L 2150 481 
L 2053 0 
L 1503 0 
Q 991 0 739 200 
Q 488 400 488 806 
Q 488 878 497 964 
Q 506 1050 525 1153 
L 897 3053 
L 409 3053 
L 500 3500 
L 978 3500 
L 1172 4494 
L 1747 4494 
L 1556 3500 
L 2706 3500 
z
" transform="scale(0.015625)"/>
      </defs>
      <use xlink:href="#Helvetica-6c" transform="translate(0 0.265625)"/>
      <use xlink:href="#Helvetica-65" transform="translate(22.216797 0.265625)"/>
      <use xlink:href="#Helvetica-61" transform="translate(77.832031 0.265625)"/>
      <use xlink:href="#Helvetica-72" transform="translate(133.447266 0.265625)"/>
      <use xlink:href="#Helvetica-6e" transform="translate(166.748047 0.265625)"/>
      <use xlink:href="#Helvetica-69" transform="translate(222.363281 0.265625)"/>
      <use xlink:href="#Helvetica-6e" transform="translate(244.580078 0.265625)"/>
      <use xlink:href="#Helvetica-67" transform="translate(300.195312 0.265625)"/>
      <use xlink:href="#Helvetica-20" transform="translate(355.810547 0.265625)"/>
      <use xlink:href="#Helvetica-72" transform="translate(383.59375 0.265625)"/>
      <use xlink:href="#Helvetica-61" transform="translate(416.894531 0.265625)"/>
      <use xlink:href="#Helvetica-74" transform="translate(472.509766 0.265625)"/>
      <use xlink:href="#Helvetica-65" transform="translate(500.292969 0.265625)"/>
      <use xlink:href="#Helvetica-20" transform="translate(555.908203 0.265625)"/>
      <use xlink:href="#DejaVuSans-Oblique-3b1" transform="translate(583.691406 0.265625)"/>
      <use xlink:href="#DejaVuSans-Oblique-74" transform="translate(649.609375 -16.140625) scale(0.7)"/>
     </g>
    </g>
   </g>
   <g id="line2d_23">
    <path d="M 49.829359 26.651 
L 229.680599 26.651 
L 229.680599 26.651 
" clip-path="url(#p322f923686)" style="fill: none; stroke: #64748b; stroke-width: 2; stroke-linecap: square"/>
   </g>
   <g id="line2d_24">
    <path d="M 49.829359 26.651 
L 103.152088 26.651 
L 104.055863 97.215353 
L 157.378593 97.215353 
L 158.282368 132.497529 
L 211.605097 132.497529 
L 212.508872 150.138617 
L 229.680599 150.138617 
L 229.680599 150.138617 
" clip-path="url(#p322f923686)" style="fill: none; stroke: #2563eb; stroke-width: 2; stroke-linecap: square"/>
   </g>
   <g id="line2d_25">
    <path d="M 49.829359 26.651 
L 53.444459 26.790243 
L 57.059559 27.207421 
L 60.67466 27.900889 
L 64.28976 28.867909 
L 67.90486 30.104665 
L 71.519961 31.606277 
L 75.135061 33.366817 
L 78.750161 35.379339 
L 82.365262 37.635899 
L 85.980362 40.127592 
L 89.595462 42.844584 
L 94.114337 46.541235 
L 98.633213 50.550309 
L 103.152088 54.847088 
L 108.574739 60.34558 
L 113.997389 66.17133 
L 120.323815 73.312531 
L 127.554015 81.822216 
L 137.495541 93.891316 
L 154.667267 114.763994 
L 161.897468 123.191823 
L 168.223894 130.234517 
L 173.646544 135.956792 
L 179.069194 141.335196 
L 183.58807 145.519976 
L 188.106945 149.406942 
L 192.625821 152.97213 
L 196.240921 155.577758 
L 199.856021 157.953057 
L 203.471121 160.088651 
L 207.086222 161.976114 
L 210.701322 163.607995 
L 214.316422 164.977855 
L 217.931523 166.080287 
L 221.546623 166.910941 
L 225.161723 167.466538 
L 228.776823 167.744886 
L 229.680599 167.771 
L 229.680599 167.771 
" clip-path="url(#p322f923686)" style="fill: none; stroke: #ea580c; stroke-width: 2; stroke-linecap: square"/>
   </g>
   <g id="patch_3">
    <path d="M 40.836797 174.827 
L 40.836797 19.595 
" style="fill: none; stroke: #64748b; stroke-width: 0.9; stroke-linejoin: miter; stroke-linecap: square"/>
   </g>
   <g id="patch_4">
    <path d="M 40.836797 174.827 
L 238.673161 174.827 
" style="fill: none; stroke: #64748b; stroke-width: 0.9; stroke-linejoin: miter; stroke-linecap: square"/>
   </g>
   <g id="text_14">
    <!-- three schedules -->
    <g style="fill: #1e293b" transform="translate(104.457322 11.595) scale(0.1 -0.1)">
     <defs>
      <path id="Helvetica-68" d="M 413 4606 
L 975 4606 
L 975 2894 
Q 1175 3147 1334 3250 
Q 1606 3428 2013 3428 
Q 2741 3428 3000 2919 
Q 3141 2641 3141 2147 
L 3141 0 
L 2563 0 
L 2563 2109 
Q 2563 2478 2469 2650 
Q 2316 2925 1894 2925 
Q 1544 2925 1259 2684 
Q 975 2444 975 1775 
L 975 0 
L 413 0 
L 413 4606 
z
" transform="scale(0.015625)"/>
      <path id="Helvetica-73" d="M 747 1050 
Q 772 769 888 619 
Q 1100 347 1625 347 
Q 1938 347 2175 483 
Q 2413 619 2413 903 
Q 2413 1119 2222 1231 
Q 2100 1300 1741 1391 
L 1294 1503 
Q 866 1609 663 1741 
Q 300 1969 300 2372 
Q 300 2847 642 3140 
Q 984 3434 1563 3434 
Q 2319 3434 2653 2991 
Q 2863 2709 2856 2384 
L 2325 2384 
Q 2309 2575 2191 2731 
Q 1997 2953 1519 2953 
Q 1200 2953 1036 2831 
Q 872 2709 872 2509 
Q 872 2291 1088 2159 
Q 1213 2081 1456 2022 
L 1828 1931 
Q 2434 1784 2641 1647 
Q 2969 1431 2969 969 
Q 2969 522 2630 197 
Q 2291 -128 1597 -128 
Q 850 -128 539 211 
Q 228 550 206 1050 
L 747 1050 
z
M 1578 3428 
L 1578 3428 
z
" transform="scale(0.015625)"/>
      <path id="Helvetica-63" d="M 1703 3444 
Q 2269 3444 2623 3169 
Q 2978 2894 3050 2222 
L 2503 2222 
Q 2453 2531 2275 2736 
Q 2097 2941 1703 2941 
Q 1166 2941 934 2416 
Q 784 2075 784 1575 
Q 784 1072 996 728 
Q 1209 384 1666 384 
Q 2016 384 2220 598 
Q 2425 813 2503 1184 
L 3050 1184 
Q 2956 519 2581 211 
Q 2206 -97 1622 -97 
Q 966 -97 575 383 
Q 184 863 184 1581 
Q 184 2463 612 2953 
Q 1041 3444 1703 3444 
z
M 1616 3428 
L 1616 3428 
z
" transform="scale(0.015625)"/>
      <path id="Helvetica-64" d="M 769 1634 
Q 769 1097 997 734 
Q 1225 372 1728 372 
Q 2119 372 2370 708 
Q 2622 1044 2622 1672 
Q 2622 2306 2362 2611 
Q 2103 2916 1722 2916 
Q 1297 2916 1033 2591 
Q 769 2266 769 1634 
z
M 1616 3406 
Q 2000 3406 2259 3244 
Q 2409 3150 2600 2916 
L 2600 4606 
L 3141 4606 
L 3141 0 
L 2634 0 
L 2634 466 
Q 2438 156 2169 18 
Q 1900 -119 1553 -119 
Q 994 -119 584 351 
Q 175 822 175 1603 
Q 175 2334 548 2870 
Q 922 3406 1616 3406 
z
" transform="scale(0.015625)"/>
      <path id="Helvetica-75" d="M 975 3347 
L 975 1125 
Q 975 869 1056 706 
Q 1206 406 1616 406 
Q 2203 406 2416 931 
Q 2531 1213 2531 1703 
L 2531 3347 
L 3094 3347 
L 3094 0 
L 2563 0 
L 2569 494 
Q 2459 303 2297 172 
Q 1975 -91 1516 -91 
Q 800 -91 541 388 
Q 400 644 400 1072 
L 400 3347 
L 975 3347 
z
M 1747 3428 
L 1747 3428 
z
" transform="scale(0.015625)"/>
     </defs>
     <use xlink:href="#Helvetica-74"/>
     <use xlink:href="#Helvetica-68" x="27.783203"/>
     <use xlink:href="#Helvetica-72" x="83.398438"/>
     <use xlink:href="#Helvetica-65" x="116.699219"/>
     <use xlink:href="#Helvetica-65" x="172.314453"/>
     <use xlink:href="#Helvetica-20" x="227.929688"/>
     <use xlink:href="#Helvetica-73" x="255.712891"/>
     <use xlink:href="#Helvetica-63" x="305.712891"/>
     <use xlink:href="#Helvetica-68" x="355.712891"/>
     <use xlink:href="#Helvetica-65" x="411.328125"/>
     <use xlink:href="#Helvetica-64" x="466.943359"/>
     <use xlink:href="#Helvetica-75" x="522.558594"/>
     <use xlink:href="#Helvetica-6c" x="578.173828"/>
     <use xlink:href="#Helvetica-65" x="600.390625"/>
     <use xlink:href="#Helvetica-73" x="656.005859"/>
    </g>
   </g>
   <g id="legend_1">
    <g id="line2d_26">
     <path d="M 48.486797 138.121609 
L 56.986797 138.121609 
L 65.486797 138.121609 
" style="fill: none; stroke: #64748b; stroke-width: 2; stroke-linecap: square"/>
    </g>
    <g id="text_15">
     <!-- constant -->
     <g style="fill: #1e293b" transform="translate(72.286797 141.096609) scale(0.085 -0.085)">
      <use xlink:href="#Helvetica-63"/>
      <use xlink:href="#Helvetica-6f" x="50"/>
      <use xlink:href="#Helvetica-6e" x="105.615234"/>
      <use xlink:href="#Helvetica-73" x="161.230469"/>
      <use xlink:href="#Helvetica-74" x="211.230469"/>
      <use xlink:href="#Helvetica-61" x="239.013672"/>
      <use xlink:href="#Helvetica-6e" x="294.628906"/>
      <use xlink:href="#Helvetica-74" x="350.244141"/>
     </g>
    </g>
    <g id="line2d_27">
     <path d="M 48.486797 150.260672 
L 56.986797 150.260672 
L 65.486797 150.260672 
" style="fill: none; stroke: #2563eb; stroke-width: 2; stroke-linecap: square"/>
    </g>
    <g id="text_16">
     <!-- step decay -->
     <g style="fill: #1e293b" transform="translate(72.286797 153.235672) scale(0.085 -0.085)">
      <defs>
       <path id="Helvetica-70" d="M 1825 378 
Q 2219 378 2480 708 
Q 2741 1038 2741 1694 
Q 2741 2094 2625 2381 
Q 2406 2934 1825 2934 
Q 1241 2934 1025 2350 
Q 909 2038 909 1556 
Q 909 1169 1025 897 
Q 1244 378 1825 378 
z
M 369 3331 
L 916 3331 
L 916 2888 
Q 1084 3116 1284 3241 
Q 1569 3428 1953 3428 
Q 2522 3428 2919 2992 
Q 3316 2556 3316 1747 
Q 3316 653 2744 184 
Q 2381 -113 1900 -113 
Q 1522 -113 1266 53 
Q 1116 147 931 375 
L 931 -1334 
L 369 -1334 
L 369 3331 
z
" transform="scale(0.015625)"/>
       <path id="Helvetica-79" d="M 2503 3347 
L 3125 3347 
Q 3006 3025 2597 1878 
Q 2291 1016 2084 472 
Q 1597 -809 1397 -1090 
Q 1197 -1372 709 -1372 
Q 591 -1372 527 -1362 
Q 463 -1353 369 -1328 
L 369 -816 
Q 516 -856 581 -865 
Q 647 -875 697 -875 
Q 853 -875 926 -823 
Q 1000 -772 1050 -697 
Q 1066 -672 1162 -440 
Q 1259 -209 1303 -97 
L 66 3347 
L 703 3347 
L 1600 622 
L 2503 3347 
z
M 1597 3428 
L 1597 3428 
z
" transform="scale(0.015625)"/>
      </defs>
      <use xlink:href="#Helvetica-73"/>
      <use xlink:href="#Helvetica-74" x="50"/>
      <use xlink:href="#Helvetica-65" x="77.783203"/>
      <use xlink:href="#Helvetica-70" x="133.398438"/>
      <use xlink:href="#Helvetica-20" x="189.013672"/>
      <use xlink:href="#Helvetica-64" x="216.796875"/>
      <use xlink:href="#Helvetica-65" x="272.412109"/>
      <use xlink:href="#Helvetica-63" x="328.027344"/>
      <use xlink:href="#Helvetica-61" x="378.027344"/>
      <use xlink:href="#Helvetica-79" x="433.642578"/>
     </g>
    </g>
    <g id="line2d_28">
     <path d="M 48.486797 162.430281 
L 56.986797 162.430281 
L 65.486797 162.430281 
" style="fill: none; stroke: #ea580c; stroke-width: 2; stroke-linecap: square"/>
    </g>
    <g id="text_17">
     <!-- cosine -->
     <g style="fill: #1e293b" transform="translate(72.286797 165.405281) scale(0.085 -0.085)">
      <use xlink:href="#Helvetica-63"/>
      <use xlink:href="#Helvetica-6f" x="50"/>
      <use xlink:href="#Helvetica-73" x="105.615234"/>
      <use xlink:href="#Helvetica-69" x="155.615234"/>
      <use xlink:href="#Helvetica-6e" x="177.832031"/>
      <use xlink:href="#Helvetica-65" x="233.447266"/>
     </g>
    </g>
   </g>
  </g>
  <g id="axes_2">
   <g id="patch_5">
    <path d="M 278.240433 174.827 
L 476.076797 174.827 
L 476.076797 19.595 
L 278.240433 19.595 
z
" style="fill: #ffffff"/>
   </g>
   <g id="matplotlib.axis_3">
    <g id="xtick_6">
     <g id="line2d_29">
      <path d="M 287.232995 174.827 
L 287.232995 19.595 
" clip-path="url(#p8da7b3dd81)" style="fill: none; stroke: #cbd5e1; stroke-opacity: 0.7; stroke-width: 0.5; stroke-linecap: square"/>
     </g>
     <g id="line2d_30">
      <g>
       <use xlink:href="#m9e2b99f021" x="287.232995" y="174.827" style="fill: #64748b; stroke: #64748b; stroke-width: 0.8"/>
      </g>
     </g>
     <g id="text_18">
      <!-- 0 -->
      <g style="fill: #64748b" transform="translate(284.869597 186.924422) scale(0.085 -0.085)">
       <use xlink:href="#Helvetica-30"/>
      </g>
     </g>
    </g>
    <g id="xtick_7">
     <g id="line2d_31">
      <path d="M 332.421749 174.827 
L 332.421749 19.595 
" clip-path="url(#p8da7b3dd81)" style="fill: none; stroke: #cbd5e1; stroke-opacity: 0.7; stroke-width: 0.5; stroke-linecap: square"/>
     </g>
     <g id="line2d_32">
      <g>
       <use xlink:href="#m9e2b99f021" x="332.421749" y="174.827" style="fill: #64748b; stroke: #64748b; stroke-width: 0.8"/>
      </g>
     </g>
     <g id="text_19">
      <!-- 50 -->
      <g style="fill: #64748b" transform="translate(327.694952 186.924422) scale(0.085 -0.085)">
       <use xlink:href="#Helvetica-35"/>
       <use xlink:href="#Helvetica-30" x="55.615234"/>
      </g>
     </g>
    </g>
    <g id="xtick_8">
     <g id="line2d_33">
      <path d="M 377.610503 174.827 
L 377.610503 19.595 
" clip-path="url(#p8da7b3dd81)" style="fill: none; stroke: #cbd5e1; stroke-opacity: 0.7; stroke-width: 0.5; stroke-linecap: square"/>
     </g>
     <g id="line2d_34">
      <g>
       <use xlink:href="#m9e2b99f021" x="377.610503" y="174.827" style="fill: #64748b; stroke: #64748b; stroke-width: 0.8"/>
      </g>
     </g>
     <g id="text_20">
      <!-- 100 -->
      <g style="fill: #64748b" transform="translate(370.520307 186.924422) scale(0.085 -0.085)">
       <use xlink:href="#Helvetica-31"/>
       <use xlink:href="#Helvetica-30" x="55.615234"/>
       <use xlink:href="#Helvetica-30" x="111.230469"/>
      </g>
     </g>
    </g>
    <g id="xtick_9">
     <g id="line2d_35">
      <path d="M 422.799256 174.827 
L 422.799256 19.595 
" clip-path="url(#p8da7b3dd81)" style="fill: none; stroke: #cbd5e1; stroke-opacity: 0.7; stroke-width: 0.5; stroke-linecap: square"/>
     </g>
     <g id="line2d_36">
      <g>
       <use xlink:href="#m9e2b99f021" x="422.799256" y="174.827" style="fill: #64748b; stroke: #64748b; stroke-width: 0.8"/>
      </g>
     </g>
     <g id="text_21">
      <!-- 150 -->
      <g style="fill: #64748b" transform="translate(415.709061 186.924422) scale(0.085 -0.085)">
       <use xlink:href="#Helvetica-31"/>
       <use xlink:href="#Helvetica-35" x="55.615234"/>
       <use xlink:href="#Helvetica-30" x="111.230469"/>
      </g>
     </g>
    </g>
    <g id="xtick_10">
     <g id="line2d_37">
      <path d="M 467.98801 174.827 
L 467.98801 19.595 
" clip-path="url(#p8da7b3dd81)" style="fill: none; stroke: #cbd5e1; stroke-opacity: 0.7; stroke-width: 0.5; stroke-linecap: square"/>
     </g>
     <g id="line2d_38">
      <g>
       <use xlink:href="#m9e2b99f021" x="467.98801" y="174.827" style="fill: #64748b; stroke: #64748b; stroke-width: 0.8"/>
      </g>
     </g>
     <g id="text_22">
      <!-- 200 -->
      <g style="fill: #64748b" transform="translate(460.897815 186.924422) scale(0.085 -0.085)">
       <use xlink:href="#Helvetica-32"/>
       <use xlink:href="#Helvetica-30" x="55.615234"/>
       <use xlink:href="#Helvetica-30" x="111.230469"/>
      </g>
     </g>
    </g>
    <g id="text_23">
     <!-- iteration -->
     <g style="fill: #1e293b" transform="translate(358.48256 200.22825) scale(0.105 -0.105)">
      <use xlink:href="#Helvetica-69"/>
      <use xlink:href="#Helvetica-74" x="22.216797"/>
      <use xlink:href="#Helvetica-65" x="50"/>
      <use xlink:href="#Helvetica-72" x="105.615234"/>
      <use xlink:href="#Helvetica-61" x="138.916016"/>
      <use xlink:href="#Helvetica-74" x="194.53125"/>
      <use xlink:href="#Helvetica-69" x="222.314453"/>
      <use xlink:href="#Helvetica-6f" x="244.53125"/>
      <use xlink:href="#Helvetica-6e" x="300.146484"/>
     </g>
    </g>
   </g>
   <g id="matplotlib.axis_4">
    <g id="ytick_7">
     <g id="line2d_39">
      <path d="M 278.240433 173.023025 
L 476.076797 173.023025 
" clip-path="url(#p8da7b3dd81)" style="fill: none; stroke: #cbd5e1; stroke-opacity: 0.7; stroke-width: 0.5; stroke-linecap: square"/>
     </g>
     <g id="line2d_40">
      <g>
       <use xlink:href="#mc41db11927" x="278.240433" y="173.023025" style="fill: #64748b; stroke: #64748b; stroke-width: 0.8"/>
      </g>
     </g>
     <g id="text_24">
      <!-- $\mathdefault{10^{-5}}$ -->
      <g style="fill: #64748b" transform="translate(255.665433 176.071736) scale(0.085 -0.085)">
       <defs>
        <path id="Helvetica-2212" d="M 3547 1894 
L 3547 1369 
L 288 1369 
L 288 1894 
L 3547 1894 
z
" transform="scale(0.015625)"/>
       </defs>
       <use xlink:href="#Helvetica-31" transform="translate(0 0.267188)"/>
       <use xlink:href="#Helvetica-30" transform="translate(55.615234 0.267188)"/>
       <use xlink:href="#Helvetica-2212" transform="translate(112.145664 36.875) scale(0.7)"/>
       <use xlink:href="#Helvetica-35" transform="translate(153.02457 36.875) scale(0.7)"/>
      </g>
     </g>
    </g>
    <g id="ytick_8">
     <g id="line2d_41">
      <path d="M 278.240433 145.246492 
L 476.076797 145.246492 
" clip-path="url(#p8da7b3dd81)" style="fill: none; stroke: #cbd5e1; stroke-opacity: 0.7; stroke-width: 0.5; stroke-linecap: square"/>
     </g>
     <g id="line2d_42">
      <g>
       <use xlink:href="#mc41db11927" x="278.240433" y="145.246492" style="fill: #64748b; stroke: #64748b; stroke-width: 0.8"/>
      </g>
     </g>
     <g id="text_25">
      <!-- $\mathdefault{10^{-4}}$ -->
      <g style="fill: #64748b" transform="translate(255.665433 148.295203) scale(0.085 -0.085)">
       <use xlink:href="#Helvetica-31" transform="translate(0 0.304688)"/>
       <use xlink:href="#Helvetica-30" transform="translate(55.615234 0.304688)"/>
       <use xlink:href="#Helvetica-2212" transform="translate(112.145664 36.9125) scale(0.7)"/>
       <use xlink:href="#Helvetica-34" transform="translate(153.02457 36.9125) scale(0.7)"/>
      </g>
     </g>
    </g>
    <g id="ytick_9">
     <g id="line2d_43">
      <path d="M 278.240433 117.469959 
L 476.076797 117.469959 
" clip-path="url(#p8da7b3dd81)" style="fill: none; stroke: #cbd5e1; stroke-opacity: 0.7; stroke-width: 0.5; stroke-linecap: square"/>
     </g>
     <g id="line2d_44">
      <g>
       <use xlink:href="#mc41db11927" x="278.240433" y="117.469959" style="fill: #64748b; stroke: #64748b; stroke-width: 0.8"/>
      </g>
     </g>
     <g id="text_26">
      <!-- $\mathdefault{10^{-3}}$ -->
      <g style="fill: #64748b" transform="translate(255.665433 120.51867) scale(0.085 -0.085)">
       <defs>
        <path id="Helvetica-33" d="M 1663 -122 
Q 869 -122 511 314 
Q 153 750 153 1375 
L 741 1375 
Q 778 941 903 744 
Q 1122 391 1694 391 
Q 2138 391 2406 628 
Q 2675 866 2675 1241 
Q 2675 1703 2392 1887 
Q 2109 2072 1606 2072 
Q 1550 2072 1492 2070 
Q 1434 2069 1375 2066 
L 1375 2563 
Q 1463 2553 1522 2550 
Q 1581 2547 1650 2547 
Q 1966 2547 2169 2647 
Q 2525 2822 2525 3272 
Q 2525 3606 2287 3787 
Q 2050 3969 1734 3969 
Q 1172 3969 956 3594 
Q 838 3388 822 3006 
L 266 3006 
Q 266 3506 466 3856 
Q 809 4481 1675 4481 
Q 2359 4481 2734 4176 
Q 3109 3872 3109 3294 
Q 3109 2881 2888 2625 
Q 2750 2466 2531 2375 
Q 2884 2278 3082 2001 
Q 3281 1725 3281 1325 
Q 3281 684 2859 281 
Q 2438 -122 1663 -122 
z
" transform="scale(0.015625)"/>
       </defs>
       <use xlink:href="#Helvetica-31" transform="translate(0 0.38125)"/>
       <use xlink:href="#Helvetica-30" transform="translate(55.615234 0.38125)"/>
       <use xlink:href="#Helvetica-2212" transform="translate(112.145664 36.989063) scale(0.7)"/>
       <use xlink:href="#Helvetica-33" transform="translate(153.02457 36.989063) scale(0.7)"/>
      </g>
     </g>
    </g>
    <g id="ytick_10">
     <g id="line2d_45">
      <path d="M 278.240433 89.693427 
L 476.076797 89.693427 
" clip-path="url(#p8da7b3dd81)" style="fill: none; stroke: #cbd5e1; stroke-opacity: 0.7; stroke-width: 0.5; stroke-linecap: square"/>
     </g>
     <g id="line2d_46">
      <g>
       <use xlink:href="#mc41db11927" x="278.240433" y="89.693427" style="fill: #64748b; stroke: #64748b; stroke-width: 0.8"/>
      </g>
     </g>
     <g id="text_27">
      <!-- $\mathdefault{10^{-2}}$ -->
      <g style="fill: #64748b" transform="translate(255.665433 92.742138) scale(0.085 -0.085)">
       <use xlink:href="#Helvetica-31" transform="translate(0 0.271875)"/>
       <use xlink:href="#Helvetica-30" transform="translate(55.615234 0.271875)"/>
       <use xlink:href="#Helvetica-2212" transform="translate(112.145664 36.879688) scale(0.7)"/>
       <use xlink:href="#Helvetica-32" transform="translate(153.02457 36.879688) scale(0.7)"/>
      </g>
     </g>
    </g>
    <g id="ytick_11">
     <g id="line2d_47">
      <path d="M 278.240433 61.916894 
L 476.076797 61.916894 
" clip-path="url(#p8da7b3dd81)" style="fill: none; stroke: #cbd5e1; stroke-opacity: 0.7; stroke-width: 0.5; stroke-linecap: square"/>
     </g>
     <g id="line2d_48">
      <g>
       <use xlink:href="#mc41db11927" x="278.240433" y="61.916894" style="fill: #64748b; stroke: #64748b; stroke-width: 0.8"/>
      </g>
     </g>
     <g id="text_28">
      <!-- $\mathdefault{10^{-1}}$ -->
      <g style="fill: #64748b" transform="translate(255.665433 64.965605) scale(0.085 -0.085)">
       <use xlink:href="#Helvetica-31" transform="translate(0 0.654688)"/>
       <use xlink:href="#Helvetica-30" transform="translate(55.615234 0.654688)"/>
       <use xlink:href="#Helvetica-2212" transform="translate(112.145664 37.2625) scale(0.7)"/>
       <use xlink:href="#Helvetica-31" transform="translate(153.02457 37.2625) scale(0.7)"/>
      </g>
     </g>
    </g>
    <g id="ytick_12">
     <g id="line2d_49">
      <path d="M 278.240433 34.140361 
L 476.076797 34.140361 
" clip-path="url(#p8da7b3dd81)" style="fill: none; stroke: #cbd5e1; stroke-opacity: 0.7; stroke-width: 0.5; stroke-linecap: square"/>
     </g>
     <g id="line2d_50">
      <g>
       <use xlink:href="#mc41db11927" x="278.240433" y="34.140361" style="fill: #64748b; stroke: #64748b; stroke-width: 0.8"/>
      </g>
     </g>
     <g id="text_29">
      <!-- $\mathdefault{10^{0}}$ -->
      <g style="fill: #64748b" transform="translate(259.150433 37.189072) scale(0.085 -0.085)">
       <use xlink:href="#Helvetica-31" transform="translate(0 0.446875)"/>
       <use xlink:href="#Helvetica-30" transform="translate(55.615234 0.446875)"/>
       <use xlink:href="#Helvetica-30" transform="translate(112.145664 37.054688) scale(0.7)"/>
      </g>
     </g>
    </g>
    <g id="ytick_13">
     <g id="line2d_51">
      <defs>
       <path id="m12cb2e5a7e" d="M 0 0 
L -2 0 
" style="stroke: #64748b; stroke-width: 0.6"/>
      </defs>
      <g>
       <use xlink:href="#m12cb2e5a7e" x="278.240433" y="174.294009" style="fill: #64748b; stroke: #64748b; stroke-width: 0.6"/>
      </g>
     </g>
    </g>
    <g id="ytick_14">
     <g id="line2d_52">
      <g>
       <use xlink:href="#m12cb2e5a7e" x="278.240433" y="164.661455" style="fill: #64748b; stroke: #64748b; stroke-width: 0.6"/>
      </g>
     </g>
    </g>
    <g id="ytick_15">
     <g id="line2d_53">
      <g>
       <use xlink:href="#m12cb2e5a7e" x="278.240433" y="159.770251" style="fill: #64748b; stroke: #64748b; stroke-width: 0.6"/>
      </g>
     </g>
    </g>
    <g id="ytick_16">
     <g id="line2d_54">
      <g>
       <use xlink:href="#m12cb2e5a7e" x="278.240433" y="156.299886" style="fill: #64748b; stroke: #64748b; stroke-width: 0.6"/>
      </g>
     </g>
    </g>
    <g id="ytick_17">
     <g id="line2d_55">
      <g>
       <use xlink:href="#m12cb2e5a7e" x="278.240433" y="153.608062" style="fill: #64748b; stroke: #64748b; stroke-width: 0.6"/>
      </g>
     </g>
    </g>
    <g id="ytick_18">
     <g id="line2d_56">
      <g>
       <use xlink:href="#m12cb2e5a7e" x="278.240433" y="151.408681" style="fill: #64748b; stroke: #64748b; stroke-width: 0.6"/>
      </g>
     </g>
    </g>
    <g id="ytick_19">
     <g id="line2d_57">
      <g>
       <use xlink:href="#m12cb2e5a7e" x="278.240433" y="149.549131" style="fill: #64748b; stroke: #64748b; stroke-width: 0.6"/>
      </g>
     </g>
    </g>
    <g id="ytick_20">
     <g id="line2d_58">
      <g>
       <use xlink:href="#m12cb2e5a7e" x="278.240433" y="147.938316" style="fill: #64748b; stroke: #64748b; stroke-width: 0.6"/>
      </g>
     </g>
    </g>
    <g id="ytick_21">
     <g id="line2d_59">
      <g>
       <use xlink:href="#m12cb2e5a7e" x="278.240433" y="146.517477" style="fill: #64748b; stroke: #64748b; stroke-width: 0.6"/>
      </g>
     </g>
    </g>
    <g id="ytick_22">
     <g id="line2d_60">
      <g>
       <use xlink:href="#m12cb2e5a7e" x="278.240433" y="136.884923" style="fill: #64748b; stroke: #64748b; stroke-width: 0.6"/>
      </g>
     </g>
    </g>
    <g id="ytick_23">
     <g id="line2d_61">
      <g>
       <use xlink:href="#m12cb2e5a7e" x="278.240433" y="131.993718" style="fill: #64748b; stroke: #64748b; stroke-width: 0.6"/>
      </g>
     </g>
    </g>
    <g id="ytick_24">
     <g id="line2d_62">
      <g>
       <use xlink:href="#m12cb2e5a7e" x="278.240433" y="128.523353" style="fill: #64748b; stroke: #64748b; stroke-width: 0.6"/>
      </g>
     </g>
    </g>
    <g id="ytick_25">
     <g id="line2d_63">
      <g>
       <use xlink:href="#m12cb2e5a7e" x="278.240433" y="125.831529" style="fill: #64748b; stroke: #64748b; stroke-width: 0.6"/>
      </g>
     </g>
    </g>
    <g id="ytick_26">
     <g id="line2d_64">
      <g>
       <use xlink:href="#m12cb2e5a7e" x="278.240433" y="123.632148" style="fill: #64748b; stroke: #64748b; stroke-width: 0.6"/>
      </g>
     </g>
    </g>
    <g id="ytick_27">
     <g id="line2d_65">
      <g>
       <use xlink:href="#m12cb2e5a7e" x="278.240433" y="121.772599" style="fill: #64748b; stroke: #64748b; stroke-width: 0.6"/>
      </g>
     </g>
    </g>
    <g id="ytick_28">
     <g id="line2d_66">
      <g>
       <use xlink:href="#m12cb2e5a7e" x="278.240433" y="120.161784" style="fill: #64748b; stroke: #64748b; stroke-width: 0.6"/>
      </g>
     </g>
    </g>
    <g id="ytick_29">
     <g id="line2d_67">
      <g>
       <use xlink:href="#m12cb2e5a7e" x="278.240433" y="118.740944" style="fill: #64748b; stroke: #64748b; stroke-width: 0.6"/>
      </g>
     </g>
    </g>
    <g id="ytick_30">
     <g id="line2d_68">
      <g>
       <use xlink:href="#m12cb2e5a7e" x="278.240433" y="109.10839" style="fill: #64748b; stroke: #64748b; stroke-width: 0.6"/>
      </g>
     </g>
    </g>
    <g id="ytick_31">
     <g id="line2d_69">
      <g>
       <use xlink:href="#m12cb2e5a7e" x="278.240433" y="104.217185" style="fill: #64748b; stroke: #64748b; stroke-width: 0.6"/>
      </g>
     </g>
    </g>
    <g id="ytick_32">
     <g id="line2d_70">
      <g>
       <use xlink:href="#m12cb2e5a7e" x="278.240433" y="100.74682" style="fill: #64748b; stroke: #64748b; stroke-width: 0.6"/>
      </g>
     </g>
    </g>
    <g id="ytick_33">
     <g id="line2d_71">
      <g>
       <use xlink:href="#m12cb2e5a7e" x="278.240433" y="98.054996" style="fill: #64748b; stroke: #64748b; stroke-width: 0.6"/>
      </g>
     </g>
    </g>
    <g id="ytick_34">
     <g id="line2d_72">
      <g>
       <use xlink:href="#m12cb2e5a7e" x="278.240433" y="95.855616" style="fill: #64748b; stroke: #64748b; stroke-width: 0.6"/>
      </g>
     </g>
    </g>
    <g id="ytick_35">
     <g id="line2d_73">
      <g>
       <use xlink:href="#m12cb2e5a7e" x="278.240433" y="93.996066" style="fill: #64748b; stroke: #64748b; stroke-width: 0.6"/>
      </g>
     </g>
    </g>
    <g id="ytick_36">
     <g id="line2d_74">
      <g>
       <use xlink:href="#m12cb2e5a7e" x="278.240433" y="92.385251" style="fill: #64748b; stroke: #64748b; stroke-width: 0.6"/>
      </g>
     </g>
    </g>
    <g id="ytick_37">
     <g id="line2d_75">
      <g>
       <use xlink:href="#m12cb2e5a7e" x="278.240433" y="90.964411" style="fill: #64748b; stroke: #64748b; stroke-width: 0.6"/>
      </g>
     </g>
    </g>
    <g id="ytick_38">
     <g id="line2d_76">
      <g>
       <use xlink:href="#m12cb2e5a7e" x="278.240433" y="81.331857" style="fill: #64748b; stroke: #64748b; stroke-width: 0.6"/>
      </g>
     </g>
    </g>
    <g id="ytick_39">
     <g id="line2d_77">
      <g>
       <use xlink:href="#m12cb2e5a7e" x="278.240433" y="76.440653" style="fill: #64748b; stroke: #64748b; stroke-width: 0.6"/>
      </g>
     </g>
    </g>
    <g id="ytick_40">
     <g id="line2d_78">
      <g>
       <use xlink:href="#m12cb2e5a7e" x="278.240433" y="72.970288" style="fill: #64748b; stroke: #64748b; stroke-width: 0.6"/>
      </g>
     </g>
    </g>
    <g id="ytick_41">
     <g id="line2d_79">
      <g>
       <use xlink:href="#m12cb2e5a7e" x="278.240433" y="70.278463" style="fill: #64748b; stroke: #64748b; stroke-width: 0.6"/>
      </g>
     </g>
    </g>
    <g id="ytick_42">
     <g id="line2d_80">
      <g>
       <use xlink:href="#m12cb2e5a7e" x="278.240433" y="68.079083" style="fill: #64748b; stroke: #64748b; stroke-width: 0.6"/>
      </g>
     </g>
    </g>
    <g id="ytick_43">
     <g id="line2d_81">
      <g>
       <use xlink:href="#m12cb2e5a7e" x="278.240433" y="66.219533" style="fill: #64748b; stroke: #64748b; stroke-width: 0.6"/>
      </g>
     </g>
    </g>
    <g id="ytick_44">
     <g id="line2d_82">
      <g>
       <use xlink:href="#m12cb2e5a7e" x="278.240433" y="64.608718" style="fill: #64748b; stroke: #64748b; stroke-width: 0.6"/>
      </g>
     </g>
    </g>
    <g id="ytick_45">
     <g id="line2d_83">
      <g>
       <use xlink:href="#m12cb2e5a7e" x="278.240433" y="63.187878" style="fill: #64748b; stroke: #64748b; stroke-width: 0.6"/>
      </g>
     </g>
    </g>
    <g id="ytick_46">
     <g id="line2d_84">
      <g>
       <use xlink:href="#m12cb2e5a7e" x="278.240433" y="53.555324" style="fill: #64748b; stroke: #64748b; stroke-width: 0.6"/>
      </g>
     </g>
    </g>
    <g id="ytick_47">
     <g id="line2d_85">
      <g>
       <use xlink:href="#m12cb2e5a7e" x="278.240433" y="48.66412" style="fill: #64748b; stroke: #64748b; stroke-width: 0.6"/>
      </g>
     </g>
    </g>
    <g id="ytick_48">
     <g id="line2d_86">
      <g>
       <use xlink:href="#m12cb2e5a7e" x="278.240433" y="45.193755" style="fill: #64748b; stroke: #64748b; stroke-width: 0.6"/>
      </g>
     </g>
    </g>
    <g id="ytick_49">
     <g id="line2d_87">
      <g>
       <use xlink:href="#m12cb2e5a7e" x="278.240433" y="42.501931" style="fill: #64748b; stroke: #64748b; stroke-width: 0.6"/>
      </g>
     </g>
    </g>
    <g id="ytick_50">
     <g id="line2d_88">
      <g>
       <use xlink:href="#m12cb2e5a7e" x="278.240433" y="40.30255" style="fill: #64748b; stroke: #64748b; stroke-width: 0.6"/>
      </g>
     </g>
    </g>
    <g id="ytick_51">
     <g id="line2d_89">
      <g>
       <use xlink:href="#m12cb2e5a7e" x="278.240433" y="38.443001" style="fill: #64748b; stroke: #64748b; stroke-width: 0.6"/>
      </g>
     </g>
    </g>
    <g id="ytick_52">
     <g id="line2d_90">
      <g>
       <use xlink:href="#m12cb2e5a7e" x="278.240433" y="36.832185" style="fill: #64748b; stroke: #64748b; stroke-width: 0.6"/>
      </g>
     </g>
    </g>
    <g id="ytick_53">
     <g id="line2d_91">
      <g>
       <use xlink:href="#m12cb2e5a7e" x="278.240433" y="35.411346" style="fill: #64748b; stroke: #64748b; stroke-width: 0.6"/>
      </g>
     </g>
    </g>
    <g id="ytick_54">
     <g id="line2d_92">
      <g>
       <use xlink:href="#m12cb2e5a7e" x="278.240433" y="25.778792" style="fill: #64748b; stroke: #64748b; stroke-width: 0.6"/>
      </g>
     </g>
    </g>
    <g id="ytick_55">
     <g id="line2d_93">
      <g>
       <use xlink:href="#m12cb2e5a7e" x="278.240433" y="20.887587" style="fill: #64748b; stroke: #64748b; stroke-width: 0.6"/>
      </g>
     </g>
    </g>
    <g id="text_30">
     <!-- objective -->
     <g style="fill: #1e293b" transform="translate(249.450589 117.930453) rotate(-90) scale(0.105 -0.105)">
      <defs>
       <path id="Helvetica-62" d="M 369 4606 
L 916 4606 
L 916 2941 
Q 1100 3181 1356 3307 
Q 1613 3434 1913 3434 
Q 2538 3434 2927 3004 
Q 3316 2575 3316 1738 
Q 3316 944 2931 419 
Q 2547 -106 1866 -106 
Q 1484 -106 1222 78 
Q 1066 188 888 428 
L 888 0 
L 369 0 
L 369 4606 
z
M 1831 391 
Q 2288 391 2514 753 
Q 2741 1116 2741 1709 
Q 2741 2238 2514 2584 
Q 2288 2931 1847 2931 
Q 1463 2931 1173 2647 
Q 884 2363 884 1709 
Q 884 1238 1003 944 
Q 1225 391 1831 391 
z
" transform="scale(0.015625)"/>
       <path id="Helvetica-6a" d="M 975 3941 
L 413 3941 
L 413 4591 
L 975 4591 
L 975 3941 
z
M -119 -847 
Q 259 -834 336 -779 
Q 413 -725 413 -438 
L 413 3331 
L 975 3331 
L 975 -497 
Q 975 -863 856 -1044 
Q 659 -1350 109 -1350 
Q 69 -1350 23 -1347 
Q -22 -1344 -119 -1334 
L -119 -847 
z
" transform="scale(0.015625)"/>
       <path id="Helvetica-76" d="M 688 3347 
L 1581 622 
L 2516 3347 
L 3131 3347 
L 1869 0 
L 1269 0 
L 34 3347 
L 688 3347 
z
" transform="scale(0.015625)"/>
      </defs>
      <use xlink:href="#Helvetica-6f"/>
      <use xlink:href="#Helvetica-62" x="55.615234"/>
      <use xlink:href="#Helvetica-6a" x="111.230469"/>
      <use xlink:href="#Helvetica-65" x="133.447266"/>
      <use xlink:href="#Helvetica-63" x="189.0625"/>
      <use xlink:href="#Helvetica-74" x="239.0625"/>
      <use xlink:href="#Helvetica-69" x="266.845703"/>
      <use xlink:href="#Helvetica-76" x="289.0625"/>
      <use xlink:href="#Helvetica-65" x="339.0625"/>
     </g>
    </g>
   </g>
   <g id="line2d_94">
    <path d="M 287.232995 28.38682 
L 288.13677 31.126092 
L 289.040545 34.777463 
L 289.94432 36.690803 
L 290.848096 39.703489 
L 291.751871 42.206633 
L 293.559421 45.460609 
L 294.463196 48.186711 
L 295.366971 49.293586 
L 296.270746 51.831171 
L 297.174521 56.399816 
L 298.078296 51.130236 
L 298.982071 55.295047 
L 299.885846 58.703075 
L 300.789621 65.370287 
L 301.693396 61.319558 
L 302.597171 71.825375 
L 303.500947 66.603917 
L 304.404722 78.214476 
L 305.308497 71.960622 
L 306.212272 71.556807 
L 307.116047 78.016152 
L 308.019822 78.923405 
L 308.923597 80.695126 
L 309.827372 85.313927 
L 310.731147 94.501432 
L 311.634922 82.993763 
L 312.538697 117.030082 
L 313.442472 109.144404 
L 314.346247 115.93217 
L 315.250023 81.944653 
L 316.153798 95.364579 
L 317.057573 93.133976 
L 317.961348 90.328553 
L 318.865123 108.784238 
L 319.768898 88.616029 
L 320.672673 84.94365 
L 321.576448 76.827079 
L 322.480223 93.215229 
L 323.383998 124.462478 
L 324.287773 78.498079 
L 325.191548 96.554085 
L 326.095323 102.605772 
L 326.999098 99.913779 
L 327.902874 114.649502 
L 328.806649 121.559392 
L 329.710424 65.887091 
L 330.614199 113.075122 
L 331.517974 108.382736 
L 332.421749 86.133542 
L 333.325524 89.25162 
L 334.229299 104.754419 
L 335.133074 76.284317 
L 336.940624 133.579085 
L 337.844399 89.50028 
L 338.748174 141.294031 
L 339.651949 101.270331 
L 341.4595 76.952585 
L 342.363275 87.552708 
L 343.26705 86.922578 
L 344.170825 99.039707 
L 345.0746 93.877389 
L 345.978375 91.775734 
L 346.88215 92.456915 
L 347.785925 84.574848 
L 348.6897 80.442385 
L 349.593475 78.09184 
L 350.49725 74.111176 
L 351.401025 89.280988 
L 352.304801 93.323965 
L 353.208576 93.423797 
L 354.112351 81.271213 
L 355.016126 93.991276 
L 356.823676 74.17229 
L 357.727451 87.148231 
L 358.631226 75.831907 
L 359.535001 83.776298 
L 360.438776 81.751746 
L 361.342551 84.344617 
L 362.246326 115.870729 
L 363.150101 115.928138 
L 364.053876 116.144926 
L 364.957652 114.088197 
L 365.861427 82.504096 
L 366.765202 77.679073 
L 367.668977 78.789326 
L 368.572752 104.404101 
L 369.476527 59.705861 
L 370.380302 88.612828 
L 371.284077 101.852519 
L 372.187852 86.006149 
L 373.995402 62.379653 
L 374.899177 69.835646 
L 375.802952 137.780831 
L 376.706728 84.34055 
L 377.610503 68.880639 
L 378.514278 97.497238 
L 379.418053 167.771 
L 380.321828 70.285922 
L 381.225603 94.401858 
L 382.129378 91.262477 
L 383.033153 91.358386 
L 383.936928 79.151059 
L 384.840703 95.54419 
L 385.744478 96.779645 
L 386.648253 85.69903 
L 387.552028 94.050726 
L 388.455803 85.631119 
L 390.263354 74.359903 
L 391.167129 80.799676 
L 392.070904 65.623739 
L 392.974679 87.243682 
L 393.878454 75.65186 
L 394.782229 72.216301 
L 395.686004 79.986296 
L 396.589779 69.905873 
L 397.493554 90.144238 
L 398.397329 86.261581 
L 399.301104 87.429879 
L 400.204879 88.811533 
L 401.108655 85.087263 
L 402.01243 95.001615 
L 402.916205 95.700527 
L 403.81998 102.392837 
L 405.62753 75.34911 
L 406.531305 71.614732 
L 407.43508 86.425289 
L 408.338855 83.841892 
L 409.24263 92.716078 
L 410.146405 56.093427 
L 411.05018 74.539463 
L 411.953955 83.413716 
L 412.85773 73.068323 
L 413.761506 81.358179 
L 414.665281 81.341465 
L 415.569056 77.816255 
L 416.472831 79.980909 
L 417.376606 76.214348 
L 418.280381 70.672356 
L 419.184156 73.772852 
L 420.087931 80.211782 
L 420.991706 75.707352 
L 421.895481 95.546014 
L 422.799256 91.827815 
L 423.703031 83.419016 
L 424.606806 91.261879 
L 425.510582 128.849495 
L 426.414357 87.228723 
L 427.318132 75.592042 
L 428.221907 93.386598 
L 429.125682 104.728535 
L 430.029457 89.914448 
L 430.933232 70.314218 
L 431.837007 79.384463 
L 432.740782 76.819952 
L 433.644557 72.9118 
L 434.548332 75.673548 
L 435.452107 72.098286 
L 436.355882 85.957803 
L 437.259657 75.934773 
L 438.163433 103.688182 
L 439.067208 74.590959 
L 439.970983 84.422765 
L 440.874758 77.845564 
L 441.778533 74.329152 
L 442.682308 76.935374 
L 443.586083 78.029304 
L 444.489858 76.409273 
L 445.393633 69.774004 
L 446.297408 92.181099 
L 447.201183 103.687443 
L 448.104958 83.817804 
L 449.008733 97.651346 
L 449.912508 85.747007 
L 450.816284 145.633967 
L 451.720059 81.643784 
L 452.623834 82.770423 
L 453.527609 92.391938 
L 454.431384 69.84606 
L 455.335159 77.476668 
L 456.238934 83.318388 
L 457.142709 85.929522 
L 458.046484 96.380586 
L 458.950259 74.757857 
L 459.854034 82.404516 
L 460.757809 128.352862 
L 461.661584 82.697098 
L 462.56536 96.756294 
L 463.469135 92.814123 
L 464.37291 117.429111 
L 465.276685 72.925499 
L 466.18046 127.892337 
L 467.084235 92.534837 
L 467.084235 92.534837 
" clip-path="url(#p8da7b3dd81)" style="fill: none; stroke: #64748b; stroke-width: 1.8; stroke-linecap: square"/>
   </g>
   <g id="line2d_95">
    <path d="M 287.232995 26.651 
L 288.13677 29.176473 
L 289.040545 30.638358 
L 290.848096 37.714916 
L 291.751871 37.729646 
L 292.655646 38.944501 
L 293.559421 39.767898 
L 295.366971 47.75611 
L 296.270746 50.043222 
L 297.174521 51.902798 
L 298.078296 55.338873 
L 298.982071 60.046344 
L 299.885846 63.843452 
L 300.789621 71.813203 
L 301.693396 86.219175 
L 302.597171 82.50093 
L 303.500947 96.074759 
L 304.404722 76.477377 
L 305.308497 79.411153 
L 306.212272 77.500868 
L 307.116047 100.822636 
L 308.019822 110.136953 
L 308.923597 67.601679 
L 309.827372 115.688218 
L 310.731147 100.048837 
L 311.634922 121.02038 
L 312.538697 71.615391 
L 313.442472 75.558806 
L 314.346247 95.123667 
L 315.250023 78.959599 
L 316.153798 87.761282 
L 317.057573 91.047449 
L 317.961348 96.263384 
L 318.865123 82.979383 
L 319.768898 72.686694 
L 320.672673 90.968487 
L 321.576448 93.383083 
L 322.480223 85.744139 
L 323.383998 92.216184 
L 324.287773 85.933435 
L 325.191548 73.722029 
L 326.095323 66.717398 
L 326.999098 72.54389 
L 327.902874 84.78429 
L 328.806649 78.883196 
L 329.710424 79.883687 
L 330.614199 63.567373 
L 331.517974 80.339894 
L 332.421749 66.327741 
L 333.325524 89.254936 
L 334.229299 84.550056 
L 335.133074 87.363988 
L 336.036849 105.3874 
L 336.940624 88.285576 
L 337.844399 78.722518 
L 338.748174 105.042176 
L 339.651949 121.927898 
L 340.555725 84.420826 
L 341.4595 104.612438 
L 342.363275 97.703862 
L 343.26705 104.8999 
L 344.170825 91.254576 
L 345.0746 96.424823 
L 345.978375 97.130592 
L 346.88215 131.305811 
L 347.785925 96.263872 
L 348.6897 99.038515 
L 349.593475 90.162011 
L 350.49725 86.938874 
L 351.401025 88.700958 
L 352.304801 84.647205 
L 353.208576 142.893997 
L 354.112351 96.832732 
L 355.016126 138.980804 
L 355.919901 93.157294 
L 356.823676 117.779981 
L 357.727451 116.46628 
L 358.631226 116.846169 
L 359.535001 98.492369 
L 360.438776 91.255652 
L 361.342551 103.857734 
L 362.246326 82.48308 
L 363.150101 114.420971 
L 364.053876 91.978313 
L 364.957652 88.783799 
L 365.861427 100.409035 
L 366.765202 88.255513 
L 367.668977 110.409017 
L 368.572752 110.737586 
L 369.476527 109.820204 
L 370.380302 120.131184 
L 371.284077 80.817973 
L 372.187852 94.753576 
L 373.995402 79.896853 
L 374.899177 80.013817 
L 375.802952 84.284589 
L 376.706728 82.404624 
L 377.610503 85.158724 
L 378.514278 94.904066 
L 379.418053 81.923157 
L 380.321828 94.855251 
L 381.225603 92.457041 
L 382.129378 90.978893 
L 383.033153 82.473985 
L 383.936928 111.64169 
L 384.840703 106.379016 
L 385.744478 106.814411 
L 386.648253 98.119256 
L 387.552028 158.88653 
L 389.359579 76.212605 
L 390.263354 93.47222 
L 391.167129 80.748324 
L 392.974679 123.548521 
L 393.878454 113.965534 
L 394.782229 143.998038 
L 395.686004 145.766589 
L 396.589779 111.987535 
L 397.493554 141.184724 
L 398.397329 102.115275 
L 399.301104 119.59747 
L 400.204879 114.132434 
L 401.108655 106.573037 
L 402.01243 102.875056 
L 402.916205 98.504843 
L 403.81998 87.780873 
L 404.723755 80.588358 
L 405.62753 82.331737 
L 406.531305 86.705746 
L 407.43508 94.521892 
L 408.338855 100.575019 
L 409.24263 104.162751 
L 410.146405 94.385042 
L 411.05018 102.608937 
L 411.953955 109.380805 
L 412.85773 105.332215 
L 413.761506 100.517104 
L 414.665281 91.551136 
L 415.569056 87.230513 
L 416.472831 92.247957 
L 417.376606 98.164302 
L 418.280381 98.597317 
L 419.184156 98.412502 
L 420.087931 96.446166 
L 420.991706 98.158564 
L 421.895481 92.86802 
L 422.799256 90.931991 
L 423.703031 80.239529 
L 424.606806 82.348294 
L 425.510582 80.960815 
L 426.414357 80.863552 
L 427.318132 78.357605 
L 428.221907 81.42761 
L 429.125682 81.444698 
L 430.029457 80.265135 
L 430.933232 80.512054 
L 432.740782 78.381547 
L 433.644557 81.536029 
L 434.548332 82.574682 
L 435.452107 84.139774 
L 436.355882 87.652384 
L 437.259657 89.587855 
L 438.163433 87.357156 
L 439.067208 88.358057 
L 439.970983 86.04414 
L 440.874758 85.741294 
L 441.778533 83.376511 
L 442.682308 89.847474 
L 443.586083 95.008584 
L 444.489858 91.870041 
L 445.393633 91.18364 
L 446.297408 95.484205 
L 447.201183 93.974263 
L 448.104958 90.911851 
L 449.008733 94.02874 
L 450.816284 92.644586 
L 451.720059 93.870205 
L 452.623834 96.10679 
L 453.527609 93.496408 
L 454.431384 96.32257 
L 456.238934 91.071631 
L 457.142709 86.931838 
L 458.046484 83.496316 
L 458.950259 88.500313 
L 459.854034 91.130451 
L 460.757809 89.568889 
L 461.661584 90.768543 
L 462.56536 92.800566 
L 463.469135 91.427998 
L 464.37291 91.913023 
L 465.276685 94.749942 
L 466.18046 92.142728 
L 467.084235 94.186336 
L 467.084235 94.186336 
" clip-path="url(#p8da7b3dd81)" style="fill: none; stroke: #2563eb; stroke-width: 1.8; stroke-linecap: square"/>
   </g>
   <g id="line2d_96">
    <path d="M 287.232995 27.31572 
L 288.13677 27.945731 
L 289.040545 31.621558 
L 290.848096 36.813357 
L 291.751871 38.423873 
L 292.655646 40.336581 
L 293.559421 42.836154 
L 294.463196 44.019531 
L 295.366971 45.51094 
L 296.270746 47.692541 
L 297.174521 49.191487 
L 298.078296 53.739083 
L 298.982071 55.043721 
L 299.885846 58.649935 
L 300.789621 59.331728 
L 301.693396 63.040788 
L 302.597171 64.686114 
L 303.500947 69.248658 
L 304.404722 74.720369 
L 305.308497 66.655163 
L 306.212272 70.300798 
L 307.116047 70.211104 
L 308.019822 75.614693 
L 308.923597 64.966628 
L 309.827372 88.283588 
L 310.731147 78.942881 
L 311.634922 93.899544 
L 312.538697 79.052469 
L 313.442472 125.171385 
L 314.346247 81.013713 
L 315.250023 83.301957 
L 316.153798 80.48637 
L 317.057573 73.912997 
L 317.961348 71.823635 
L 318.865123 77.275275 
L 319.768898 79.707871 
L 320.672673 94.317969 
L 321.576448 84.658736 
L 322.480223 78.726523 
L 323.383998 116.321219 
L 324.287773 111.138777 
L 325.191548 75.230365 
L 326.095323 81.512964 
L 326.999098 66.895463 
L 327.902874 108.787954 
L 328.806649 101.841891 
L 329.710424 90.230908 
L 330.614199 69.079609 
L 331.517974 74.246189 
L 332.421749 100.301258 
L 333.325524 92.031685 
L 334.229299 77.281016 
L 335.133074 72.985851 
L 336.036849 102.79225 
L 336.940624 75.235047 
L 337.844399 99.010495 
L 338.748174 102.662055 
L 339.651949 101.522665 
L 340.555725 79.751247 
L 341.4595 93.203331 
L 342.363275 83.074174 
L 343.26705 81.226099 
L 344.170825 76.883241 
L 345.0746 106.665971 
L 345.978375 105.721327 
L 347.785925 76.26671 
L 348.6897 97.1897 
L 349.593475 77.0081 
L 350.49725 100.934865 
L 351.401025 101.900094 
L 352.304801 107.067306 
L 353.208576 92.250603 
L 354.112351 117.476055 
L 355.016126 98.935516 
L 355.919901 99.248779 
L 356.823676 111.750021 
L 357.727451 78.244337 
L 358.631226 81.608619 
L 359.535001 108.335907 
L 360.438776 102.898069 
L 361.342551 87.389274 
L 362.246326 87.149297 
L 363.150101 95.713535 
L 364.053876 112.090072 
L 364.957652 91.487338 
L 365.861427 104.039135 
L 366.765202 108.425511 
L 367.668977 97.78341 
L 368.572752 89.676411 
L 369.476527 110.469941 
L 370.380302 98.180726 
L 371.284077 105.005851 
L 372.187852 84.046493 
L 373.091627 87.893768 
L 374.899177 128.024466 
L 375.802952 119.150739 
L 376.706728 112.974521 
L 377.610503 100.472685 
L 378.514278 94.559733 
L 379.418053 95.482633 
L 380.321828 92.303963 
L 381.225603 108.968088 
L 382.129378 99.347625 
L 383.033153 86.236622 
L 383.936928 77.018354 
L 384.840703 81.800932 
L 385.744478 81.01619 
L 386.648253 93.108608 
L 387.552028 106.880968 
L 388.455803 100.294738 
L 389.359579 110.269248 
L 390.263354 102.83638 
L 391.167129 113.668218 
L 392.070904 136.693111 
L 392.974679 125.491019 
L 393.878454 108.107708 
L 394.782229 107.052754 
L 395.686004 83.296407 
L 396.589779 72.350191 
L 397.493554 84.475756 
L 398.397329 82.516832 
L 399.301104 83.208321 
L 400.204879 83.636378 
L 401.108655 92.912765 
L 402.01243 82.060791 
L 403.81998 113.24901 
L 404.723755 145.939365 
L 405.62753 121.68982 
L 406.531305 100.60166 
L 407.43508 96.767945 
L 408.338855 108.642108 
L 409.24263 115.226086 
L 410.146405 143.315403 
L 411.05018 149.363644 
L 411.953955 147.230597 
L 412.85773 155.985738 
L 413.761506 120.32603 
L 414.665281 119.845797 
L 415.569056 112.664633 
L 416.472831 103.664519 
L 417.376606 117.362865 
L 418.280381 110.645279 
L 419.184156 119.932259 
L 420.087931 122.853967 
L 420.991706 119.54176 
L 421.895481 114.410947 
L 422.799256 118.501931 
L 423.703031 117.765409 
L 424.606806 109.420492 
L 425.510582 104.402669 
L 426.414357 109.279564 
L 427.318132 112.48197 
L 428.221907 118.378746 
L 429.125682 117.651029 
L 430.029457 117.122746 
L 430.933232 113.537065 
L 431.837007 114.478639 
L 432.740782 114.070136 
L 433.644557 116.183016 
L 434.548332 115.540665 
L 435.452107 116.535422 
L 436.355882 118.889721 
L 437.259657 117.413378 
L 439.067208 113.920533 
L 439.970983 116.06355 
L 440.874758 117.519792 
L 441.778533 116.536563 
L 443.586083 116.005765 
L 444.489858 114.313378 
L 445.393633 114.368448 
L 446.297408 115.956477 
L 447.201183 113.298389 
L 449.008733 111.45883 
L 450.816284 113.956484 
L 451.720059 114.991783 
L 452.623834 115.729048 
L 453.527609 115.327709 
L 454.431384 116.318098 
L 455.335159 116.737142 
L 456.238934 116.656671 
L 458.046484 117.054803 
L 458.950259 116.515713 
L 459.854034 116.209255 
L 463.469135 116.070059 
L 467.084235 116.077725 
L 467.084235 116.077725 
" clip-path="url(#p8da7b3dd81)" style="fill: none; stroke: #ea580c; stroke-width: 1.8; stroke-linecap: square"/>
   </g>
   <g id="patch_6">
    <path d="M 278.240433 174.827 
L 278.240433 19.595 
" style="fill: none; stroke: #64748b; stroke-width: 0.9; stroke-linejoin: miter; stroke-linecap: square"/>
   </g>
   <g id="patch_7">
    <path d="M 278.240433 174.827 
L 476.076797 174.827 
" style="fill: none; stroke: #64748b; stroke-width: 0.9; stroke-linejoin: miter; stroke-linecap: square"/>
   </g>
   <g id="text_31">
    <!-- decaying the rate settles the noise floor -->
    <g style="fill: #1e293b" transform="translate(290.16799 11.595) scale(0.1 -0.1)">
     <defs>
      <path id="Helvetica-66" d="M 553 3856 
Q 566 4206 675 4369 
Q 872 4656 1434 4656 
Q 1488 4656 1544 4653 
Q 1600 4650 1672 4644 
L 1672 4131 
Q 1584 4138 1545 4139 
Q 1506 4141 1472 4141 
Q 1216 4141 1166 4008 
Q 1116 3875 1116 3331 
L 1672 3331 
L 1672 2888 
L 1109 2888 
L 1109 0 
L 553 0 
L 553 2888 
L 88 2888 
L 88 3331 
L 553 3331 
L 553 3856 
z
" transform="scale(0.015625)"/>
     </defs>
     <use xlink:href="#Helvetica-64"/>
     <use xlink:href="#Helvetica-65" x="55.615234"/>
     <use xlink:href="#Helvetica-63" x="111.230469"/>
     <use xlink:href="#Helvetica-61" x="161.230469"/>
     <use xlink:href="#Helvetica-79" x="216.845703"/>
     <use xlink:href="#Helvetica-69" x="266.845703"/>
     <use xlink:href="#Helvetica-6e" x="289.0625"/>
     <use xlink:href="#Helvetica-67" x="344.677734"/>
     <use xlink:href="#Helvetica-20" x="400.292969"/>
     <use xlink:href="#Helvetica-74" x="428.076172"/>
     <use xlink:href="#Helvetica-68" x="455.859375"/>
     <use xlink:href="#Helvetica-65" x="511.474609"/>
     <use xlink:href="#Helvetica-20" x="567.089844"/>
     <use xlink:href="#Helvetica-72" x="594.873047"/>
     <use xlink:href="#Helvetica-61" x="628.173828"/>
     <use xlink:href="#Helvetica-74" x="683.789062"/>
     <use xlink:href="#Helvetica-65" x="711.572266"/>
     <use xlink:href="#Helvetica-20" x="767.1875"/>
     <use xlink:href="#Helvetica-73" x="794.970703"/>
     <use xlink:href="#Helvetica-65" x="844.970703"/>
     <use xlink:href="#Helvetica-74" x="900.585938"/>
     <use xlink:href="#Helvetica-74" x="928.369141"/>
     <use xlink:href="#Helvetica-6c" x="956.152344"/>
     <use xlink:href="#Helvetica-65" x="978.369141"/>
     <use xlink:href="#Helvetica-73" x="1033.984375"/>
     <use xlink:href="#Helvetica-20" x="1083.984375"/>
     <use xlink:href="#Helvetica-74" x="1111.767578"/>
     <use xlink:href="#Helvetica-68" x="1139.550781"/>
     <use xlink:href="#Helvetica-65" x="1195.166016"/>
     <use xlink:href="#Helvetica-20" x="1250.78125"/>
     <use xlink:href="#Helvetica-6e" x="1278.564453"/>
     <use xlink:href="#Helvetica-6f" x="1334.179688"/>
     <use xlink:href="#Helvetica-69" x="1389.794922"/>
     <use xlink:href="#Helvetica-73" x="1412.011719"/>
     <use xlink:href="#Helvetica-65" x="1462.011719"/>
     <use xlink:href="#Helvetica-20" x="1517.626953"/>
     <use xlink:href="#Helvetica-66" x="1545.410156"/>
     <use xlink:href="#Helvetica-6c" x="1573.193359"/>
     <use xlink:href="#Helvetica-6f" x="1595.410156"/>
     <use xlink:href="#Helvetica-6f" x="1651.025391"/>
     <use xlink:href="#Helvetica-72" x="1706.640625"/>
    </g>
   </g>
  </g>
 </g>
 <defs>
  <clipPath id="p322f923686">
   <rect x="40.836797" y="19.595" width="197.836364" height="155.232"/>
  </clipPath>
  <clipPath id="p8da7b3dd81">
   <rect x="278.240433" y="19.595" width="197.836364" height="155.232"/>
  </clipPath>
 </defs>
</svg>
