<?xml version="1.0" encoding="utf-8" standalone="no"?>
<!DOCTYPE svg PUBLIC "-//W3C//DTD SVG 1.1//EN"
  "http://www.w3.org/Graphics/SVG/1.1/DTD/svg11.dtd">
<svg xmlns:xlink="http://www.w3.org/1999/xlink" width="562.510508pt" height="244.033516pt" viewBox="0 0 562.510508 244.033516" xmlns="http://www.w3.org/2000/svg" version="1.1">
 <metadata>
  <rdf:RDF xmlns:dc="http://purl.org/dc/elements/1.1/" xmlns:cc="http://creativecommons.org/ns#" xmlns:rdf="http://www.w3.org/1999/02/22-rdf-syntax-ns#">
   <cc:Work>
    <dc:type rdf:resource="http://purl.org/dc/dcmitype/StillImage"/>
    <dc:date>2026-08-06T04:22:22.316099</dc:date>
    <dc:format>image/svg+xml</dc:format>
    <dc:creator>
     <cc:Agent>
      <dc:title>Matplotlib v3.11.1, https://matplotlib.org/</dc:title>
     </cc:Agent>
    </dc:creator>
   </cc:Work>
  </rdf:RDF>
 </metadata>
 <defs>
  <style type="text/css">*{stroke-linejoin: round; stroke-linecap: butt}</style>
 </defs>
 <g id="figure_1">
  <g id="patch_1">
   <path d="M 0 244.033516 
L 562.510508 244.033516 
L 562.510508 -0 
L 0 -0 
z
" style="fill: #ffffff"/>
  </g>
  <g id="axes_1">
   <g id="patch_2">
    <path d="M 33.670508 212.235 
L 272.08869 212.235 
L 272.08869 18.195 
L 33.670508 18.195 
z
" style="fill: #ffffff"/>
   </g>
   <g id="matplotlib.axis_1">
    <g id="xtick_1">
     <g id="line2d_1">
      <path d="M 44.507698 212.235 
L 44.507698 18.195 
" clip-path="url(#p5652fd8685)" style="fill: none; stroke: #cbd5e1; stroke-opacity: 0.7; stroke-width: 0.5; stroke-linecap: square"/>
     </g>
     <g id="line2d_2">
      <defs>
       <path id="m7d68e68f4b" d="M 0 0 
L 0 2.5 
" style="stroke: #64748b; stroke-width: 0.8"/>
      </defs>
      <g>
       <use xlink:href="#m7d68e68f4b" x="44.507698" y="212.235" style="fill: #64748b; stroke: #64748b; stroke-width: 0.8"/>
      </g>
     </g>
     <g id="text_1">
      <!-- 0 -->
      <g style="fill: #64748b" transform="translate(42.144299 224.61) scale(0.085 -0.085)">
       <defs>
        <path id="Helvetica-13" d="M 1731 4475 
Q 2600 4475 2988 3759 
Q 3288 3206 3288 2244 
Q 3288 1331 3016 734 
Q 2622 -122 1728 -122 
Q 922 -122 528 578 
Q 200 1163 200 2147 
Q 200 2909 397 3456 
Q 766 4475 1731 4475 
z
M 1725 391 
Q 2163 391 2422 778 
Q 2681 1166 2681 2222 
Q 2681 2984 2493 3476 
Q 2306 3969 1766 3969 
Q 1269 3969 1039 3501 
Q 809 3034 809 2125 
Q 809 1441 956 1025 
Q 1181 391 1725 391 
z
" transform="scale(0.015625)"/>
       </defs>
       <use xlink:href="#Helvetica-13"/>
      </g>
     </g>
    </g>
    <g id="xtick_2">
     <g id="line2d_3">
      <path d="M 80.691972 212.235 
L 80.691972 18.195 
" clip-path="url(#p5652fd8685)" style="fill: none; stroke: #cbd5e1; stroke-opacity: 0.7; stroke-width: 0.5; stroke-linecap: square"/>
     </g>
     <g id="line2d_4">
      <g>
       <use xlink:href="#m7d68e68f4b" x="80.691972" y="212.235" style="fill: #64748b; stroke: #64748b; stroke-width: 0.8"/>
      </g>
     </g>
     <g id="text_2">
      <!-- 100 -->
      <g style="fill: #64748b" transform="translate(73.601777 224.61) scale(0.085 -0.085)">
       <defs>
        <path id="Helvetica-14" d="M 613 3169 
L 613 3600 
Q 1222 3659 1462 3798 
Q 1703 3938 1822 4456 
L 2266 4456 
L 2266 0 
L 1666 0 
L 1666 3169 
L 613 3169 
z
" transform="scale(0.015625)"/>
       </defs>
       <use xlink:href="#Helvetica-14"/>
       <use xlink:href="#Helvetica-13" transform="translate(55.609375 0)"/>
       <use xlink:href="#Helvetica-13" transform="translate(111.21875 0)"/>
      </g>
     </g>
    </g>
    <g id="xtick_3">
     <g id="line2d_5">
      <path d="M 116.876246 212.235 
L 116.876246 18.195 
" clip-path="url(#p5652fd8685)" style="fill: none; stroke: #cbd5e1; stroke-opacity: 0.7; stroke-width: 0.5; stroke-linecap: square"/>
     </g>
     <g id="line2d_6">
      <g>
       <use xlink:href="#m7d68e68f4b" x="116.876246" y="212.235" style="fill: #64748b; stroke: #64748b; stroke-width: 0.8"/>
      </g>
     </g>
     <g id="text_3">
      <!-- 200 -->
      <g style="fill: #64748b" transform="translate(109.786051 224.61) scale(0.085 -0.085)">
       <defs>
        <path id="Helvetica-15" d="M 200 0 
Q 231 578 439 1006 
Q 647 1434 1250 1784 
L 1850 2131 
Q 2253 2366 2416 2531 
Q 2672 2791 2672 3125 
Q 2672 3516 2437 3745 
Q 2203 3975 1813 3975 
Q 1234 3975 1013 3538 
Q 894 3303 881 2888 
L 309 2888 
Q 319 3472 525 3841 
Q 891 4491 1816 4491 
Q 2584 4491 2939 4075 
Q 3294 3659 3294 3150 
Q 3294 2613 2916 2231 
Q 2697 2009 2131 1694 
L 1703 1456 
Q 1397 1288 1222 1134 
Q 909 863 828 531 
L 3272 531 
L 3272 0 
L 200 0 
z
" transform="scale(0.015625)"/>
       </defs>
       <use xlink:href="#Helvetica-15"/>
       <use xlink:href="#Helvetica-13" transform="translate(55.609375 0)"/>
       <use xlink:href="#Helvetica-13" transform="translate(111.21875 0)"/>
      </g>
     </g>
    </g>
    <g id="xtick_4">
     <g id="line2d_7">
      <path d="M 153.06052 212.235 
L 153.06052 18.195 
" clip-path="url(#p5652fd8685)" style="fill: none; stroke: #cbd5e1; stroke-opacity: 0.7; stroke-width: 0.5; stroke-linecap: square"/>
     </g>
     <g id="line2d_8">
      <g>
       <use xlink:href="#m7d68e68f4b" x="153.06052" y="212.235" style="fill: #64748b; stroke: #64748b; stroke-width: 0.8"/>
      </g>
     </g>
     <g id="text_4">
      <!-- 300 -->
      <g style="fill: #64748b" transform="translate(145.970325 224.61) scale(0.085 -0.085)">
       <defs>
        <path id="Helvetica-16" d="M 1663 -122 
Q 869 -122 511 314 
Q 153 750 153 1375 
L 741 1375 
Q 778 941 903 744 
Q 1122 391 1694 391 
Q 2138 391 2406 628 
Q 2675 866 2675 1241 
Q 2675 1703 2392 1887 
Q 2109 2072 1606 2072 
Q 1550 2072 1492 2070 
Q 1434 2069 1375 2066 
L 1375 2563 
Q 1463 2553 1522 2550 
Q 1581 2547 1650 2547 
Q 1966 2547 2169 2647 
Q 2525 2822 2525 3272 
Q 2525 3606 2287 3787 
Q 2050 3969 1734 3969 
Q 1172 3969 956 3594 
Q 838 3388 822 3006 
L 266 3006 
Q 266 3506 466 3856 
Q 809 4481 1675 4481 
Q 2359 4481 2734 4176 
Q 3109 3872 3109 3294 
Q 3109 2881 2888 2625 
Q 2750 2466 2531 2375 
Q 2884 2278 3082 2001 
Q 3281 1725 3281 1325 
Q 3281 684 2859 281 
Q 2438 -122 1663 -122 
z
" transform="scale(0.015625)"/>
       </defs>
       <use xlink:href="#Helvetica-16"/>
       <use xlink:href="#Helvetica-13" transform="translate(55.609375 0)"/>
       <use xlink:href="#Helvetica-13" transform="translate(111.21875 0)"/>
      </g>
     </g>
    </g>
    <g id="xtick_5">
     <g id="line2d_9">
      <path d="M 189.244794 212.235 
L 189.244794 18.195 
" clip-path="url(#p5652fd8685)" style="fill: none; stroke: #cbd5e1; stroke-opacity: 0.7; stroke-width: 0.5; stroke-linecap: square"/>
     </g>
     <g id="line2d_10">
      <g>
       <use xlink:href="#m7d68e68f4b" x="189.244794" y="212.235" style="fill: #64748b; stroke: #64748b; stroke-width: 0.8"/>
      </g>
     </g>
     <g id="text_5">
      <!-- 400 -->
      <g style="fill: #64748b" transform="translate(182.154599 224.61) scale(0.085 -0.085)">
       <defs>
        <path id="Helvetica-17" d="M 2116 1584 
L 2116 3613 
L 681 1584 
L 2116 1584 
z
M 2125 0 
L 2125 1094 
L 163 1094 
L 163 1644 
L 2213 4488 
L 2688 4488 
L 2688 1584 
L 3347 1584 
L 3347 1094 
L 2688 1094 
L 2688 0 
L 2125 0 
z
" transform="scale(0.015625)"/>
       </defs>
       <use xlink:href="#Helvetica-17"/>
       <use xlink:href="#Helvetica-13" transform="translate(55.609375 0)"/>
       <use xlink:href="#Helvetica-13" transform="translate(111.21875 0)"/>
      </g>
     </g>
    </g>
    <g id="xtick_6">
     <g id="line2d_11">
      <path d="M 225.429068 212.235 
L 225.429068 18.195 
" clip-path="url(#p5652fd8685)" style="fill: none; stroke: #cbd5e1; stroke-opacity: 0.7; stroke-width: 0.5; stroke-linecap: square"/>
     </g>
     <g id="line2d_12">
      <g>
       <use xlink:href="#m7d68e68f4b" x="225.429068" y="212.235" style="fill: #64748b; stroke: #64748b; stroke-width: 0.8"/>
      </g>
     </g>
     <g id="text_6">
      <!-- 500 -->
      <g style="fill: #64748b" transform="translate(218.338873 224.61) scale(0.085 -0.085)">
       <defs>
        <path id="Helvetica-18" d="M 791 1141 
Q 847 659 1238 475 
Q 1438 381 1700 381 
Q 2200 381 2440 700 
Q 2681 1019 2681 1406 
Q 2681 1875 2395 2131 
Q 2109 2388 1709 2388 
Q 1419 2388 1211 2275 
Q 1003 2163 856 1963 
L 369 1991 
L 709 4400 
L 3034 4400 
L 3034 3856 
L 1131 3856 
L 941 2613 
Q 1097 2731 1238 2791 
Q 1488 2894 1816 2894 
Q 2431 2894 2859 2497 
Q 3288 2100 3288 1491 
Q 3288 856 2895 371 
Q 2503 -113 1644 -113 
Q 1097 -113 676 195 
Q 256 503 206 1141 
L 791 1141 
z
" transform="scale(0.015625)"/>
       </defs>
       <use xlink:href="#Helvetica-18"/>
       <use xlink:href="#Helvetica-13" transform="translate(55.609375 0)"/>
       <use xlink:href="#Helvetica-13" transform="translate(111.21875 0)"/>
      </g>
     </g>
    </g>
    <g id="xtick_7">
     <g id="line2d_13">
      <path d="M 261.613342 212.235 
L 261.613342 18.195 
" clip-path="url(#p5652fd8685)" style="fill: none; stroke: #cbd5e1; stroke-opacity: 0.7; stroke-width: 0.5; stroke-linecap: square"/>
     </g>
     <g id="line2d_14">
      <g>
       <use xlink:href="#m7d68e68f4b" x="261.613342" y="212.235" style="fill: #64748b; stroke: #64748b; stroke-width: 0.8"/>
      </g>
     </g>
     <g id="text_7">
      <!-- 600 -->
      <g style="fill: #64748b" transform="translate(254.523147 224.61) scale(0.085 -0.085)">
       <defs>
        <path id="Helvetica-19" d="M 1872 4494 
Q 2622 4494 2917 4105 
Q 3213 3716 3213 3303 
L 2656 3303 
Q 2606 3569 2497 3719 
Q 2294 4000 1881 4000 
Q 1409 4000 1131 3564 
Q 853 3128 822 2316 
Q 1016 2600 1309 2741 
Q 1578 2866 1909 2866 
Q 2472 2866 2890 2506 
Q 3309 2147 3309 1434 
Q 3309 825 2912 354 
Q 2516 -116 1781 -116 
Q 1153 -116 697 361 
Q 241 838 241 1966 
Q 241 2800 444 3381 
Q 834 4494 1872 4494 
z
M 1831 384 
Q 2275 384 2495 682 
Q 2716 981 2716 1388 
Q 2716 1731 2519 2042 
Q 2322 2353 1803 2353 
Q 1441 2353 1167 2112 
Q 894 1872 894 1388 
Q 894 963 1142 673 
Q 1391 384 1831 384 
z
" transform="scale(0.015625)"/>
       </defs>
       <use xlink:href="#Helvetica-19"/>
       <use xlink:href="#Helvetica-13" transform="translate(55.609375 0)"/>
       <use xlink:href="#Helvetica-13" transform="translate(111.21875 0)"/>
      </g>
     </g>
    </g>
    <g id="text_8">
     <!-- time -->
     <g style="fill: #1e293b" transform="translate(142.962021 237.929336) scale(0.105 -0.105)">
      <defs>
       <path id="Helvetica-57" d="M 525 4281 
L 1094 4281 
L 1094 3347 
L 1628 3347 
L 1628 2888 
L 1094 2888 
L 1094 703 
Q 1094 528 1213 469 
Q 1278 434 1431 434 
Q 1472 434 1519 436 
Q 1566 438 1628 444 
L 1628 0 
Q 1531 -28 1426 -40 
Q 1322 -53 1200 -53 
Q 806 -53 665 148 
Q 525 350 525 672 
L 525 2888 
L 72 2888 
L 72 3347 
L 525 3347 
L 525 4281 
z
" transform="scale(0.015625)"/>
       <path id="Helvetica-4c" d="M 413 3331 
L 984 3331 
L 984 0 
L 413 0 
L 413 3331 
z
M 413 4591 
L 984 4591 
L 984 3953 
L 413 3953 
L 413 4591 
z
" transform="scale(0.015625)"/>
       <path id="Helvetica-50" d="M 413 3347 
L 969 3347 
L 969 2872 
Q 1169 3119 1331 3231 
Q 1609 3422 1963 3422 
Q 2363 3422 2606 3225 
Q 2744 3113 2856 2894 
Q 3044 3163 3297 3292 
Q 3550 3422 3866 3422 
Q 4541 3422 4784 2934 
Q 4916 2672 4916 2228 
L 4916 0 
L 4331 0 
L 4331 2325 
Q 4331 2659 4164 2784 
Q 3997 2909 3756 2909 
Q 3425 2909 3186 2687 
Q 2947 2466 2947 1947 
L 2947 0 
L 2375 0 
L 2375 2184 
Q 2375 2525 2294 2681 
Q 2166 2916 1816 2916 
Q 1497 2916 1236 2669 
Q 975 2422 975 1775 
L 975 0 
L 413 0 
L 413 3347 
z
" transform="scale(0.015625)"/>
       <path id="Helvetica-48" d="M 1806 3422 
Q 2163 3422 2497 3255 
Q 2831 3088 3006 2822 
Q 3175 2569 3231 2231 
Q 3281 2000 3281 1494 
L 828 1494 
Q 844 984 1069 676 
Q 1294 369 1766 369 
Q 2206 369 2469 659 
Q 2619 828 2681 1050 
L 3234 1050 
Q 3213 866 3089 639 
Q 2966 413 2813 269 
Q 2556 19 2178 -69 
Q 1975 -119 1719 -119 
Q 1094 -119 659 336 
Q 225 791 225 1609 
Q 225 2416 662 2919 
Q 1100 3422 1806 3422 
z
M 2703 1941 
Q 2669 2306 2544 2525 
Q 2313 2931 1772 2931 
Q 1384 2931 1121 2651 
Q 859 2372 844 1941 
L 2703 1941 
z
M 1753 3428 
L 1753 3428 
z
" transform="scale(0.015625)"/>
      </defs>
      <use xlink:href="#Helvetica-57"/>
      <use xlink:href="#Helvetica-4c" transform="translate(27.78125 0)"/>
      <use xlink:href="#Helvetica-50" transform="translate(50 0)"/>
      <use xlink:href="#Helvetica-48" transform="translate(133.296875 0)"/>
     </g>
    </g>
   </g>
   <g id="matplotlib.axis_2">
    <g id="ytick_1">
     <g id="line2d_15">
      <path d="M 33.670508 190.502361 
L 272.08869 190.502361 
" clip-path="url(#p5652fd8685)" style="fill: none; stroke: #cbd5e1; stroke-opacity: 0.7; stroke-width: 0.5; stroke-linecap: square"/>
     </g>
     <g id="line2d_16">
      <defs>
       <path id="m47d585fd10" d="M 0 0 
L -2.5 0 
" style="stroke: #64748b; stroke-width: 0.8"/>
      </defs>
      <g>
       <use xlink:href="#m47d585fd10" x="33.670508" y="190.502361" style="fill: #64748b; stroke: #64748b; stroke-width: 0.8"/>
      </g>
     </g>
     <g id="text_9">
      <!-- −1 -->
      <g style="fill: #64748b" transform="translate(17.97918 193.689861) scale(0.085 -0.085)">
       <defs>
        <path id="Helvetica-ef" d="M 3547 1894 
L 3547 1369 
L 288 1369 
L 288 1894 
L 3547 1894 
z
" transform="scale(0.015625)"/>
       </defs>
       <use xlink:href="#Helvetica-ef"/>
       <use xlink:href="#Helvetica-14" transform="translate(58.40625 0)"/>
      </g>
     </g>
    </g>
    <g id="ytick_2">
     <g id="line2d_17">
      <path d="M 33.670508 166.158387 
L 272.08869 166.158387 
" clip-path="url(#p5652fd8685)" style="fill: none; stroke: #cbd5e1; stroke-opacity: 0.7; stroke-width: 0.5; stroke-linecap: square"/>
     </g>
     <g id="line2d_18">
      <g>
       <use xlink:href="#m47d585fd10" x="33.670508" y="166.158387" style="fill: #64748b; stroke: #64748b; stroke-width: 0.8"/>
      </g>
     </g>
     <g id="text_10">
      <!-- 0 -->
      <g style="fill: #64748b" transform="translate(22.943711 169.345887) scale(0.085 -0.085)">
       <use xlink:href="#Helvetica-13"/>
      </g>
     </g>
    </g>
    <g id="ytick_3">
     <g id="line2d_19">
      <path d="M 33.670508 141.814413 
L 272.08869 141.814413 
" clip-path="url(#p5652fd8685)" style="fill: none; stroke: #cbd5e1; stroke-opacity: 0.7; stroke-width: 0.5; stroke-linecap: square"/>
     </g>
     <g id="line2d_20">
      <g>
       <use xlink:href="#m47d585fd10" x="33.670508" y="141.814413" style="fill: #64748b; stroke: #64748b; stroke-width: 0.8"/>
      </g>
     </g>
     <g id="text_11">
      <!-- 1 -->
      <g style="fill: #64748b" transform="translate(22.943711 145.001913) scale(0.085 -0.085)">
       <use xlink:href="#Helvetica-14"/>
      </g>
     </g>
    </g>
    <g id="ytick_4">
     <g id="line2d_21">
      <path d="M 33.670508 117.470439 
L 272.08869 117.470439 
" clip-path="url(#p5652fd8685)" style="fill: none; stroke: #cbd5e1; stroke-opacity: 0.7; stroke-width: 0.5; stroke-linecap: square"/>
     </g>
     <g id="line2d_22">
      <g>
       <use xlink:href="#m47d585fd10" x="33.670508" y="117.470439" style="fill: #64748b; stroke: #64748b; stroke-width: 0.8"/>
      </g>
     </g>
     <g id="text_12">
      <!-- 2 -->
      <g style="fill: #64748b" transform="translate(22.943711 120.657939) scale(0.085 -0.085)">
       <use xlink:href="#Helvetica-15"/>
      </g>
     </g>
    </g>
    <g id="ytick_5">
     <g id="line2d_23">
      <path d="M 33.670508 93.126465 
L 272.08869 93.126465 
" clip-path="url(#p5652fd8685)" style="fill: none; stroke: #cbd5e1; stroke-opacity: 0.7; stroke-width: 0.5; stroke-linecap: square"/>
     </g>
     <g id="line2d_24">
      <g>
       <use xlink:href="#m47d585fd10" x="33.670508" y="93.126465" style="fill: #64748b; stroke: #64748b; stroke-width: 0.8"/>
      </g>
     </g>
     <g id="text_13">
      <!-- 3 -->
      <g style="fill: #64748b" transform="translate(22.943711 96.313965) scale(0.085 -0.085)">
       <use xlink:href="#Helvetica-16"/>
      </g>
     </g>
    </g>
    <g id="ytick_6">
     <g id="line2d_25">
      <path d="M 33.670508 68.782491 
L 272.08869 68.782491 
" clip-path="url(#p5652fd8685)" style="fill: none; stroke: #cbd5e1; stroke-opacity: 0.7; stroke-width: 0.5; stroke-linecap: square"/>
     </g>
     <g id="line2d_26">
      <g>
       <use xlink:href="#m47d585fd10" x="33.670508" y="68.782491" style="fill: #64748b; stroke: #64748b; stroke-width: 0.8"/>
      </g>
     </g>
     <g id="text_14">
      <!-- 4 -->
      <g style="fill: #64748b" transform="translate(22.943711 71.969991) scale(0.085 -0.085)">
       <use xlink:href="#Helvetica-17"/>
      </g>
     </g>
    </g>
    <g id="ytick_7">
     <g id="line2d_27">
      <path d="M 33.670508 44.438517 
L 272.08869 44.438517 
" clip-path="url(#p5652fd8685)" style="fill: none; stroke: #cbd5e1; stroke-opacity: 0.7; stroke-width: 0.5; stroke-linecap: square"/>
     </g>
     <g id="line2d_28">
      <g>
       <use xlink:href="#m47d585fd10" x="33.670508" y="44.438517" style="fill: #64748b; stroke: #64748b; stroke-width: 0.8"/>
      </g>
     </g>
     <g id="text_15">
      <!-- 5 -->
      <g style="fill: #64748b" transform="translate(22.943711 47.626017) scale(0.085 -0.085)">
       <use xlink:href="#Helvetica-18"/>
      </g>
     </g>
    </g>
    <g id="ytick_8">
     <g id="line2d_29">
      <path d="M 33.670508 20.094543 
L 272.08869 20.094543 
" clip-path="url(#p5652fd8685)" style="fill: none; stroke: #cbd5e1; stroke-opacity: 0.7; stroke-width: 0.5; stroke-linecap: square"/>
     </g>
     <g id="line2d_30">
      <g>
       <use xlink:href="#m47d585fd10" x="33.670508" y="20.094543" style="fill: #64748b; stroke: #64748b; stroke-width: 0.8"/>
      </g>
     </g>
     <g id="text_16">
      <!-- 6 -->
      <g style="fill: #64748b" transform="translate(22.943711 23.282043) scale(0.085 -0.085)">
       <use xlink:href="#Helvetica-19"/>
      </g>
     </g>
    </g>
    <g id="text_17">
     <!-- value -->
     <g style="fill: #1e293b" transform="translate(12.195 127.764961) rotate(-90) scale(0.105 -0.105)">
      <defs>
       <path id="Helvetica-59" d="M 688 3347 
L 1581 622 
L 2516 3347 
L 3131 3347 
L 1869 0 
L 1269 0 
L 34 3347 
L 688 3347 
z
" transform="scale(0.015625)"/>
       <path id="Helvetica-44" d="M 844 891 
Q 844 647 1022 506 
Q 1200 366 1444 366 
Q 1741 366 2019 503 
Q 2488 731 2488 1250 
L 2488 1703 
Q 2384 1638 2221 1594 
Q 2059 1550 1903 1531 
L 1563 1488 
Q 1256 1447 1103 1359 
Q 844 1213 844 891 
z
M 2206 2028 
Q 2400 2053 2466 2191 
Q 2503 2266 2503 2406 
Q 2503 2694 2298 2823 
Q 2094 2953 1713 2953 
Q 1272 2953 1088 2716 
Q 984 2584 953 2325 
L 428 2325 
Q 444 2944 830 3186 
Q 1216 3428 1725 3428 
Q 2316 3428 2684 3203 
Q 3050 2978 3050 2503 
L 3050 575 
Q 3050 488 3086 434 
Q 3122 381 3238 381 
Q 3275 381 3322 386 
Q 3369 391 3422 400 
L 3422 -16 
Q 3291 -53 3222 -62 
Q 3153 -72 3034 -72 
Q 2744 -72 2613 134 
Q 2544 244 2516 444 
Q 2344 219 2022 53 
Q 1700 -113 1313 -113 
Q 847 -113 551 170 
Q 256 453 256 878 
Q 256 1344 547 1600 
Q 838 1856 1309 1916 
L 2206 2028 
z
M 1741 3428 
L 1741 3428 
z
" transform="scale(0.015625)"/>
       <path id="Helvetica-4f" d="M 428 4591 
L 991 4591 
L 991 0 
L 428 0 
L 428 4591 
z
" transform="scale(0.015625)"/>
       <path id="Helvetica-58" d="M 975 3347 
L 975 1125 
Q 975 869 1056 706 
Q 1206 406 1616 406 
Q 2203 406 2416 931 
Q 2531 1213 2531 1703 
L 2531 3347 
L 3094 3347 
L 3094 0 
L 2563 0 
L 2569 494 
Q 2459 303 2297 172 
Q 1975 -91 1516 -91 
Q 800 -91 541 388 
Q 400 644 400 1072 
L 400 3347 
L 975 3347 
z
M 1747 3428 
L 1747 3428 
z
" transform="scale(0.015625)"/>
      </defs>
      <use xlink:href="#Helvetica-59"/>
      <use xlink:href="#Helvetica-44" transform="translate(50 0)"/>
      <use xlink:href="#Helvetica-4f" transform="translate(105.609375 0)"/>
      <use xlink:href="#Helvetica-58" transform="translate(127.828125 0)"/>
      <use xlink:href="#Helvetica-48" transform="translate(183.4375 0)"/>
     </g>
    </g>
   </g>
   <g id="line2d_31">
    <path d="M 44.507698 172.470692 
L 44.869541 180.402308 
L 45.231383 154.742161 
L 45.593226 158.826644 
L 45.955069 156.439447 
L 46.316912 134.791917 
L 46.678754 130.947767 
L 47.040597 129.043616 
L 47.40244 125.314169 
L 47.764283 125.610448 
L 48.126125 96.883559 
L 48.487968 133.315383 
L 49.211654 111.091821 
L 49.573496 110.31782 
L 49.935339 124.752589 
L 50.297182 121.488712 
L 50.659024 128.486719 
L 51.020867 114.334832 
L 51.38271 116.305742 
L 51.744553 114.695731 
L 52.106395 127.559151 
L 52.468238 115.825288 
L 52.830081 120.278048 
L 53.191924 129.364175 
L 53.553766 129.023052 
L 53.915609 129.601111 
L 54.277452 132.116311 
L 54.639295 148.108097 
L 55.001137 153.869179 
L 55.36298 153.971447 
L 55.724823 139.445166 
L 56.086666 155.894837 
L 56.448508 158.776856 
L 56.810351 152.30272 
L 57.172194 149.581736 
L 57.534037 152.223785 
L 57.895879 156.916297 
L 58.257722 167.905913 
L 58.619565 161.117047 
L 58.981408 163.813186 
L 59.34325 160.771324 
L 59.705093 170.665377 
L 60.066936 154.893026 
L 60.428778 149.266997 
L 60.790621 148.824802 
L 61.152464 156.635153 
L 61.514307 158.352523 
L 61.876149 133.518011 
L 62.237992 141.437784 
L 62.599835 122.919123 
L 62.961678 96.721358 
L 63.32352 114.267574 
L 63.685363 114.964286 
L 64.047206 92.111764 
L 64.409049 94.665076 
L 64.770891 87.203729 
L 65.132734 89.878387 
L 65.494577 80.709369 
L 65.85642 65.047974 
L 66.218262 77.334061 
L 66.580105 77.147071 
L 66.941948 73.998552 
L 67.303791 74.653999 
L 67.665633 66.934987 
L 68.027476 65.907366 
L 68.389319 63.396682 
L 68.751162 91.620985 
L 69.113004 90.939344 
L 69.474847 109.501865 
L 69.83669 92.322128 
L 70.198532 113.0556 
L 70.560375 108.927269 
L 70.922218 98.496065 
L 71.645903 122.996216 
L 72.007746 126.822088 
L 72.369589 131.992552 
L 72.731432 129.616389 
L 73.093274 118.086312 
L 73.455117 152.24799 
L 73.81696 142.000347 
L 74.540645 163.609529 
L 74.902488 156.967533 
L 75.264331 160.777263 
L 75.626174 172.751429 
L 75.988016 173.220106 
L 76.349859 162.475792 
L 76.711702 170.253038 
L 77.073545 169.127753 
L 77.435387 170.45451 
L 77.79723 158.233229 
L 78.159073 155.2044 
L 78.520916 144.967109 
L 78.882758 131.04892 
L 79.244601 142.977176 
L 79.606444 146.840492 
L 79.968286 133.752404 
L 80.691972 124.612486 
L 81.053815 108.226833 
L 81.415657 115.036348 
L 81.7775 108.459304 
L 82.139343 110.004642 
L 82.501186 106.090311 
L 82.863028 94.13794 
L 83.224871 106.263546 
L 83.586714 88.925122 
L 84.310399 103.102893 
L 85.034085 78.443097 
L 85.395928 77.195176 
L 85.75777 88.526885 
L 86.119613 86.388365 
L 86.481456 102.052078 
L 86.843299 95.600117 
L 87.205141 112.967476 
L 87.566984 113.29727 
L 87.928827 105.198191 
L 88.29067 109.961805 
L 88.652512 113.245317 
L 89.014355 109.691855 
L 89.376198 103.230535 
L 89.73804 118.478624 
L 90.099883 117.69275 
L 90.461726 134.867006 
L 90.823569 144.045523 
L 91.185411 127.036463 
L 91.547254 150.798115 
L 91.909097 150.443281 
L 92.27094 158.12896 
L 92.632782 143.38782 
L 93.356468 145.089793 
L 93.718311 154.419209 
L 94.080153 147.3859 
L 94.441996 151.962141 
L 94.803839 163.289323 
L 95.165682 154.489553 
L 95.527524 149.391013 
L 95.889367 150.427674 
L 96.25121 142.874936 
L 96.613053 128.657169 
L 97.336738 124.967309 
L 97.698581 116.220828 
L 98.060424 113.827373 
L 98.784109 101.066136 
L 99.145952 105.43029 
L 99.507794 83.477891 
L 99.869637 96.018149 
L 100.23148 91.131671 
L 100.593323 93.322408 
L 100.955165 71.929903 
L 101.317008 66.752511 
L 101.678851 58.189258 
L 102.040694 59.064827 
L 102.402536 46.621044 
L 102.764379 68.264581 
L 103.126222 53.267424 
L 103.488065 71.814381 
L 103.849907 58.561192 
L 104.21175 53.821166 
L 104.573593 82.870054 
L 104.935436 57.824133 
L 105.659121 98.044077 
L 106.020964 81.934633 
L 106.382807 84.424799 
L 106.744649 77.301163 
L 107.106492 107.609096 
L 107.468335 124.956185 
L 107.830178 106.719006 
L 108.553863 115.267667 
L 109.277548 89.993199 
L 109.639391 104.63013 
L 110.001234 94.916523 
L 110.724919 121.070462 
L 111.086762 124.985894 
L 111.448605 104.937155 
L 111.810448 107.583441 
L 112.17229 109.165712 
L 112.534133 118.5559 
L 112.895976 111.582731 
L 113.257819 101.635984 
L 113.619661 114.417569 
L 113.981504 107.169044 
L 114.343347 89.59264 
L 114.70519 105.670834 
L 115.067032 94.339379 
L 115.428875 105.153783 
L 115.790718 108.281346 
L 116.152561 98.993488 
L 116.514403 104.705406 
L 116.876246 88.053417 
L 117.238089 92.194923 
L 117.599932 83.924185 
L 117.961774 94.390517 
L 118.323617 75.716056 
L 118.68546 82.76491 
L 119.409145 84.990309 
L 119.770988 85.142569 
L 120.132831 69.404334 
L 120.494673 80.208786 
L 121.218359 56.50816 
L 121.580202 86.713308 
L 121.942044 71.73008 
L 122.303887 78.340117 
L 123.027573 69.185622 
L 123.389415 89.569671 
L 123.751258 72.209764 
L 124.113101 85.546512 
L 124.474944 74.450244 
L 124.836786 84.84849 
L 125.198629 83.717795 
L 125.560472 82.169055 
L 125.922315 74.154512 
L 126.284157 106.683593 
L 126.646 121.65525 
L 127.007843 105.335625 
L 127.369686 116.568777 
L 127.731528 108.408741 
L 128.093371 106.235749 
L 128.455214 110.382908 
L 128.817056 120.826536 
L 129.178899 119.030914 
L 129.540742 115.502303 
L 129.902585 114.899986 
L 130.264427 135.481056 
L 130.62627 116.573394 
L 130.988113 137.880573 
L 131.349956 130.304604 
L 131.711798 120.117931 
L 132.073641 128.676459 
L 132.435484 129.249713 
L 132.797327 108.727426 
L 133.159169 104.080523 
L 133.521012 121.932598 
L 133.882855 104.909776 
L 134.244698 98.297754 
L 134.60654 86.924624 
L 134.968383 89.669494 
L 135.330226 81.436887 
L 135.692069 76.282715 
L 136.053911 77.907071 
L 136.415754 61.252852 
L 136.777597 79.276615 
L 137.13944 78.824919 
L 137.501282 89.559682 
L 137.863125 83.515353 
L 138.224968 80.440798 
L 138.58681 67.780754 
L 138.948653 78.765744 
L 139.310496 85.486779 
L 139.672339 69.353819 
L 140.034181 80.896506 
L 140.396024 68.941681 
L 140.757867 79.115364 
L 141.11971 78.40368 
L 141.481552 89.494725 
L 141.843395 88.704018 
L 142.205238 83.076323 
L 142.567081 85.227313 
L 142.928923 111.957473 
L 143.290766 106.280302 
L 143.652609 112.611865 
L 144.014452 107.089417 
L 145.09998 129.096717 
L 145.461823 132.916872 
L 145.823665 157.96719 
L 146.185508 143.433456 
L 146.547351 148.406566 
L 146.909194 159.207013 
L 147.632879 170.630444 
L 147.994722 168.673752 
L 148.356564 174.170013 
L 148.718407 192.164503 
L 149.08025 171.521316 
L 149.442093 164.883152 
L 149.803935 151.908141 
L 150.165778 149.102628 
L 150.527621 152.306695 
L 150.889464 148.801979 
L 151.613149 127.531726 
L 151.974992 124.383954 
L 152.336835 137.598876 
L 152.698677 123.086546 
L 153.06052 127.615841 
L 153.422363 121.306193 
L 153.784206 119.524633 
L 154.146048 108.041178 
L 154.507891 113.931152 
L 154.869734 107.657233 
L 155.231577 116.707318 
L 155.593419 98.071433 
L 155.955262 96.709675 
L 156.317105 102.198215 
L 156.678947 102.009563 
L 157.04079 101.969625 
L 157.402633 86.864481 
L 157.764476 88.940879 
L 158.488161 98.746497 
L 158.850004 99.135436 
L 159.211847 105.259107 
L 159.573689 106.687236 
L 159.935532 109.976776 
L 160.297375 102.582513 
L 160.659218 117.515726 
L 161.02106 124.944863 
L 161.382903 117.318709 
L 161.744746 128.082788 
L 162.106589 147.74247 
L 162.468431 139.855578 
L 162.830274 153.329884 
L 163.192117 138.157044 
L 163.55396 155.897906 
L 163.915802 166.356409 
L 164.277645 169.032453 
L 164.639488 166.30717 
L 165.001331 188.652885 
L 165.363173 191.9693 
L 165.725016 182.663565 
L 166.448701 191.918333 
L 166.810544 184.080804 
L 167.172387 203.415 
L 167.53423 189.303678 
L 167.896072 181.614098 
L 168.257915 179.375859 
L 168.619758 191.500311 
L 168.981601 176.027129 
L 169.343443 168.326778 
L 169.705286 166.350522 
L 170.428972 146.758412 
L 170.790814 162.023215 
L 171.152657 142.268738 
L 171.5145 143.897328 
L 171.876343 137.392633 
L 172.238185 133.574976 
L 172.600028 140.425118 
L 173.323714 105.023158 
L 173.685556 98.45367 
L 174.047399 106.129022 
L 174.409242 104.492587 
L 174.771085 104.029569 
L 175.132927 84.128322 
L 175.49477 78.202021 
L 175.856613 92.790232 
L 176.218455 113.613596 
L 176.580298 89.7511 
L 176.942141 78.69818 
L 177.303984 99.65037 
L 177.665826 102.996193 
L 178.027669 117.059909 
L 178.389512 106.690397 
L 178.751355 92.46758 
L 179.113197 100.597603 
L 179.47504 130.847152 
L 179.836883 133.847892 
L 180.198726 130.928984 
L 180.922411 160.732098 
L 181.284254 146.680047 
L 181.646097 161.431222 
L 182.007939 158.203182 
L 182.369782 162.108316 
L 182.731625 162.504769 
L 183.093468 166.380645 
L 183.45531 172.603513 
L 183.817153 170.40952 
L 184.178996 176.173956 
L 184.540839 160.412885 
L 184.902681 157.900067 
L 185.264524 158.731047 
L 185.626367 156.088884 
L 185.988209 149.793148 
L 186.350052 167.191143 
L 186.711895 164.416341 
L 187.073738 144.79186 
L 187.43558 160.898795 
L 188.159266 141.708623 
L 188.521109 137.810382 
L 188.882951 149.862952 
L 189.244794 127.908589 
L 189.606637 118.043144 
L 189.96848 121.176454 
L 190.330322 115.128801 
L 190.692165 96.445482 
L 191.054008 103.055798 
L 191.415851 103.573268 
L 191.777693 94.695084 
L 192.139536 92.103366 
L 192.501379 97.335195 
L 192.863222 112.359263 
L 193.225064 98.585244 
L 193.586907 90.193003 
L 193.94875 84.972437 
L 194.310593 90.70255 
L 194.672435 74.635286 
L 195.034278 105.765802 
L 195.396121 106.704849 
L 195.757963 105.221594 
L 196.119806 100.501257 
L 196.481649 120.856948 
L 196.843492 115.746453 
L 197.205334 129.010744 
L 197.567177 128.263896 
L 197.92902 128.443666 
L 198.290863 133.039722 
L 199.014548 147.840965 
L 199.376391 148.568511 
L 199.738234 120.921814 
L 200.100076 149.665045 
L 200.461919 136.337813 
L 200.823762 138.322722 
L 201.185605 146.971419 
L 201.547447 151.618787 
L 201.90929 161.968504 
L 202.271133 154.189877 
L 202.632976 163.04803 
L 203.356661 136.723729 
L 203.718504 136.37813 
L 204.080347 154.708445 
L 204.442189 136.645655 
L 204.804032 135.909984 
L 205.165875 141.959015 
L 205.527717 123.498243 
L 205.88956 141.456082 
L 206.613246 103.516531 
L 206.975088 103.443593 
L 207.336931 124.822644 
L 208.784302 80.472629 
L 209.146145 79.496226 
L 209.507988 66.361657 
L 209.86983 83.108139 
L 210.593516 66.285722 
L 210.955359 73.748153 
L 211.317201 91.971768 
L 211.679044 78.683861 
L 212.040887 77.12124 
L 212.40273 83.106732 
L 212.764572 91.037025 
L 213.126415 84.023046 
L 213.488258 93.979427 
L 213.850101 107.228641 
L 214.211943 86.148942 
L 214.573786 89.425933 
L 215.297471 93.678245 
L 215.659314 101.730524 
L 216.021157 97.980632 
L 216.383 105.907232 
L 216.744842 96.928054 
L 217.106685 107.658414 
L 217.468528 100.306414 
L 217.830371 126.54605 
L 218.192213 130.072584 
L 218.554056 127.257801 
L 218.915899 126.697105 
L 219.639584 130.998267 
L 220.001427 131.163806 
L 220.36327 123.246935 
L 220.725113 122.418618 
L 221.086955 119.664986 
L 221.448798 142.647028 
L 221.810641 130.206693 
L 222.172484 136.837983 
L 222.534326 133.117739 
L 222.896169 137.867513 
L 223.619855 119.193648 
L 223.981697 115.177372 
L 224.34354 124.061897 
L 224.705383 129.249853 
L 225.067225 97.935997 
L 225.429068 100.482122 
L 225.790911 104.141357 
L 226.152754 80.563607 
L 226.514596 97.688128 
L 226.876439 64.466082 
L 227.238282 61.368042 
L 227.600125 40.345839 
L 228.32381 60.689178 
L 228.685653 43.036646 
L 229.047496 52.262173 
L 229.409338 46.048961 
L 229.771181 36.226966 
L 230.133024 34.089502 
L 230.494867 46.923493 
L 230.856709 48.119481 
L 231.218552 32.990634 
L 231.580395 56.529124 
L 231.942238 41.096729 
L 232.30408 36.133179 
L 232.665923 65.437677 
L 233.027766 58.784528 
L 233.751451 85.314968 
L 234.113294 74.010656 
L 234.475137 79.4637 
L 234.836979 94.564515 
L 235.198822 103.082318 
L 235.560665 91.547256 
L 235.922508 96.49361 
L 236.28435 103.845647 
L 236.646193 117.717227 
L 237.008036 114.822838 
L 237.369879 116.749338 
L 237.731721 120.94948 
L 238.093564 109.420256 
L 238.455407 123.263604 
L 238.81725 107.953726 
L 239.179092 110.835356 
L 239.540935 115.07262 
L 239.902778 116.583458 
L 240.264621 118.7473 
L 240.626463 113.967935 
L 240.988306 99.140075 
L 241.711992 110.624472 
L 242.073834 90.716715 
L 242.435677 93.878577 
L 242.79752 90.723132 
L 243.159363 92.554093 
L 243.521205 90.482825 
L 243.883048 93.456772 
L 244.244891 81.122406 
L 244.606733 72.987607 
L 244.968576 75.659872 
L 245.330419 64.144633 
L 245.692262 61.110592 
L 246.054104 56.794932 
L 246.415947 49.714898 
L 246.77779 57.570326 
L 247.139633 39.643084 
L 247.501475 35.345501 
L 248.225161 44.677137 
L 248.587004 43.700796 
L 248.948846 27.015 
L 249.310689 43.551766 
L 250.034375 52.968999 
L 250.396217 53.297352 
L 250.75806 50.040653 
L 251.119903 53.657953 
L 251.481746 51.010945 
L 252.205431 78.689768 
L 252.567274 74.963041 
L 252.929117 84.674073 
L 253.290959 69.606399 
L 253.652802 98.893172 
L 254.014645 95.470606 
L 254.376487 107.240086 
L 254.73833 101.401795 
L 255.100173 89.670932 
L 255.462016 98.884576 
L 255.823858 104.849689 
L 256.185701 89.833198 
L 256.547544 93.390174 
L 256.909387 94.210926 
L 257.271229 104.815945 
L 257.633072 104.538451 
L 258.7186 93.691817 
L 259.080443 78.539607 
L 259.442286 71.394891 
L 259.804129 77.085131 
L 260.165971 76.833288 
L 260.527814 49.269997 
L 260.889657 50.872989 
L 261.2515 43.627395 
L 261.2515 43.627395 
" clip-path="url(#p5652fd8685)" style="fill: none; stroke: #2563eb; stroke-width: 1.1; stroke-linecap: square"/>
   </g>
   <g id="patch_3">
    <path d="M 33.670508 212.235 
L 33.670508 18.195 
" style="fill: none; stroke: #64748b; stroke-width: 0.9; stroke-linejoin: miter; stroke-linecap: square"/>
   </g>
   <g id="patch_4">
    <path d="M 33.670508 212.235 
L 272.08869 212.235 
" style="fill: none; stroke: #64748b; stroke-width: 0.9; stroke-linejoin: miter; stroke-linecap: square"/>
   </g>
   <g id="text_18">
    <!-- A series with trend, season and a walk -->
    <g style="fill: #1e293b" transform="translate(63.583661 12.195) scale(0.105 -0.105)">
     <defs>
      <path id="Helvetica-24" d="M 2844 1881 
L 2147 3909 
L 1406 1881 
L 2844 1881 
z
M 1822 4591 
L 2525 4591 
L 4191 0 
L 3509 0 
L 3044 1375 
L 1228 1375 
L 731 0 
L 94 0 
L 1822 4591 
z
" transform="scale(0.015625)"/>
      <path id="Helvetica-3" transform="scale(0.015625)"/>
      <path id="Helvetica-56" d="M 747 1050 
Q 772 769 888 619 
Q 1100 347 1625 347 
Q 1938 347 2175 483 
Q 2413 619 2413 903 
Q 2413 1119 2222 1231 
Q 2100 1300 1741 1391 
L 1294 1503 
Q 866 1609 663 1741 
Q 300 1969 300 2372 
Q 300 2847 642 3140 
Q 984 3434 1563 3434 
Q 2319 3434 2653 2991 
Q 2863 2709 2856 2384 
L 2325 2384 
Q 2309 2575 2191 2731 
Q 1997 2953 1519 2953 
Q 1200 2953 1036 2831 
Q 872 2709 872 2509 
Q 872 2291 1088 2159 
Q 1213 2081 1456 2022 
L 1828 1931 
Q 2434 1784 2641 1647 
Q 2969 1431 2969 969 
Q 2969 522 2630 197 
Q 2291 -128 1597 -128 
Q 850 -128 539 211 
Q 228 550 206 1050 
L 747 1050 
z
M 1578 3428 
L 1578 3428 
z
" transform="scale(0.015625)"/>
      <path id="Helvetica-55" d="M 428 3347 
L 963 3347 
L 963 2769 
Q 1028 2938 1284 3180 
Q 1541 3422 1875 3422 
Q 1891 3422 1928 3419 
Q 1966 3416 2056 3406 
L 2056 2813 
Q 2006 2822 1964 2825 
Q 1922 2828 1872 2828 
Q 1447 2828 1219 2554 
Q 991 2281 991 1925 
L 991 0 
L 428 0 
L 428 3347 
z
" transform="scale(0.015625)"/>
      <path id="Helvetica-5a" d="M 672 3347 
L 1316 709 
L 1969 3347 
L 2600 3347 
L 3256 725 
L 3941 3347 
L 4503 3347 
L 3531 0 
L 2947 0 
L 2266 2591 
L 1606 0 
L 1022 0 
L 56 3347 
L 672 3347 
z
" transform="scale(0.015625)"/>
      <path id="Helvetica-4b" d="M 413 4606 
L 975 4606 
L 975 2894 
Q 1175 3147 1334 3250 
Q 1606 3428 2013 3428 
Q 2741 3428 3000 2919 
Q 3141 2641 3141 2147 
L 3141 0 
L 2563 0 
L 2563 2109 
Q 2563 2478 2469 2650 
Q 2316 2925 1894 2925 
Q 1544 2925 1259 2684 
Q 975 2444 975 1775 
L 975 0 
L 413 0 
L 413 4606 
z
" transform="scale(0.015625)"/>
      <path id="Helvetica-51" d="M 413 3347 
L 947 3347 
L 947 2872 
Q 1184 3166 1450 3294 
Q 1716 3422 2041 3422 
Q 2753 3422 3003 2925 
Q 3141 2653 3141 2147 
L 3141 0 
L 2569 0 
L 2569 2109 
Q 2569 2416 2478 2603 
Q 2328 2916 1934 2916 
Q 1734 2916 1606 2875 
Q 1375 2806 1200 2600 
Q 1059 2434 1017 2257 
Q 975 2081 975 1753 
L 975 0 
L 413 0 
L 413 3347 
z
M 1734 3428 
L 1734 3428 
z
" transform="scale(0.015625)"/>
      <path id="Helvetica-47" d="M 769 1634 
Q 769 1097 997 734 
Q 1225 372 1728 372 
Q 2119 372 2370 708 
Q 2622 1044 2622 1672 
Q 2622 2306 2362 2611 
Q 2103 2916 1722 2916 
Q 1297 2916 1033 2591 
Q 769 2266 769 1634 
z
M 1616 3406 
Q 2000 3406 2259 3244 
Q 2409 3150 2600 2916 
L 2600 4606 
L 3141 4606 
L 3141 0 
L 2634 0 
L 2634 466 
Q 2438 156 2169 18 
Q 1900 -119 1553 -119 
Q 994 -119 584 351 
Q 175 822 175 1603 
Q 175 2334 548 2870 
Q 922 3406 1616 3406 
z
" transform="scale(0.015625)"/>
      <path id="Helvetica-f" d="M 531 -653 
Q 747 -616 834 -350 
Q 881 -209 881 -78 
Q 881 -56 879 -39 
Q 878 -22 872 0 
L 531 0 
L 531 681 
L 1200 681 
L 1200 50 
Q 1200 -322 1050 -603 
Q 900 -884 531 -950 
L 531 -653 
z
" transform="scale(0.015625)"/>
      <path id="Helvetica-52" d="M 1741 363 
Q 2300 363 2508 786 
Q 2716 1209 2716 1728 
Q 2716 2197 2566 2491 
Q 2328 2953 1747 2953 
Q 1231 2953 997 2559 
Q 763 2166 763 1609 
Q 763 1075 997 719 
Q 1231 363 1741 363 
z
M 1763 3444 
Q 2409 3444 2856 3012 
Q 3303 2581 3303 1744 
Q 3303 934 2909 406 
Q 2516 -122 1688 -122 
Q 997 -122 590 345 
Q 184 813 184 1600 
Q 184 2444 612 2944 
Q 1041 3444 1763 3444 
z
M 1744 3428 
L 1744 3428 
z
" transform="scale(0.015625)"/>
      <path id="Helvetica-4e" d="M 400 4591 
L 941 4591 
L 941 1925 
L 2384 3347 
L 3103 3347 
L 1822 2094 
L 3175 0 
L 2456 0 
L 1413 1688 
L 941 1256 
L 941 0 
L 400 0 
L 400 4591 
z
" transform="scale(0.015625)"/>
     </defs>
     <use xlink:href="#Helvetica-24"/>
     <use xlink:href="#Helvetica-3" transform="translate(61.234375 0)"/>
     <use xlink:href="#Helvetica-56" transform="translate(89.015625 0)"/>
     <use xlink:href="#Helvetica-48" transform="translate(139.015625 0)"/>
     <use xlink:href="#Helvetica-55" transform="translate(194.625 0)"/>
     <use xlink:href="#Helvetica-4c" transform="translate(227.921875 0)"/>
     <use xlink:href="#Helvetica-48" transform="translate(250.140625 0)"/>
     <use xlink:href="#Helvetica-56" transform="translate(305.75 0)"/>
     <use xlink:href="#Helvetica-3" transform="translate(355.75 0)"/>
     <use xlink:href="#Helvetica-5a" transform="translate(383.53125 0)"/>
     <use xlink:href="#Helvetica-4c" transform="translate(455.75 0)"/>
     <use xlink:href="#Helvetica-57" transform="translate(477.96875 0)"/>
     <use xlink:href="#Helvetica-4b" transform="translate(505.75 0)"/>
     <use xlink:href="#Helvetica-3" transform="translate(561.359375 0)"/>
     <use xlink:href="#Helvetica-57" transform="translate(589.140625 0)"/>
     <use xlink:href="#Helvetica-55" transform="translate(616.921875 0)"/>
     <use xlink:href="#Helvetica-48" transform="translate(650.21875 0)"/>
     <use xlink:href="#Helvetica-51" transform="translate(705.828125 0)"/>
     <use xlink:href="#Helvetica-47" transform="translate(761.4375 0)"/>
     <use xlink:href="#Helvetica-f" transform="translate(817.046875 0)"/>
     <use xlink:href="#Helvetica-3" transform="translate(844.828125 0)"/>
     <use xlink:href="#Helvetica-56" transform="translate(872.609375 0)"/>
     <use xlink:href="#Helvetica-48" transform="translate(922.609375 0)"/>
     <use xlink:href="#Helvetica-44" transform="translate(978.21875 0)"/>
     <use xlink:href="#Helvetica-56" transform="translate(1033.828125 0)"/>
     <use xlink:href="#Helvetica-52" transform="translate(1083.828125 0)"/>
     <use xlink:href="#Helvetica-51" transform="translate(1139.4375 0)"/>
     <use xlink:href="#Helvetica-3" transform="translate(1195.046875 0)"/>
     <use xlink:href="#Helvetica-44" transform="translate(1222.828125 0)"/>
     <use xlink:href="#Helvetica-51" transform="translate(1278.4375 0)"/>
     <use xlink:href="#Helvetica-47" transform="translate(1334.046875 0)"/>
     <use xlink:href="#Helvetica-3" transform="translate(1389.65625 0)"/>
     <use xlink:href="#Helvetica-44" transform="translate(1417.4375 0)"/>
     <use xlink:href="#Helvetica-3" transform="translate(1473.046875 0)"/>
     <use xlink:href="#Helvetica-5a" transform="translate(1500.828125 0)"/>
     <use xlink:href="#Helvetica-44" transform="translate(1573.046875 0)"/>
     <use xlink:href="#Helvetica-4f" transform="translate(1628.65625 0)"/>
     <use xlink:href="#Helvetica-4e" transform="translate(1650.875 0)"/>
    </g>
   </g>
  </g>
  <g id="axes_2">
   <g id="patch_5">
    <path d="M 319.772326 212.235 
L 558.190508 212.235 
L 558.190508 18.195 
L 319.772326 18.195 
z
" style="fill: #ffffff"/>
   </g>
   <g id="matplotlib.axis_3">
    <g id="xtick_8">
     <g id="line2d_32">
      <path d="M 352.283896 212.235 
L 352.283896 18.195 
" clip-path="url(#p2ea5dd2464)" style="fill: none; stroke: #cbd5e1; stroke-opacity: 0.7; stroke-width: 0.5; stroke-linecap: square"/>
     </g>
     <g id="line2d_33">
      <g>
       <use xlink:href="#m7d68e68f4b" x="352.283896" y="212.235" style="fill: #64748b; stroke: #64748b; stroke-width: 0.8"/>
      </g>
     </g>
     <g id="text_19">
      <!-- random -->
      <g style="fill: #64748b" transform="translate(337.875068 224.736587) scale(0.085 -0.085)">
       <use xlink:href="#Helvetica-55"/>
       <use xlink:href="#Helvetica-44" transform="translate(33.296875 0)"/>
       <use xlink:href="#Helvetica-51" transform="translate(88.90625 0)"/>
       <use xlink:href="#Helvetica-47" transform="translate(144.515625 0)"/>
       <use xlink:href="#Helvetica-52" transform="translate(200.125 0)"/>
       <use xlink:href="#Helvetica-50" transform="translate(255.734375 0)"/>
      </g>
      <!-- split -->
      <g style="fill: #64748b" transform="translate(344.726201 232.809097) scale(0.085 -0.085)">
       <defs>
        <path id="Helvetica-53" d="M 1825 378 
Q 2219 378 2480 708 
Q 2741 1038 2741 1694 
Q 2741 2094 2625 2381 
Q 2406 2934 1825 2934 
Q 1241 2934 1025 2350 
Q 909 2038 909 1556 
Q 909 1169 1025 897 
Q 1244 378 1825 378 
z
M 369 3331 
L 916 3331 
L 916 2888 
Q 1084 3116 1284 3241 
Q 1569 3428 1953 3428 
Q 2522 3428 2919 2992 
Q 3316 2556 3316 1747 
Q 3316 653 2744 184 
Q 2381 -113 1900 -113 
Q 1522 -113 1266 53 
Q 1116 147 931 375 
L 931 -1334 
L 369 -1334 
L 369 3331 
z
" transform="scale(0.015625)"/>
       </defs>
       <use xlink:href="#Helvetica-56"/>
       <use xlink:href="#Helvetica-53" transform="translate(50 0)"/>
       <use xlink:href="#Helvetica-4f" transform="translate(105.609375 0)"/>
       <use xlink:href="#Helvetica-4c" transform="translate(127.828125 0)"/>
       <use xlink:href="#Helvetica-57" transform="translate(150.046875 0)"/>
      </g>
     </g>
    </g>
    <g id="xtick_9">
     <g id="line2d_34">
      <path d="M 438.981417 212.235 
L 438.981417 18.195 
" clip-path="url(#p2ea5dd2464)" style="fill: none; stroke: #cbd5e1; stroke-opacity: 0.7; stroke-width: 0.5; stroke-linecap: square"/>
     </g>
     <g id="line2d_35">
      <g>
       <use xlink:href="#m7d68e68f4b" x="438.981417" y="212.235" style="fill: #64748b; stroke: #64748b; stroke-width: 0.8"/>
      </g>
     </g>
     <g id="text_20">
      <!-- chronological -->
      <g style="fill: #64748b" transform="translate(413.93962 224.736587) scale(0.085 -0.085)">
       <defs>
        <path id="Helvetica-46" d="M 1703 3444 
Q 2269 3444 2623 3169 
Q 2978 2894 3050 2222 
L 2503 2222 
Q 2453 2531 2275 2736 
Q 2097 2941 1703 2941 
Q 1166 2941 934 2416 
Q 784 2075 784 1575 
Q 784 1072 996 728 
Q 1209 384 1666 384 
Q 2016 384 2220 598 
Q 2425 813 2503 1184 
L 3050 1184 
Q 2956 519 2581 211 
Q 2206 -97 1622 -97 
Q 966 -97 575 383 
Q 184 863 184 1581 
Q 184 2463 612 2953 
Q 1041 3444 1703 3444 
z
M 1616 3428 
L 1616 3428 
z
" transform="scale(0.015625)"/>
        <path id="Helvetica-4a" d="M 1594 3406 
Q 1988 3406 2281 3213 
Q 2441 3103 2606 2894 
L 2606 3316 
L 3125 3316 
L 3125 272 
Q 3125 -366 2938 -734 
Q 2588 -1416 1616 -1416 
Q 1075 -1416 706 -1173 
Q 338 -931 294 -416 
L 866 -416 
Q 906 -641 1028 -763 
Q 1219 -950 1628 -950 
Q 2275 -950 2475 -494 
Q 2594 -225 2584 466 
Q 2416 209 2178 84 
Q 1941 -41 1550 -41 
Q 1006 -41 598 345 
Q 191 731 191 1622 
Q 191 2463 602 2934 
Q 1013 3406 1594 3406 
z
M 2606 1688 
Q 2606 2309 2350 2609 
Q 2094 2909 1697 2909 
Q 1103 2909 884 2353 
Q 769 2056 769 1575 
Q 769 1009 998 714 
Q 1228 419 1616 419 
Q 2222 419 2469 966 
Q 2606 1275 2606 1688 
z
M 1659 3428 
L 1659 3428 
z
" transform="scale(0.015625)"/>
       </defs>
       <use xlink:href="#Helvetica-46"/>
       <use xlink:href="#Helvetica-4b" transform="translate(50 0)"/>
       <use xlink:href="#Helvetica-55" transform="translate(105.609375 0)"/>
       <use xlink:href="#Helvetica-52" transform="translate(138.90625 0)"/>
       <use xlink:href="#Helvetica-51" transform="translate(194.515625 0)"/>
       <use xlink:href="#Helvetica-52" transform="translate(250.125 0)"/>
       <use xlink:href="#Helvetica-4f" transform="translate(305.734375 0)"/>
       <use xlink:href="#Helvetica-52" transform="translate(327.953125 0)"/>
       <use xlink:href="#Helvetica-4a" transform="translate(383.5625 0)"/>
       <use xlink:href="#Helvetica-4c" transform="translate(439.171875 0)"/>
       <use xlink:href="#Helvetica-46" transform="translate(461.390625 0)"/>
       <use xlink:href="#Helvetica-44" transform="translate(511.390625 0)"/>
       <use xlink:href="#Helvetica-4f" transform="translate(567 0)"/>
      </g>
      <!-- split -->
      <g style="fill: #64748b" transform="translate(431.423722 233.245386) scale(0.085 -0.085)">
       <use xlink:href="#Helvetica-56"/>
       <use xlink:href="#Helvetica-53" transform="translate(50 0)"/>
       <use xlink:href="#Helvetica-4f" transform="translate(105.609375 0)"/>
       <use xlink:href="#Helvetica-4c" transform="translate(127.828125 0)"/>
       <use xlink:href="#Helvetica-57" transform="translate(150.046875 0)"/>
      </g>
     </g>
    </g>
    <g id="xtick_10">
     <g id="line2d_36">
      <path d="M 525.678938 212.235 
L 525.678938 18.195 
" clip-path="url(#p2ea5dd2464)" style="fill: none; stroke: #cbd5e1; stroke-opacity: 0.7; stroke-width: 0.5; stroke-linecap: square"/>
     </g>
     <g id="line2d_37">
      <g>
       <use xlink:href="#m7d68e68f4b" x="525.678938" y="212.235" style="fill: #64748b; stroke: #64748b; stroke-width: 0.8"/>
      </g>
     </g>
     <g id="text_21">
      <!-- last value -->
      <g style="fill: #64748b" transform="translate(507.725344 224.736587) scale(0.085 -0.085)">
       <use xlink:href="#Helvetica-4f"/>
       <use xlink:href="#Helvetica-44" transform="translate(22.21875 0)"/>
       <use xlink:href="#Helvetica-56" transform="translate(77.828125 0)"/>
       <use xlink:href="#Helvetica-57" transform="translate(127.828125 0)"/>
       <use xlink:href="#Helvetica-3" transform="translate(155.609375 0)"/>
       <use xlink:href="#Helvetica-59" transform="translate(183.390625 0)"/>
       <use xlink:href="#Helvetica-44" transform="translate(233.390625 0)"/>
       <use xlink:href="#Helvetica-4f" transform="translate(289 0)"/>
       <use xlink:href="#Helvetica-58" transform="translate(311.21875 0)"/>
       <use xlink:href="#Helvetica-48" transform="translate(366.828125 0)"/>
      </g>
      <!-- baseline -->
      <g style="fill: #64748b" transform="translate(509.848352 232.809097) scale(0.085 -0.085)">
       <defs>
        <path id="Helvetica-45" d="M 369 4606 
L 916 4606 
L 916 2941 
Q 1100 3181 1356 3307 
Q 1613 3434 1913 3434 
Q 2538 3434 2927 3004 
Q 3316 2575 3316 1738 
Q 3316 944 2931 419 
Q 2547 -106 1866 -106 
Q 1484 -106 1222 78 
Q 1066 188 888 428 
L 888 0 
L 369 0 
L 369 4606 
z
M 1831 391 
Q 2288 391 2514 753 
Q 2741 1116 2741 1709 
Q 2741 2238 2514 2584 
Q 2288 2931 1847 2931 
Q 1463 2931 1173 2647 
Q 884 2363 884 1709 
Q 884 1238 1003 944 
Q 1225 391 1831 391 
z
" transform="scale(0.015625)"/>
       </defs>
       <use xlink:href="#Helvetica-45"/>
       <use xlink:href="#Helvetica-44" transform="translate(55.609375 0)"/>
       <use xlink:href="#Helvetica-56" transform="translate(111.21875 0)"/>
       <use xlink:href="#Helvetica-48" transform="translate(161.21875 0)"/>
       <use xlink:href="#Helvetica-4f" transform="translate(216.828125 0)"/>
       <use xlink:href="#Helvetica-4c" transform="translate(239.046875 0)"/>
       <use xlink:href="#Helvetica-51" transform="translate(261.265625 0)"/>
       <use xlink:href="#Helvetica-48" transform="translate(316.875 0)"/>
      </g>
     </g>
    </g>
   </g>
   <g id="matplotlib.axis_4">
    <g id="ytick_9">
     <g id="line2d_38">
      <path d="M 319.772326 212.235 
L 558.190508 212.235 
" clip-path="url(#p2ea5dd2464)" style="fill: none; stroke: #cbd5e1; stroke-opacity: 0.7; stroke-width: 0.5; stroke-linecap: square"/>
     </g>
     <g id="line2d_39">
      <g>
       <use xlink:href="#m47d585fd10" x="319.772326" y="212.235" style="fill: #64748b; stroke: #64748b; stroke-width: 0.8"/>
      </g>
     </g>
     <g id="text_22">
      <!-- 0 -->
      <g style="fill: #64748b" transform="translate(309.045529 215.4225) scale(0.085 -0.085)">
       <use xlink:href="#Helvetica-13"/>
      </g>
     </g>
    </g>
    <g id="ytick_10">
     <g id="line2d_40">
      <path d="M 319.772326 189.187653 
L 558.190508 189.187653 
" clip-path="url(#p2ea5dd2464)" style="fill: none; stroke: #cbd5e1; stroke-opacity: 0.7; stroke-width: 0.5; stroke-linecap: square"/>
     </g>
     <g id="line2d_41">
      <g>
       <use xlink:href="#m47d585fd10" x="319.772326" y="189.187653" style="fill: #64748b; stroke: #64748b; stroke-width: 0.8"/>
      </g>
     </g>
     <g id="text_23">
      <!-- 1 -->
      <g style="fill: #64748b" transform="translate(309.045529 192.375153) scale(0.085 -0.085)">
       <use xlink:href="#Helvetica-14"/>
      </g>
     </g>
    </g>
    <g id="ytick_11">
     <g id="line2d_42">
      <path d="M 319.772326 166.140307 
L 558.190508 166.140307 
" clip-path="url(#p2ea5dd2464)" style="fill: none; stroke: #cbd5e1; stroke-opacity: 0.7; stroke-width: 0.5; stroke-linecap: square"/>
     </g>
     <g id="line2d_43">
      <g>
       <use xlink:href="#m47d585fd10" x="319.772326" y="166.140307" style="fill: #64748b; stroke: #64748b; stroke-width: 0.8"/>
      </g>
     </g>
     <g id="text_24">
      <!-- 2 -->
      <g style="fill: #64748b" transform="translate(309.045529 169.327807) scale(0.085 -0.085)">
       <use xlink:href="#Helvetica-15"/>
      </g>
     </g>
    </g>
    <g id="ytick_12">
     <g id="line2d_44">
      <path d="M 319.772326 143.09296 
L 558.190508 143.09296 
" clip-path="url(#p2ea5dd2464)" style="fill: none; stroke: #cbd5e1; stroke-opacity: 0.7; stroke-width: 0.5; stroke-linecap: square"/>
     </g>
     <g id="line2d_45">
      <g>
       <use xlink:href="#m47d585fd10" x="319.772326" y="143.09296" style="fill: #64748b; stroke: #64748b; stroke-width: 0.8"/>
      </g>
     </g>
     <g id="text_25">
      <!-- 3 -->
      <g style="fill: #64748b" transform="translate(309.045529 146.28046) scale(0.085 -0.085)">
       <use xlink:href="#Helvetica-16"/>
      </g>
     </g>
    </g>
    <g id="ytick_13">
     <g id="line2d_46">
      <path d="M 319.772326 120.045614 
L 558.190508 120.045614 
" clip-path="url(#p2ea5dd2464)" style="fill: none; stroke: #cbd5e1; stroke-opacity: 0.7; stroke-width: 0.5; stroke-linecap: square"/>
     </g>
     <g id="line2d_47">
      <g>
       <use xlink:href="#m47d585fd10" x="319.772326" y="120.045614" style="fill: #64748b; stroke: #64748b; stroke-width: 0.8"/>
      </g>
     </g>
     <g id="text_26">
      <!-- 4 -->
      <g style="fill: #64748b" transform="translate(309.045529 123.233114) scale(0.085 -0.085)">
       <use xlink:href="#Helvetica-17"/>
      </g>
     </g>
    </g>
    <g id="ytick_14">
     <g id="line2d_48">
      <path d="M 319.772326 96.998267 
L 558.190508 96.998267 
" clip-path="url(#p2ea5dd2464)" style="fill: none; stroke: #cbd5e1; stroke-opacity: 0.7; stroke-width: 0.5; stroke-linecap: square"/>
     </g>
     <g id="line2d_49">
      <g>
       <use xlink:href="#m47d585fd10" x="319.772326" y="96.998267" style="fill: #64748b; stroke: #64748b; stroke-width: 0.8"/>
      </g>
     </g>
     <g id="text_27">
      <!-- 5 -->
      <g style="fill: #64748b" transform="translate(309.045529 100.185767) scale(0.085 -0.085)">
       <use xlink:href="#Helvetica-18"/>
      </g>
     </g>
    </g>
    <g id="ytick_15">
     <g id="line2d_50">
      <path d="M 319.772326 73.950921 
L 558.190508 73.950921 
" clip-path="url(#p2ea5dd2464)" style="fill: none; stroke: #cbd5e1; stroke-opacity: 0.7; stroke-width: 0.5; stroke-linecap: square"/>
     </g>
     <g id="line2d_51">
      <g>
       <use xlink:href="#m47d585fd10" x="319.772326" y="73.950921" style="fill: #64748b; stroke: #64748b; stroke-width: 0.8"/>
      </g>
     </g>
     <g id="text_28">
      <!-- 6 -->
      <g style="fill: #64748b" transform="translate(309.045529 77.138421) scale(0.085 -0.085)">
       <use xlink:href="#Helvetica-19"/>
      </g>
     </g>
    </g>
    <g id="ytick_16">
     <g id="line2d_52">
      <path d="M 319.772326 50.903574 
L 558.190508 50.903574 
" clip-path="url(#p2ea5dd2464)" style="fill: none; stroke: #cbd5e1; stroke-opacity: 0.7; stroke-width: 0.5; stroke-linecap: square"/>
     </g>
     <g id="line2d_53">
      <g>
       <use xlink:href="#m47d585fd10" x="319.772326" y="50.903574" style="fill: #64748b; stroke: #64748b; stroke-width: 0.8"/>
      </g>
     </g>
     <g id="text_29">
      <!-- 7 -->
      <g style="fill: #64748b" transform="translate(309.045529 54.091074) scale(0.085 -0.085)">
       <defs>
        <path id="Helvetica-1a" d="M 3347 4400 
L 3347 3909 
Q 3131 3700 2773 3181 
Q 2416 2663 2141 2063 
Q 1869 1478 1728 997 
Q 1638 688 1494 0 
L 872 0 
Q 1084 1281 1809 2550 
Q 2238 3294 2709 3834 
L 234 3834 
L 234 4400 
L 3347 4400 
z
" transform="scale(0.015625)"/>
       </defs>
       <use xlink:href="#Helvetica-1a"/>
      </g>
     </g>
    </g>
    <g id="ytick_17">
     <g id="line2d_54">
      <path d="M 319.772326 27.856227 
L 558.190508 27.856227 
" clip-path="url(#p2ea5dd2464)" style="fill: none; stroke: #cbd5e1; stroke-opacity: 0.7; stroke-width: 0.5; stroke-linecap: square"/>
     </g>
     <g id="line2d_55">
      <g>
       <use xlink:href="#m47d585fd10" x="319.772326" y="27.856227" style="fill: #64748b; stroke: #64748b; stroke-width: 0.8"/>
      </g>
     </g>
     <g id="text_30">
      <!-- 8 -->
      <g style="fill: #64748b" transform="translate(309.045529 31.043727) scale(0.085 -0.085)">
       <defs>
        <path id="Helvetica-1b" d="M 1741 2600 
Q 2113 2600 2322 2808 
Q 2531 3016 2531 3303 
Q 2531 3553 2331 3762 
Q 2131 3972 1722 3972 
Q 1316 3972 1134 3762 
Q 953 3553 953 3272 
Q 953 2956 1187 2778 
Q 1422 2600 1741 2600 
z
M 1775 384 
Q 2166 384 2423 595 
Q 2681 806 2681 1225 
Q 2681 1659 2415 1884 
Q 2150 2109 1734 2109 
Q 1331 2109 1076 1879 
Q 822 1650 822 1244 
Q 822 894 1055 639 
Q 1288 384 1775 384 
z
M 975 2384 
Q 741 2484 609 2619 
Q 363 2869 363 3269 
Q 363 3769 725 4128 
Q 1088 4488 1753 4488 
Q 2397 4488 2762 4148 
Q 3128 3809 3128 3356 
Q 3128 2938 2916 2678 
Q 2797 2531 2547 2391 
Q 2825 2263 2984 2097 
Q 3281 1784 3281 1284 
Q 3281 694 2884 283 
Q 2488 -128 1763 -128 
Q 1109 -128 657 226 
Q 206 581 206 1256 
Q 206 1653 400 1942 
Q 594 2231 975 2384 
z
" transform="scale(0.015625)"/>
       </defs>
       <use xlink:href="#Helvetica-1b"/>
      </g>
     </g>
    </g>
    <g id="text_31">
     <!-- test mean squared error -->
     <g style="fill: #1e293b" transform="translate(302.856935 171.237422) rotate(-90) scale(0.105 -0.105)">
      <defs>
       <path id="Helvetica-54" d="M 775 1628 
Q 775 1194 897 900 
Q 1113 378 1669 378 
Q 2256 378 2478 928 
Q 2600 1231 2600 1703 
Q 2600 2138 2466 2428 
Q 2238 2925 1663 2925 
Q 1297 2925 1036 2608 
Q 775 2291 775 1628 
z
M 1606 3422 
Q 2022 3422 2306 3213 
Q 2463 3100 2606 2881 
L 2606 3347 
L 3141 3347 
L 3141 -1334 
L 2575 -1334 
L 2575 384 
Q 2434 159 2186 26 
Q 1938 -106 1566 -106 
Q 1031 -106 609 312 
Q 188 731 188 1588 
Q 188 2391 583 2906 
Q 978 3422 1606 3422 
z
" transform="scale(0.015625)"/>
      </defs>
      <use xlink:href="#Helvetica-57"/>
      <use xlink:href="#Helvetica-48" transform="translate(27.78125 0)"/>
      <use xlink:href="#Helvetica-56" transform="translate(83.390625 0)"/>
      <use xlink:href="#Helvetica-57" transform="translate(133.390625 0)"/>
      <use xlink:href="#Helvetica-3" transform="translate(161.171875 0)"/>
      <use xlink:href="#Helvetica-50" transform="translate(188.953125 0)"/>
      <use xlink:href="#Helvetica-48" transform="translate(272.25 0)"/>
      <use xlink:href="#Helvetica-44" transform="translate(327.859375 0)"/>
      <use xlink:href="#Helvetica-51" transform="translate(383.46875 0)"/>
      <use xlink:href="#Helvetica-3" transform="translate(439.078125 0)"/>
      <use xlink:href="#Helvetica-56" transform="translate(466.859375 0)"/>
      <use xlink:href="#Helvetica-54" transform="translate(516.859375 0)"/>
      <use xlink:href="#Helvetica-58" transform="translate(572.46875 0)"/>
      <use xlink:href="#Helvetica-44" transform="translate(628.078125 0)"/>
      <use xlink:href="#Helvetica-55" transform="translate(683.6875 0)"/>
      <use xlink:href="#Helvetica-48" transform="translate(716.984375 0)"/>
      <use xlink:href="#Helvetica-47" transform="translate(772.59375 0)"/>
      <use xlink:href="#Helvetica-3" transform="translate(828.203125 0)"/>
      <use xlink:href="#Helvetica-48" transform="translate(855.984375 0)"/>
      <use xlink:href="#Helvetica-55" transform="translate(911.59375 0)"/>
      <use xlink:href="#Helvetica-55" transform="translate(944.890625 0)"/>
      <use xlink:href="#Helvetica-52" transform="translate(978.1875 0)"/>
      <use xlink:href="#Helvetica-55" transform="translate(1033.796875 0)"/>
     </g>
    </g>
   </g>
   <g id="patch_6">
    <path d="M 330.609516 212.235 
L 373.958276 212.235 
L 373.958276 207.517012 
L 330.609516 207.517012 
z
" clip-path="url(#p2ea5dd2464)" style="fill: #ea580c"/>
   </g>
   <g id="patch_7">
    <path d="M 417.307037 212.235 
L 460.655797 212.235 
L 460.655797 123.576396 
L 417.307037 123.576396 
z
" clip-path="url(#p2ea5dd2464)" style="fill: #059669"/>
   </g>
   <g id="patch_8">
    <path d="M 504.004557 212.235 
L 547.353318 212.235 
L 547.353318 27.435 
L 504.004557 27.435 
z
" clip-path="url(#p2ea5dd2464)" style="fill: #64748b"/>
   </g>
   <g id="patch_9">
    <path d="M 319.772326 212.235 
L 319.772326 18.195 
" style="fill: none; stroke: #64748b; stroke-width: 0.9; stroke-linejoin: miter; stroke-linecap: square"/>
   </g>
   <g id="patch_10">
    <path d="M 319.772326 212.235 
L 558.190508 212.235 
" style="fill: none; stroke: #64748b; stroke-width: 0.9; stroke-linejoin: miter; stroke-linecap: square"/>
   </g>
   <g id="text_32">
    <!-- What the split is worth -->
    <g style="fill: #1e293b" transform="translate(387.632315 12.195) scale(0.105 -0.105)">
     <defs>
      <path id="Helvetica-3a" d="M 791 4591 
L 1656 856 
L 2694 4591 
L 3369 4591 
L 4406 856 
L 5272 4591 
L 5953 4591 
L 4747 0 
L 4094 0 
L 3034 3806 
L 1969 0 
L 1316 0 
L 116 4591 
L 791 4591 
z
" transform="scale(0.015625)"/>
     </defs>
     <use xlink:href="#Helvetica-3a"/>
     <use xlink:href="#Helvetica-4b" transform="translate(94.390625 0)"/>
     <use xlink:href="#Helvetica-44" transform="translate(150 0)"/>
     <use xlink:href="#Helvetica-57" transform="translate(205.609375 0)"/>
     <use xlink:href="#Helvetica-3" transform="translate(233.390625 0)"/>
     <use xlink:href="#Helvetica-57" transform="translate(261.171875 0)"/>
     <use xlink:href="#Helvetica-4b" transform="translate(288.953125 0)"/>
     <use xlink:href="#Helvetica-48" transform="translate(344.5625 0)"/>
     <use xlink:href="#Helvetica-3" transform="translate(400.171875 0)"/>
     <use xlink:href="#Helvetica-56" transform="translate(427.953125 0)"/>
     <use xlink:href="#Helvetica-53" transform="translate(477.953125 0)"/>
     <use xlink:href="#Helvetica-4f" transform="translate(533.5625 0)"/>
     <use xlink:href="#Helvetica-4c" transform="translate(555.78125 0)"/>
     <use xlink:href="#Helvetica-57" transform="translate(578 0)"/>
     <use xlink:href="#Helvetica-3" transform="translate(605.78125 0)"/>
     <use xlink:href="#Helvetica-4c" transform="translate(633.5625 0)"/>
     <use xlink:href="#Helvetica-56" transform="translate(655.78125 0)"/>
     <use xlink:href="#Helvetica-3" transform="translate(705.78125 0)"/>
     <use xlink:href="#Helvetica-5a" transform="translate(733.5625 0)"/>
     <use xlink:href="#Helvetica-52" transform="translate(805.78125 0)"/>
     <use xlink:href="#Helvetica-55" transform="translate(861.390625 0)"/>
     <use xlink:href="#Helvetica-57" transform="translate(894.6875 0)"/>
     <use xlink:href="#Helvetica-4b" transform="translate(922.46875 0)"/>
    </g>
   </g>
  </g>
 </g>
 <defs>
  <clipPath id="p5652fd8685">
   <rect x="33.670508" y="18.195" width="238.418182" height="194.04"/>
  </clipPath>
  <clipPath id="p2ea5dd2464">
   <rect x="319.772326" y="18.195" width="238.418182" height="194.04"/>
  </clipPath>
 </defs>
</svg>
